<svg width="80" height="80" viewBox="0 0 80 80" fill="none" xmlns="http://www.w3.org/2000/svg">
<path d="M73.6718 49.4356L75.7605 47.3476C77.0747 46.0327 77.0747 43.8935 75.7605 42.5785C75.1231 41.9419 74.2767 41.591 73.3756 41.591C72.6995 41.591 72.0534 41.7888 71.5042 42.1571L71.0642 40.68L73.325 38.4187C74.6398 37.1038 74.6398 34.9646 73.325 33.6502C72.1146 32.4394 70.2066 32.3464 68.8849 33.365L66.2061 24.3715C67.2355 23.3816 68.2557 22.382 69.2665 21.373C72.0496 18.5893 74.3123 15.6436 75.6384 13.0772C77.879 8.73972 76.9411 6.42112 75.7599 5.23987C74.5792 4.05861 72.2606 3.12116 67.9225 5.36191C65.3567 6.68746 62.4105 8.95031 59.6274 11.7338C58.6182 12.7443 57.6187 13.7643 56.629 14.7937L47.6348 12.1148C48.6535 10.7937 48.5604 8.88572 47.3502 7.67495C46.0352 6.36038 43.8959 6.35996 42.5817 7.67495L40.3204 9.93609L38.8428 9.49609C39.211 8.94631 39.4087 8.30029 39.4087 7.62419C39.4099 7.18122 39.3233 6.7424 39.1538 6.33314C38.9843 5.92388 38.7353 5.55229 38.4212 5.23987C37.1068 3.92502 34.967 3.92502 33.6527 5.23987L31.5647 7.32792L20.9221 4.1577C20.7362 4.10233 20.5387 4.09826 20.3507 4.14592C20.1626 4.19358 19.9909 4.29121 19.8538 4.42846L17.1143 7.16809C16.6542 7.62747 16.7149 8.41336 17.2395 8.79718L44.092 28.4522C38.0376 35.2787 32.2053 42.1134 28.0876 46.9967L20.1891 43.9587C19.9948 43.8839 19.783 43.8671 19.5794 43.9103C19.3758 43.9535 19.189 44.0549 19.0418 44.2021L15.7949 47.449C15.5932 47.6508 15.48 47.9245 15.48 48.2098C15.48 48.4951 15.5932 48.7687 15.7949 48.9706L32.0292 65.2049C32.4435 65.6198 33.1365 65.6198 33.5514 65.2049L36.7979 61.9584C36.9451 61.8111 37.0465 61.6243 37.0897 61.4206C37.1328 61.2168 37.116 61.005 37.0411 60.8106L34.0036 52.9127C38.8869 48.795 45.7211 42.9628 52.5481 36.9078L54.6811 39.8228C55.0599 40.3402 55.828 40.4071 56.2925 39.9659C56.6796 39.5984 56.7331 38.9819 56.4184 38.5518L54.1632 35.4707C57.7334 32.2846 61.2588 29.0699 64.4573 26.0407L74.5965 60.0782L73.1979 61.4762L59.2627 42.4377C59.0941 42.2074 58.841 42.0535 58.559 42.0098C58.277 41.9662 57.9892 42.0363 57.7589 42.2048C57.6448 42.2883 57.5482 42.3934 57.4748 42.5141C57.4013 42.6349 57.3524 42.769 57.3307 42.9087C57.3091 43.0484 57.3152 43.191 57.3488 43.3283C57.3823 43.4656 57.4425 43.595 57.5261 43.709L72.2032 63.7608C72.587 64.2855 73.3729 64.3461 73.8322 63.886L76.5719 61.1465C76.7091 61.0094 76.8067 60.8377 76.8543 60.6497C76.902 60.4616 76.898 60.2642 76.8426 60.0782L73.6718 49.4356ZM44.1037 9.19697C44.5738 8.72689 45.3585 8.72689 45.8286 9.19697C46.3042 9.6726 46.3042 10.4462 45.8286 10.9219L45.324 11.4265L42.6656 10.6344L44.1037 9.19697ZM35.1747 6.76203C35.6498 6.28639 36.424 6.28639 36.8997 6.76203C37.3753 7.23766 37.3753 8.01129 36.8997 8.48693L36.5677 8.81828L33.9101 8.02697L35.1747 6.76203ZM19.5236 7.80184L20.9221 6.40387L54.9597 16.5426C51.9305 19.7416 48.7158 23.2671 45.529 26.8371L19.5236 7.80184ZM20.0694 46.2187L26.6218 48.7389C25.4017 50.1912 24.1859 51.647 22.9744 53.1064L18.0777 48.2098L20.0694 46.2187ZM24.5032 54.6353C28.2547 50.109 48.0847 26.3203 61.1495 13.2554C63.7416 10.6628 66.5709 8.48294 68.9106 7.27431C70.6672 6.36666 73.0174 5.54128 74.2383 6.76203C75.4592 7.98277 74.6332 10.3332 73.7259 12.0897C72.5174 14.4294 70.3368 17.2582 67.7443 19.8508C54.6807 32.9145 30.8913 52.7449 26.365 56.4971L24.5032 54.6353ZM34.7817 60.931L32.7906 62.9221L27.8939 58.0254C28.7894 57.2824 30.3043 56.0222 32.2615 54.3785L34.7817 60.931ZM72.5134 44.1007C72.989 43.625 73.7627 43.625 74.2383 44.1007C74.7139 44.5763 74.7139 45.3499 74.2383 45.8256L72.9735 47.0902L72.1815 44.4326L72.5134 44.1007ZM70.0785 35.1718C70.5535 34.6961 71.3277 34.6967 71.8034 35.1718C72.2734 35.6418 72.2734 36.4264 71.8034 36.8967L70.3653 38.3347L69.5733 35.6763L70.0785 35.1718ZM68.5998 65.9791L59.4164 75.1625C59.0248 75.5546 58.9986 76.2019 59.359 76.6228C59.7617 77.0929 60.5007 77.1224 60.9385 76.6847L70.1219 67.5012C70.2219 67.4013 70.3012 67.2827 70.3554 67.1521C70.4095 67.0215 70.4373 66.8815 70.4373 66.7401C70.4373 66.5988 70.4095 66.4588 70.3554 66.3282C70.3012 66.1976 70.2219 66.079 70.1219 65.9791C69.7019 65.5592 69.0202 65.5592 68.5998 65.9791Z" fill="#104B59"/>
<path d="M68.5999 65.9791L59.4165 75.1625C59.025 75.5546 58.9987 76.2019 59.3592 76.6228C59.7618 77.0929 60.5008 77.1224 60.9387 76.6847L70.1221 67.5013C70.2221 67.4013 70.3014 67.2827 70.3555 67.1521C70.4096 67.0215 70.4375 66.8815 70.4375 66.7402C70.4375 66.5988 70.4096 66.4589 70.3555 66.3283C70.3014 66.1977 70.2221 66.079 70.1221 65.9791C69.702 65.5592 69.0204 65.5592 68.5999 65.9791Z" fill="#FF7D44"/>
<path d="M65.5295 62.9092C65.6295 62.8094 65.7088 62.6908 65.7629 62.5602C65.817 62.4297 65.8449 62.2898 65.8449 62.1484C65.8449 62.0071 65.817 61.8672 65.7629 61.7366C65.7088 61.6061 65.6295 61.4875 65.5295 61.3876C65.4296 61.2877 65.3111 61.2084 65.1805 61.1543C65.05 61.1002 64.9101 61.0723 64.7688 61.0723C64.6275 61.0723 64.4876 61.1002 64.357 61.1543C64.2265 61.2084 64.1079 61.2877 64.0081 61.3876L58.2682 67.127C57.8767 67.519 57.8504 68.1662 58.2109 68.5872C58.6135 69.0573 59.3526 69.0868 59.7903 68.6491L65.5295 62.9092ZM62.086 57.1699C62.186 57.07 62.2653 56.9513 62.3194 56.8207C62.3735 56.6902 62.4013 56.5502 62.4013 56.4088C62.4013 56.2675 62.3735 56.1275 62.3194 55.9969C62.2653 55.8663 62.186 55.7477 62.086 55.6478C61.9861 55.5478 61.8674 55.4685 61.7368 55.4144C61.6063 55.3603 61.4663 55.3325 61.325 55.3325C61.1836 55.3325 61.0437 55.3603 60.9131 55.4144C60.7825 55.4685 60.6639 55.5478 60.564 55.6478L56.5461 59.6656C56.1546 60.0571 56.1284 60.7048 56.4894 61.1259C56.8914 61.5959 57.6304 61.6255 58.0683 61.1877L62.086 57.1699ZM15.021 11.4521C14.6004 11.0321 13.9188 11.0321 13.4988 11.4521L4.31538 20.6361C4.2154 20.736 4.13609 20.8546 4.08197 20.9851C4.02785 21.1157 4 21.2556 4 21.3969C4 21.5382 4.02785 21.6781 4.08197 21.8087C4.13609 21.9392 4.2154 22.0578 4.31538 22.1577C4.72971 22.572 5.42264 22.572 5.83754 22.1577L15.021 12.9743C15.2226 12.7723 15.3359 12.4986 15.3359 12.2132C15.3359 11.9278 15.2226 11.6541 15.021 11.4521ZM19.6124 16.0441C19.5125 15.9441 19.3939 15.8648 19.2634 15.8107C19.1328 15.7566 18.9929 15.7287 18.8516 15.7287C18.7103 15.7287 18.5704 15.7566 18.4398 15.8107C18.3093 15.8648 18.1907 15.9441 18.0908 16.0441L12.3509 21.7839C11.9588 22.1755 11.9332 22.8227 12.2936 23.2437C12.6962 23.7138 13.4348 23.7433 13.8725 23.3054L19.6124 17.5661C19.7124 17.4662 19.7916 17.3476 19.8457 17.217C19.8998 17.0864 19.9277 16.9465 19.9277 16.8051C19.9277 16.6638 19.8998 16.5238 19.8457 16.3932C19.7916 16.2627 19.7124 16.144 19.6124 16.0441ZM19.8123 25.0275C20.2272 25.442 20.9195 25.442 21.3344 25.0275L25.3523 21.0097C25.5539 20.8077 25.6672 20.534 25.6672 20.2487C25.6672 19.9633 25.5539 19.6896 25.3523 19.4876C25.1503 19.286 24.8766 19.1727 24.5912 19.1727C24.3058 19.1727 24.0321 19.286 23.8301 19.4876L19.8123 23.5055C19.6106 23.7074 19.4974 23.9811 19.4974 24.2665C19.4974 24.5519 19.6106 24.8256 19.8123 25.0275Z" fill="#FF7D44"/>
</svg>
