<svg width="73" height="73" viewBox="0 0 73 73" fill="none" xmlns="http://www.w3.org/2000/svg">
<path d="M69.6719 45.4356L71.7605 43.3476C73.0748 42.0327 73.0748 39.8935 71.7605 38.5785C71.1231 37.9419 70.2767 37.591 69.3756 37.591C68.6995 37.591 68.0535 37.7888 67.5042 38.1571L67.0642 36.68L69.325 34.4187C70.6398 33.1038 70.6398 30.9646 69.325 29.6502C68.1146 28.4394 66.2066 28.3464 64.885 29.365L62.2061 20.3715C63.2355 19.3816 64.2557 18.382 65.2665 17.3729C68.0496 14.5893 70.3123 11.6436 71.6384 9.07722C73.879 4.73972 72.9412 2.42112 71.7599 1.23987C70.5792 0.0586113 68.2606 -0.878837 63.9226 1.36191C61.3567 2.68746 58.4105 4.95031 55.6274 7.73385C54.6182 8.74427 53.6187 9.76427 52.629 10.7937L43.6348 8.11482C44.6535 6.79369 44.5604 4.88572 43.3502 3.67495C42.0352 2.36038 39.8959 2.35996 38.5817 3.67495L36.3204 5.93609L34.8428 5.49609C35.211 4.94631 35.4087 4.30029 35.4087 3.62419C35.4099 3.18122 35.3233 2.7424 35.1538 2.33314C34.9843 1.92388 34.7353 1.55229 34.4212 1.23987C33.1068 -0.074984 30.967 -0.074984 29.6527 1.23987L27.5647 3.32792L16.9221 0.157703C16.7362 0.102329 16.5387 0.0982585 16.3507 0.145921C16.1626 0.193584 15.9909 0.291207 15.8538 0.428458L13.1143 3.16809C12.6542 3.62747 12.7149 4.41336 13.2395 4.79718L40.092 24.4522C34.0376 31.2787 28.2053 38.1134 24.0876 42.9967L16.1891 39.9587C15.9948 39.8839 15.783 39.8671 15.5794 39.9103C15.3758 39.9535 15.189 40.0549 15.0418 40.202L11.7949 43.449C11.5932 43.6508 11.48 43.9245 11.48 44.2098C11.48 44.4951 11.5932 44.7687 11.7949 44.9706L28.0292 61.2049C28.4435 61.6198 29.1365 61.6198 29.5514 61.2049L32.7979 57.9584C32.9451 57.8111 33.0465 57.6243 33.0897 57.4206C33.1328 57.2168 33.116 57.005 33.0411 56.8106L30.0036 48.9127C34.8869 44.795 41.7211 38.9628 48.5481 32.9078L50.6811 35.8228C51.0599 36.3402 51.828 36.4071 52.2925 35.9659C52.6796 35.5984 52.7331 34.9819 52.4184 34.5518L50.1632 31.4707C53.7334 28.2846 57.2588 25.0699 60.4573 22.0407L70.5965 56.0782L69.1979 57.4762L55.2627 38.4377C55.0941 38.2074 54.841 38.0535 54.559 38.0098C54.277 37.9662 53.9892 38.0363 53.7589 38.2048C53.6448 38.2883 53.5482 38.3934 53.4748 38.5141C53.4013 38.6349 53.3524 38.769 53.3307 38.9087C53.3091 39.0484 53.3152 39.191 53.3488 39.3283C53.3823 39.4656 53.4425 39.595 53.5261 39.709L68.2032 59.7608C68.587 60.2855 69.3729 60.3461 69.8323 59.886L72.5719 57.1465C72.7091 57.0094 72.8067 56.8377 72.8543 56.6497C72.902 56.4616 72.898 56.2642 72.8426 56.0782L69.6719 45.4356ZM40.1037 5.19697C40.5738 4.72689 41.3585 4.72689 41.8286 5.19697C42.3042 5.6726 42.3042 6.44623 41.8286 6.92187L41.324 7.42645L38.6656 6.63443L40.1037 5.19697ZM31.1748 2.76203C31.6498 2.28639 32.424 2.28639 32.8997 2.76203C33.3753 3.23766 33.3753 4.01129 32.8997 4.48693L32.5677 4.81828L29.9101 4.02697L31.1748 2.76203ZM15.5236 3.80184L16.9221 2.40387L50.9597 12.5426C47.9305 15.7416 44.7158 19.2671 41.529 22.8371L15.5236 3.80184ZM16.0694 42.2187L22.6218 44.7389C21.4017 46.1912 20.1859 47.647 18.9744 49.1064L14.0777 44.2098L16.0694 42.2187ZM20.5032 50.6353C24.2547 46.109 44.0847 22.3203 57.1495 9.25544C59.7416 6.66281 62.5709 4.48294 64.9106 3.27431C66.6672 2.36666 69.0174 1.54128 70.2383 2.76203C71.4592 3.98277 70.6333 6.33317 69.7259 8.08972C68.5174 10.4294 66.3368 13.2582 63.7443 15.8508C50.6807 28.9145 26.8913 48.7449 22.365 52.4971L20.5032 50.6353ZM30.7817 56.931L28.7906 58.9221L23.8939 54.0254C24.7894 53.2824 26.3043 52.0222 28.2615 50.3785L30.7817 56.931ZM68.5134 40.1007C68.989 39.625 69.7627 39.625 70.2383 40.1007C70.714 40.5763 70.714 41.3499 70.2383 41.8256L68.9735 43.0902L68.1815 40.4326L68.5134 40.1007ZM66.0785 31.1718C66.5535 30.6961 67.3277 30.6967 67.8034 31.1718C68.2734 31.6418 68.2734 32.4264 67.8034 32.8967L66.3653 34.3347L65.5733 31.6763L66.0785 31.1718ZM64.5998 61.9791L55.4164 71.1625C55.0248 71.5546 54.9986 72.2019 55.3591 72.6228C55.7617 73.0929 56.5007 73.1224 56.9385 72.6847L66.122 63.5012C66.2219 63.4013 66.3012 63.2827 66.3554 63.1521C66.4095 63.0215 66.4373 62.8815 66.4373 62.7401C66.4373 62.5988 66.4095 62.4588 66.3554 62.3282C66.3012 62.1976 66.2219 62.079 66.122 61.9791C65.7019 61.5592 65.0203 61.5592 64.5998 61.9791Z" fill="white"/>
<path d="M64.5999 61.9791L55.4165 71.1625C55.025 71.5546 54.9987 72.2019 55.3592 72.6228C55.7618 73.0929 56.5008 73.1224 56.9387 72.6847L66.1221 63.5013C66.2221 63.4013 66.3014 63.2827 66.3555 63.1521C66.4096 63.0215 66.4375 62.8815 66.4375 62.7402C66.4375 62.5988 66.4096 62.4589 66.3555 62.3283C66.3014 62.1977 66.2221 62.079 66.1221 61.9791C65.702 61.5592 65.0204 61.5592 64.5999 61.9791Z" fill="#FF7D44"/>
<path d="M61.5295 58.9092C61.6295 58.8094 61.7088 58.6908 61.7629 58.5602C61.817 58.4297 61.8449 58.2897 61.8449 58.1484C61.8449 58.0071 61.817 57.8672 61.7629 57.7366C61.7088 57.6061 61.6295 57.4875 61.5295 57.3876C61.4296 57.2877 61.3111 57.2084 61.1805 57.1543C61.05 57.1002 60.9101 57.0723 60.7688 57.0723C60.6275 57.0723 60.4876 57.1002 60.357 57.1543C60.2265 57.2084 60.1079 57.2877 60.0081 57.3876L54.2682 63.127C53.8767 63.519 53.8504 64.1662 54.2109 64.5872C54.6135 65.0573 55.3526 65.0868 55.7903 64.6491L61.5295 58.9092ZM58.086 53.1699C58.186 53.07 58.2653 52.9513 58.3194 52.8207C58.3735 52.6902 58.4013 52.5502 58.4013 52.4088C58.4013 52.2675 58.3735 52.1275 58.3194 51.9969C58.2653 51.8663 58.186 51.7477 58.086 51.6477C57.9861 51.5478 57.8674 51.4685 57.7368 51.4144C57.6063 51.3603 57.4663 51.3324 57.325 51.3324C57.1836 51.3324 57.0437 51.3603 56.9131 51.4144C56.7825 51.4685 56.6639 51.5478 56.564 51.6477L52.5461 55.6656C52.1546 56.0571 52.1284 56.7048 52.4894 57.1259C52.8914 57.5959 53.6304 57.6255 54.0683 57.1877L58.086 53.1699ZM11.021 7.45211C10.6004 7.03208 9.91884 7.03208 9.49881 7.45211L0.315382 16.6361C0.215401 16.736 0.136085 16.8546 0.0819697 16.9851C0.0278541 17.1157 0 17.2556 0 17.3969C0 17.5382 0.0278541 17.6781 0.0819697 17.8087C0.136085 17.9392 0.215401 18.0578 0.315382 18.1577C0.729713 18.572 1.42264 18.572 1.83754 18.1577L11.021 8.97427C11.2226 8.77233 11.3359 8.49859 11.3359 8.21319C11.3359 7.92779 11.2226 7.65405 11.021 7.45211ZM15.6124 12.0441C15.5125 11.9441 15.3939 11.8648 15.2634 11.8107C15.1328 11.7566 14.9929 11.7287 14.8516 11.7287C14.7103 11.7287 14.5704 11.7566 14.4398 11.8107C14.3093 11.8648 14.1907 11.9441 14.0908 12.0441L8.35091 17.7839C7.95882 18.1755 7.93316 18.8227 8.2936 19.2437C8.69624 19.7138 9.43479 19.7433 9.8725 19.3054L15.6124 13.5661C15.7124 13.4662 15.7916 13.3476 15.8457 13.217C15.8998 13.0864 15.9277 12.9465 15.9277 12.8051C15.9277 12.6638 15.8998 12.5238 15.8457 12.3932C15.7916 12.2627 15.7124 12.144 15.6124 12.0441ZM15.8123 21.0275C16.2272 21.442 16.9195 21.442 17.3344 21.0275L21.3523 17.0097C21.5539 16.8077 21.6672 16.534 21.6672 16.2487C21.6672 15.9633 21.5539 15.6896 21.3523 15.4876C21.1503 15.286 20.8766 15.1727 20.5912 15.1727C20.3058 15.1727 20.0321 15.286 19.8301 15.4876L15.8123 19.5055C15.6106 19.7074 15.4974 19.9811 15.4974 20.2665C15.4974 20.5519 15.6106 20.8256 15.8123 21.0275Z" fill="#FF7D44"/>
</svg>
