<svg width="60" height="60" viewBox="0 0 60 60" fill="none" xmlns="http://www.w3.org/2000/svg">
<path d="M30 0.206177L4.57495 9.4524V30.0043C4.57495 53.2258 29.2478 59.5439 29.4957 59.6075L30 59.7282L30.5042 59.6075C30.7521 59.5439 55.425 53.2258 55.425 30.0043V9.4524L30 0.206177ZM51.1875 30.0043C51.1875 48.3929 33.3688 54.3847 30.0084 55.3509C26.7667 54.3911 8.81245 48.234 8.81245 30.0043V12.4187L30 4.71488L51.1875 12.4187V30.0043Z" fill="white"/>
<path d="M18.7855 28.5063L15.7896 31.5022L25.7625 41.4752L44.2105 23.0272L41.2146 20.0313L25.7625 35.4834L18.7855 28.5063Z" fill="white"/>
</svg>
