<svg width="50" height="50" viewBox="0 0 50 50" fill="none" xmlns="http://www.w3.org/2000/svg">
<g clip-path="url(#clip0_841_68)">
<path d="M46.8801 36.1075C51.7117 29.3285 50.9731 20.0409 44.3737 13.991C41.3584 11.2269 37.5144 9.50605 33.3619 9.02549C33.3361 8.99319 33.309 8.96197 33.2806 8.93193C29.6682 5.17949 24.4783 3.02734 19.0418 3.02734C8.69619 3.02734 0 10.7356 0 20.6055C0 24.0659 1.0749 27.3832 3.1168 30.2481L0.264355 39.2038C0.176654 39.4791 0.172305 39.7741 0.251856 40.0518C0.331408 40.3295 0.491306 40.5775 0.71144 40.7646C0.931574 40.9517 1.20211 41.0695 1.48903 41.1032C1.77594 41.1369 2.06642 41.0851 2.32393 40.9541L10.9984 36.5433C12.7799 37.3104 14.6689 37.8137 16.6252 38.0427C20.3988 42.011 25.6167 44.043 30.9551 44.043C33.7301 44.043 36.495 43.4774 38.998 42.4025L47.6729 46.8136C47.8785 46.9182 48.1059 46.9727 48.3365 46.9727C49.3251 46.9727 50.0338 46.0093 49.7325 45.0632L46.8801 36.1075ZM11.5896 33.5958C11.3873 33.4997 11.1655 33.4513 10.9415 33.4543C10.7174 33.4573 10.4971 33.5117 10.2974 33.6133L4.11895 36.7549L6.13652 30.4203C6.20889 30.1932 6.22471 29.9518 6.18263 29.7171C6.14054 29.4825 6.04182 29.2617 5.89502 29.0738C3.95498 26.5904 2.92949 23.6622 2.92949 20.6055C2.92949 12.5283 10.1574 5.95703 19.0418 5.95703C22.6195 5.95703 26.0638 7.04092 28.8576 8.99277C19.4486 9.93887 11.9133 17.2879 11.9133 26.4648C11.9133 29.3191 12.6449 32.067 14.0243 34.5289C13.19 34.2808 12.376 33.9689 11.5896 33.5958ZM39.6995 39.4726C39.4998 39.371 39.2794 39.3166 39.0554 39.3136C38.8314 39.3106 38.6096 39.359 38.4072 39.4552C36.1235 40.5399 33.5467 41.1133 30.9551 41.1133C22.0707 41.1133 14.8428 34.542 14.8428 26.4648C14.8428 18.3877 22.0707 11.8164 30.9551 11.8164C39.8395 11.8164 47.0674 18.3877 47.0674 26.4648C47.0674 29.5216 46.0419 32.4498 44.1018 34.9331C43.955 35.121 43.8563 35.3418 43.8142 35.5764C43.7721 35.8111 43.7879 36.0524 43.8603 36.2796L45.8778 42.6142L39.6995 39.4726Z" fill="white"/>
<path d="M24.9984 27.9297C25.8074 27.9297 26.4633 27.2739 26.4633 26.4648C26.4633 25.6558 25.8074 25 24.9984 25C24.1894 25 23.5336 25.6558 23.5336 26.4648C23.5336 27.2739 24.1894 27.9297 24.9984 27.9297Z" fill="white"/>
<path d="M30.8575 27.9297C31.6666 27.9297 32.3224 27.2739 32.3224 26.4648C32.3224 25.6558 31.6666 25 30.8575 25C30.0485 25 29.3927 25.6558 29.3927 26.4648C29.3927 27.2739 30.0485 27.9297 30.8575 27.9297Z" fill="white"/>
<path d="M36.7165 27.9297C37.5255 27.9297 38.1813 27.2739 38.1813 26.4648C38.1813 25.6558 37.5255 25 36.7165 25C35.9075 25 35.2516 25.6558 35.2516 26.4648C35.2516 27.2739 35.9075 27.9297 36.7165 27.9297Z" fill="white"/>
</g>
<defs>
<clipPath id="clip0_841_68">
<rect width="50" height="50" fill="white"/>
</clipPath>
</defs>
</svg>
