<svg width="22" height="16" viewBox="0 0 22 16" fill="none" xmlns="http://www.w3.org/2000/svg">
<path d="M3.75 9.65625C3.72917 9.71875 3.69792 9.78125 3.65625 9.84375C3.57292 9.98958 3.48958 10.1354 3.40625 10.2812C3.94792 10.1354 4.46875 9.94792 4.96875 9.71875C5.09375 9.65625 5.22917 9.59375 5.375 9.53125C5.66667 9.36458 5.97917 9.3125 6.3125 9.375C6.6875 9.45833 7.08333 9.5 7.5 9.5C9.02083 9.45833 10.2292 9.04167 11.125 8.25C12.0208 7.45833 12.4792 6.54167 12.5 5.5C12.4792 4.45833 12.0208 3.54167 11.125 2.75C10.2292 1.95833 9.02083 1.54167 7.5 1.5C5.97917 1.54167 4.77083 1.95833 3.875 2.75C2.97917 3.54167 2.52083 4.45833 2.5 5.5C2.5 6.39583 2.84375 7.19792 3.53125 7.90625C3.98958 8.44792 4.0625 9.03125 3.75 9.65625ZM7.5 11C7 11 6.51042 10.9583 6.03125 10.875C5.88542 10.9375 5.73958 11 5.59375 11.0625C4.40625 11.625 3.125 11.9375 1.75 12C1.4375 11.9792 1.20833 11.8229 1.0625 11.5312C0.9375 11.2396 0.989583 10.9792 1.21875 10.75C1.65625 10.25 2.03125 9.69792 2.34375 9.09375C2.36458 9.05208 2.39583 9 2.4375 8.9375C1.5 7.97917 1.02083 6.83333 1 5.5C1.04167 3.9375 1.67708 2.64583 2.90625 1.625C4.13542 0.583333 5.66667 0.0416667 7.5 0C9.33333 0.0416667 10.8646 0.583333 12.0938 1.625C13.3229 2.64583 13.9583 3.9375 14 5.5C13.9583 7.0625 13.3229 8.35417 12.0938 9.375C10.8646 10.4167 9.33333 10.9583 7.5 11ZM14.5 15C13.2083 14.9792 12.0521 14.6979 11.0312 14.1562C9.98958 13.5938 9.19792 12.8438 8.65625 11.9062C9.19792 11.8438 9.71875 11.7292 10.2188 11.5625C10.6354 12.125 11.2083 12.5833 11.9375 12.9375C12.6667 13.2917 13.5208 13.4792 14.5 13.5C14.8958 13.5 15.2917 13.4583 15.6875 13.375C16.0208 13.3125 16.3333 13.3646 16.625 13.5312C16.7708 13.5938 16.9062 13.6562 17.0312 13.7188C17.5312 13.9479 18.0521 14.1354 18.5938 14.2812C18.5729 14.2396 18.5521 14.1979 18.5312 14.1562C18.4688 14.0521 18.4062 13.9479 18.3438 13.8438C18.3021 13.7812 18.2708 13.7188 18.25 13.6562C17.9375 13.0312 18.0104 12.4479 18.4688 11.9062C19.1562 11.1979 19.5 10.3958 19.5 9.5C19.4792 8.52083 19.0729 7.64583 18.2812 6.875C17.4688 6.10417 16.375 5.65625 15 5.53125V5.5C15 4.97917 14.9375 4.47917 14.8125 4C16.5833 4.10417 18.0417 4.66667 19.1875 5.6875C20.3542 6.70833 20.9583 7.97917 21 9.5C20.9792 10.8333 20.5 11.9792 19.5625 12.9375C19.5833 12.9792 19.5938 13.0104 19.5938 13.0312C19.6146 13.0521 19.6354 13.0833 19.6562 13.125C19.9688 13.7083 20.3438 14.25 20.7812 14.75C20.9896 14.9792 21.0417 15.25 20.9375 15.5625C20.7917 15.8333 20.5625 15.9792 20.25 16C18.875 15.9375 17.5938 15.625 16.4062 15.0625C16.2604 15 16.1146 14.9375 15.9688 14.875C15.4896 14.9583 15 15 14.5 15Z" fill="#104B59"/>
</svg>
