<svg width="80" height="80" viewBox="0 0 80 80" fill="none" xmlns="http://www.w3.org/2000/svg">
<path d="M58.3 29.8715L54.4 36.6572L60.6715 41.0429C60.8607 41.1835 61.0167 41.364 61.1286 41.5715H61.4286V55.4572L67.3 42.8572C67.6722 42.0597 67.7896 41.167 67.6362 40.3004C67.4828 39.4338 67.0662 38.6356 66.4429 38.0143L58.3 29.8715ZM21.7 29.8715L13.5572 38.0143C12.9339 38.6356 12.5172 39.4338 12.3639 40.3004C12.2105 41.167 12.3279 42.0597 12.7 42.8572L18.5715 55.4572V41.5715H18.8715C18.9833 41.364 19.1394 41.1835 19.3286 41.0429L25.6143 36.6429L21.7 29.8715ZM51.5429 35.8572C51.226 36.4057 50.8149 36.8941 50.3286 37.3L51.5429 38.1429C52.0303 37.6813 52.4488 37.1521 52.7858 36.5715L53.2143 35.8286L57.2572 28.8286L58.1857 27.2143C58.3026 27.0082 58.3663 26.7762 58.3713 26.5394C58.3763 26.3025 58.3224 26.0681 58.2143 25.8572H57.3286L51.5429 35.8572ZM22.6715 25.8572H21.7858C21.6777 26.0681 21.6238 26.3025 21.6287 26.5394C21.6337 26.7762 21.6975 27.0082 21.8143 27.2143L22.7429 28.8286L26.7858 35.8286L27.2143 36.5715C27.5512 37.1521 27.9698 37.6813 28.4572 38.1429L29.6715 37.3C29.1851 36.8941 28.7741 36.4057 28.4572 35.8572L22.6715 25.8572ZM40 52.89L45.7143 55.8572V43H34.2858V55.8572L40 52.89Z" fill="#FF5C01"/>
<path d="M47.1429 58.2143L40 54.5L32.8571 58.2143V43H20V77.2857H60V43H47.1429V58.2143ZM45.7143 71.5714C45.7143 71.9503 45.5638 72.3137 45.2959 72.5816C45.028 72.8495 44.6646 73 44.2857 73H35.7143C35.3354 73 34.972 72.8495 34.7041 72.5816C34.4362 72.3137 34.2857 71.9503 34.2857 71.5714V67.2857C34.2857 66.9068 34.4362 66.5435 34.7041 66.2756C34.972 66.0077 35.3354 65.8571 35.7143 65.8571H44.2857C44.6646 65.8571 45.028 66.0077 45.2959 66.2756C45.5638 66.5435 45.7143 66.9068 45.7143 67.2857V71.5714ZM14.7714 18.7143L15.2429 24.4286H21.8571C21.3587 23.5589 21.0964 22.5739 21.0964 21.5714C21.0964 20.569 21.3587 19.584 21.8571 18.7143H14.7714ZM64.7571 24.4286L65.2286 18.7143H58.1429C58.6413 19.584 58.9036 20.569 58.9036 21.5714C58.9036 22.5739 58.6413 23.5589 58.1429 24.4286H64.7571ZM13.9286 25.8714L12.8571 13H7.14286L6.07143 25.8714C6.02499 26.4155 6.09206 26.9633 6.2684 27.4801C6.44475 27.9969 6.72651 28.4714 7.09584 28.8736C7.46517 29.2758 7.91402 29.5969 8.41394 29.8165C8.91386 30.0362 9.45395 30.1496 10 30.1496C10.546 30.1496 11.0861 30.0362 11.5861 29.8165C12.086 29.5969 12.5348 29.2758 12.9042 28.8736C13.2735 28.4714 13.5553 27.9969 13.7316 27.4801C13.9079 26.9633 13.975 26.4155 13.9286 25.8714ZM67.1429 13L66.0714 25.8714C66.025 26.4155 66.0921 26.9633 66.2684 27.4801C66.4447 27.9969 66.7265 28.4714 67.0958 28.8736C67.4652 29.2758 67.914 29.5969 68.4139 29.8165C68.9139 30.0362 69.454 30.1496 70 30.1496C70.5461 30.1496 71.0861 30.0362 71.5861 29.8165C72.086 29.5969 72.5348 29.2758 72.9042 28.8736C73.2735 28.4714 73.5553 27.9969 73.7316 27.4801C73.9079 26.9633 73.975 26.4155 73.9286 25.8714L72.8571 13H67.1429ZM10 3C9.62147 3.00113 9.25876 3.152 8.9911 3.41967C8.72343 3.68733 8.57256 4.05004 8.57143 4.42857H11.4286C11.4274 4.05004 11.2766 3.68733 11.0089 3.41967C10.7412 3.152 10.3785 3.00113 10 3ZM8.57143 10.1429H11.4286V11.5714H8.57143V10.1429ZM70 3C69.6215 3.00113 69.2588 3.152 68.9911 3.41967C68.7234 3.68733 68.5726 4.05004 68.5714 4.42857H71.4286C71.4274 4.05004 71.2766 3.68733 71.0089 3.41967C70.7412 3.152 70.3785 3.00113 70 3ZM68.5714 10.1429H71.4286V11.5714H68.5714V10.1429ZM29.69 35.1429C30.0661 35.7944 30.6071 36.3354 31.2586 36.7115C31.9101 37.0877 32.6491 37.2857 33.4014 37.2857H46.5986C47.3509 37.2857 48.0899 37.0877 48.7414 36.7115C49.3929 36.3354 49.9339 35.7944 50.31 35.1429L56.9086 23.7143C57.2847 23.0628 57.4827 22.3237 57.4827 21.5714C57.4827 20.8191 57.2847 20.0801 56.9086 19.4286L50.3086 8C49.9327 7.34892 49.3921 6.80819 48.7412 6.43206C48.0902 6.05594 47.3518 5.85766 46.6 5.85714H33.4C32.6477 5.85716 31.9087 6.0552 31.2572 6.43135C30.6057 6.8075 30.0647 7.34851 29.6886 8L23.09 19.4286C22.7139 20.0801 22.5158 20.8191 22.5158 21.5714C22.5158 22.3237 22.7139 23.0628 23.09 23.7143L29.69 35.1429ZM40 13C41.6953 13 43.3525 13.5027 44.762 14.4445C46.1716 15.3864 47.2702 16.7251 47.919 18.2913C48.5677 19.8575 48.7375 21.5809 48.4067 23.2436C48.076 24.9063 47.2597 26.4336 46.0609 27.6323C44.8622 28.8311 43.3349 29.6474 41.6722 29.9782C40.0095 30.3089 38.2861 30.1391 36.7199 29.4904C35.1536 28.8416 33.815 27.743 32.8731 26.3335C31.9313 24.9239 31.4286 23.2667 31.4286 21.5714C31.4286 19.2981 32.3316 17.118 33.9391 15.5105C35.5465 13.9031 37.7267 13 40 13ZM20 7.28571C20 6.90683 19.8495 6.54347 19.5816 6.27556C19.3137 6.00765 18.9503 5.85714 18.5714 5.85714H1.42857C1.04969 5.85714 0.686328 6.00765 0.418419 6.27556C0.15051 6.54347 0 6.90683 0 7.28571C0 7.6646 0.15051 8.02796 0.418419 8.29587C0.686328 8.56378 1.04969 8.71429 1.42857 8.71429H18.5714C18.9503 8.71429 19.3137 8.56378 19.5816 8.29587C19.8495 8.02796 20 7.6646 20 7.28571ZM78.5714 5.85714H61.4286C61.0497 5.85714 60.6863 6.00765 60.4184 6.27556C60.1505 6.54347 60 6.90683 60 7.28571C60 7.6646 60.1505 8.02796 60.4184 8.29587C60.6863 8.56378 61.0497 8.71429 61.4286 8.71429H78.5714C78.9503 8.71429 79.3137 8.56378 79.5816 8.29587C79.8495 8.02796 80 7.6646 80 7.28571C80 6.90683 79.8495 6.54347 79.5816 6.27556C79.3137 6.00765 78.9503 5.85714 78.5714 5.85714Z" fill="#0E313A"/>
<path d="M39.9999 27.2857C43.1558 27.2857 45.7142 24.7274 45.7142 21.5715C45.7142 18.4156 43.1558 15.8572 39.9999 15.8572C36.844 15.8572 34.2856 18.4156 34.2856 21.5715C34.2856 24.7274 36.844 27.2857 39.9999 27.2857Z" fill="#0E313A"/>
</svg>
