<svg width="80" height="70" viewBox="0 0 80 70" fill="none" xmlns="http://www.w3.org/2000/svg">
<path d="M79.1185 21.4186L79.1194 21.4191C79.2814 21.5061 79.4164 21.6365 79.5098 21.7956C79.6032 21.9545 79.6516 22.1361 79.65 22.3207V22.3201H79.5L79.65 22.3216L79.1185 21.4186ZM79.1185 21.4186L40.4672 0.966689C40.4671 0.966635 40.467 0.966576 40.4669 0.966522C40.3231 0.890021 40.1629 0.85 40.0002 0.85C39.8374 0.85 39.6772 0.890043 39.5333 0.966572C39.5333 0.966611 39.5332 0.96665 39.5331 0.966689L0.89057 21.4184L79.1185 21.4186ZM0.350002 29.1691L0.350002 29.1691L0.350002 22.3203V22.3201H0.5C0.4997 22.1615 0.54249 22.0059 0.623687 21.8703C0.704884 21.7346 0.821356 21.6243 0.960351 21.5512L0.350002 29.1691ZM0.350002 29.1691C0.350125 29.4373 0.455351 29.6949 0.643163 29.8852C0.831037 30.0755 1.08623 30.1828 1.35276 30.1829H1.35283M0.350002 29.1691L1.35283 30.1829M1.35283 30.1829H7.50417H1.35283ZM72.4962 30.1829V30.0329H72.3462V30.1829H72.4962ZM60.0936 30.0329V30.1829H59.9436V30.0329H60.0936ZM20.0651 30.1829V30.0329H19.9151V30.1829H20.0651ZM18.0601 66.9265H9.50904V30.1829H18.0599L18.0601 66.9265ZM70.4995 66.9265H61.9486V30.1829H70.4995V66.9265ZM77.6536 28.1552H2.35553V22.9029L40.0043 3.00493L77.6537 22.903L77.6536 28.1552Z" fill="white" stroke="white" stroke-width="0.3"/>
<path d="M54.9448 52.2777H54.9447H48.4431V38.3123V38.3123C48.443 38.0571 48.3416 37.8124 48.1611 37.632C47.9807 37.4515 47.736 37.3501 47.4809 37.35H47.4808L32.5531 37.35L32.553 37.35C32.2979 37.3501 32.0532 37.4515 31.8727 37.632C31.6923 37.8124 31.5909 38.0571 31.5908 38.3123V38.3123V52.2777H25.0972H25.0972C24.842 52.2778 24.5974 52.3792 24.417 52.5597C24.2367 52.7402 24.1354 52.9849 24.1354 53.24C24.1354 53.24 24.1354 53.24 24.1354 53.24V68.1677C24.1354 68.4228 24.2367 68.6675 24.417 68.848C24.5974 69.0284 24.842 69.1299 25.0972 69.13H25.0972H54.9447H54.9448C55.2 69.1298 55.4446 69.0284 55.625 68.848C55.8054 68.6675 55.9068 68.4229 55.9069 68.1677V68.1677V53.24V53.2399C55.9068 52.9848 55.8054 52.7401 55.625 52.5597C55.4446 52.3793 55.2 52.2778 54.9448 52.2777ZM46.5186 39.2745V52.2777H33.5154V39.2745H37.4952V42.568V42.5681C37.4954 42.8233 37.5968 43.0679 37.7773 43.2483C37.9577 43.4287 38.2023 43.5301 38.4575 43.5302H38.4576H41.5765H41.5765C41.8317 43.5301 42.0763 43.4286 42.2567 43.2482C42.4371 43.0679 42.5385 42.8232 42.5387 42.5681V42.568V39.2745H46.5186ZM35.0828 57.4957V54.2023H39.0552V67.1975H26.0594V54.2023H30.0397V57.4957V57.4958C30.0399 57.7509 30.1413 57.9956 30.3217 58.176C30.5021 58.3565 30.7468 58.4579 31.002 58.458H31.0021H34.1209C34.6521 58.458 35.0828 58.0268 35.0828 57.4957ZM50.0026 57.4957V54.2023H53.9829V67.1975H40.9793V54.2023H44.9596V57.4957C44.9595 57.7508 45.0608 57.9955 45.2412 58.176C45.4215 58.3564 45.6662 58.4579 45.9213 58.458H45.9214H49.0403H49.0404C49.2955 58.4579 49.5402 58.3565 49.7206 58.176C49.9011 57.9956 50.0025 57.7509 50.0026 57.4958V57.4957ZM48.078 54.2023V56.5339H46.8836V54.2023H48.078ZM39.4198 39.2745H40.6141V41.6057H39.4198V39.2745ZM33.1503 54.2023V56.5339H31.9559V54.2023H33.1503Z" fill="#FF5C01" stroke="#FF5C01" stroke-width="0.3"/>
</svg>
