<svg width="38" height="45" viewBox="0 0 38 45" fill="none" xmlns="http://www.w3.org/2000/svg">
<path fill-rule="evenodd" clip-rule="evenodd" d="M34.3308 36.0471V20.5983C34.3308 12.0716 27.4086 5.14941 18.8819 5.14941C10.3553 5.14941 3.43308 12.0716 3.43308 20.5983V36.0471H1.71654C0.769009 36.0471 0 36.8161 0 37.7636C0 38.7112 0.769009 39.4802 1.71654 39.4802H36.0473C36.9948 39.4802 37.7638 38.7112 37.7638 37.7636C37.7638 36.8161 36.9948 36.0471 36.0473 36.0471H34.3308Z" fill="white"/>
<path fill-rule="evenodd" clip-rule="evenodd" d="M14.5911 44.6294H23.1733C24.1208 44.6294 24.8898 43.8604 24.8898 42.9128C24.8903 41.9653 24.1208 41.1963 23.1738 41.1963H14.5906C13.6436 41.1963 12.874 41.9653 12.874 42.9128C12.8746 43.8604 13.6436 44.6294 14.5911 44.6294Z" fill="white"/>
<path fill-rule="evenodd" clip-rule="evenodd" d="M25.7482 6.86615C25.7482 3.07659 22.6716 0 18.882 0C15.0925 0 12.0159 3.07659 12.0159 6.86615C12.0159 7.81368 12.7849 8.58269 13.7324 8.58269C14.6799 8.58269 15.4489 7.81368 15.4489 6.86615C15.4489 4.97164 16.9875 3.43308 18.882 3.43308C20.7765 3.43308 22.3151 4.97164 22.3151 6.86615C22.3151 7.81368 23.0841 8.58269 24.0316 8.58269C24.9792 8.58269 25.7482 7.81368 25.7482 6.86615Z" fill="white"/>
</svg>
