<svg width="60" height="56" viewBox="0 0 60 56" fill="none" xmlns="http://www.w3.org/2000/svg">
<path d="M39.0825 41.293H23.3325C23.0541 41.293 22.787 41.4036 22.5901 41.6005C22.3932 41.7974 22.2825 42.0645 22.2825 42.343V54.943C22.2825 55.2214 22.3932 55.4885 22.5901 55.6854C22.787 55.8823 23.0541 55.993 23.3325 55.993H39.0825C39.361 55.993 39.6281 55.8823 39.825 55.6854C40.0219 55.4885 40.1325 55.2214 40.1325 54.943V42.343C40.1325 42.0645 40.0219 41.7974 39.825 41.6005C39.6281 41.4036 39.361 41.293 39.0825 41.293ZM38.0325 53.893H24.3825V43.393H30.1575V44.443C30.1575 44.7214 30.2682 44.9885 30.4651 45.1854C30.662 45.3823 30.9291 45.493 31.2075 45.493C31.486 45.493 31.7531 45.3823 31.95 45.1854C32.1469 44.9885 32.2575 44.7214 32.2575 44.443V43.393H38.0325V53.893ZM57.9825 41.293H42.2325C41.9541 41.293 41.687 41.4036 41.4901 41.6005C41.2932 41.7974 41.1825 42.0645 41.1825 42.343V54.943C41.1825 55.2214 41.2932 55.4885 41.4901 55.6854C41.687 55.8823 41.9541 55.993 42.2325 55.993H57.9825C58.261 55.993 58.5281 55.8823 58.725 55.6854C58.9219 55.4885 59.0325 55.2214 59.0325 54.943V42.343C59.0325 42.0645 58.9219 41.7974 58.725 41.6005C58.5281 41.4036 58.261 41.293 57.9825 41.293ZM56.9325 53.893H43.2825V43.393H49.0575V44.443C49.0575 44.7214 49.1682 44.9885 49.3651 45.1854C49.562 45.3823 49.8291 45.493 50.1075 45.493C50.386 45.493 50.6531 45.3823 50.85 45.1854C51.0469 44.9885 51.1575 44.7214 51.1575 44.443V43.393H56.9325V53.893ZM57.9825 25.543H42.2325C41.9541 25.543 41.687 25.6536 41.4901 25.8505C41.2932 26.0474 41.1825 26.3145 41.1825 26.593V39.193C41.1825 39.4714 41.2932 39.7385 41.4901 39.9354C41.687 40.1323 41.9541 40.243 42.2325 40.243H57.9825C58.261 40.243 58.5281 40.1323 58.725 39.9354C58.9219 39.7385 59.0325 39.4714 59.0325 39.193V26.593C59.0325 26.3145 58.9219 26.0474 58.725 25.8505C58.5281 25.6536 58.261 25.543 57.9825 25.543ZM56.9325 38.143H43.2825V27.643H49.0575V28.693C49.0575 28.9714 49.1682 29.2385 49.3651 29.4354C49.562 29.6323 49.8291 29.743 50.1075 29.743C50.386 29.743 50.6531 29.6323 50.85 29.4354C51.0469 29.2385 51.1575 28.9714 51.1575 28.693V27.643H56.9325V38.143Z" fill="white"/>
<path d="M42.096 23.4114C42.2301 23.3761 42.3558 23.3146 42.466 23.2304C42.5761 23.1462 42.6685 23.0411 42.7379 22.921C42.8072 22.801 42.852 22.6683 42.8698 22.5309C42.8876 22.3934 42.878 22.2537 42.8415 22.1199L41.9175 18.6654L45.0675 16.0089L45.1515 15.9354C47.2499 13.7265 48.8189 11.0696 49.74 8.16544C50.4667 5.86618 50.7691 3.45393 50.6325 1.04644C50.6181 0.792934 50.5122 0.553249 50.3346 0.371778C50.157 0.190307 49.9197 0.0793465 49.6665 0.0594444C47.293 -0.113089 44.9081 0.153882 42.6315 0.846944C39.6397 1.77926 36.9144 3.41375 34.683 5.61395L32.016 8.76395L25.8 7.07344C25.9956 6.87671 26.1054 6.61059 26.1054 6.33319C26.1054 6.0558 25.9956 5.78968 25.8 5.59294C25.7024 5.49453 25.5863 5.41642 25.4583 5.36311C25.3304 5.3098 25.1931 5.28236 25.0545 5.28236C24.9159 5.28236 24.7787 5.3098 24.6507 5.36311C24.5228 5.41642 24.4066 5.49453 24.309 5.59294L23.574 6.32794C23.532 6.38144 23.4934 6.43756 23.4585 6.49595L18.7335 5.22545L19.1115 4.84744C19.2099 4.74983 19.288 4.6337 19.3414 4.50575C19.3947 4.3778 19.4221 4.24056 19.4221 4.10194C19.4221 3.96333 19.3947 3.82609 19.3414 3.69814C19.288 3.57019 19.2099 3.45406 19.1115 3.35644C18.9148 3.16088 18.6487 3.05111 18.3713 3.05111C18.0939 3.05111 17.8277 3.16088 17.631 3.35644L16.35 4.57444L7.30952 2.15944C7.08617 2.09775 6.84869 2.11167 6.63408 2.19904C6.41947 2.2864 6.23978 2.4423 6.12302 2.64244L3.67652 6.99995C3.60563 7.11879 3.55894 7.25047 3.53912 7.38742C3.5193 7.52437 3.52674 7.66388 3.56102 7.79795C3.5981 7.93291 3.66179 8.0591 3.74834 8.16909C3.83489 8.27909 3.94256 8.37066 4.06502 8.43845L23.049 19.2534L12.549 31.5384L3.58202 30.5829C3.39367 30.5631 3.20346 30.5946 3.03155 30.6741C2.85964 30.7536 2.71244 30.8781 2.60552 31.0344L1.14602 33.1554C1.05988 33.2834 1.00299 33.4288 0.979394 33.5812C0.955802 33.7337 0.966088 33.8894 1.00952 34.0374C1.05098 34.1848 1.12416 34.3213 1.22391 34.4373C1.32367 34.5534 1.4476 34.6463 1.58702 34.7094L9.46202 38.2269L12.4335 41.1984L15.951 49.0734C16.0142 49.2129 16.107 49.3368 16.2231 49.4366C16.3392 49.5363 16.4757 49.6095 16.623 49.6509C16.7169 49.6662 16.8126 49.6662 16.9065 49.6509C17.119 49.6498 17.3266 49.5878 17.505 49.4724L19.6785 47.9919C19.8365 47.8842 19.9621 47.7353 20.0417 47.5613C20.1213 47.3874 20.1518 47.195 20.13 47.0049L19.1745 38.0589L29.286 29.4174L31.449 27.5694L37.119 37.5234C37.1876 37.6438 37.2793 37.7493 37.3889 37.834C37.4985 37.9188 37.6237 37.981 37.7574 38.0171C37.8911 38.0532 38.0307 38.0625 38.168 38.0444C38.3053 38.0264 38.4377 37.9814 38.5575 37.9119C38.7977 37.7734 38.9733 37.5456 39.0461 37.278C39.1189 37.0105 39.0829 36.725 38.946 36.4839L33.0765 26.2149L40.143 20.1774L40.815 22.6659C40.8865 22.9344 41.0614 23.1636 41.3015 23.3033C41.5416 23.443 41.8273 23.4819 42.096 23.4114ZM6.01802 7.08394L7.58252 4.39595L30.4725 10.5069L24.435 17.5839L6.01802 7.08394ZM40.0485 17.4999L31.05 25.1754L27.9 27.8529L17.4 36.8619C17.2707 36.9737 17.1705 37.1153 17.1083 37.2745C17.0461 37.4336 17.0237 37.6056 17.043 37.7754L17.988 46.6479L17.3685 47.0679L14.25 40.1589C14.1965 40.0413 14.1218 39.9345 14.0295 39.8439L10.785 36.5994C10.6967 36.512 10.5936 36.4409 10.4805 36.3894L3.59252 33.3024L4.01252 32.6829L12.8955 33.6279C13.0653 33.6473 13.2373 33.6249 13.3965 33.5627C13.5557 33.5004 13.6973 33.4003 13.809 33.2709L33.15 10.5804L36.153 7.07344C38.1255 5.13253 40.5342 3.69235 43.1775 2.87344C44.9004 2.3394 46.6976 2.08418 48.501 2.11744C48.5096 3.95915 48.2297 5.79084 47.6715 7.54595C46.8692 10.1196 45.4943 12.4781 43.65 14.4444L40.0485 17.4999Z" fill="white"/>
<path d="M38.4735 13.6779L27.333 23.3274C27.1325 23.5125 27.0119 23.7684 26.9968 24.0409C26.9817 24.3133 27.0733 24.5809 27.2521 24.7871C27.4309 24.9932 27.6829 25.1216 27.9548 25.1451C28.2266 25.1686 28.497 25.0853 28.7085 24.9129L39.849 15.2634C40.0495 15.0784 40.1701 14.8225 40.1852 14.55C40.2003 14.2776 40.1088 14.0099 39.9299 13.8038C39.7511 13.5977 39.4991 13.4693 39.2272 13.4458C38.9554 13.4223 38.685 13.5056 38.4735 13.6779ZM16.1715 33.0084L14.0715 35.1084C13.8759 35.3052 13.7662 35.5713 13.7662 35.8487C13.7662 36.1261 13.8759 36.3922 14.0715 36.5889C14.2654 36.7868 14.5295 36.9 14.8065 36.9039C14.9454 36.9034 15.0829 36.8752 15.2108 36.8212C15.3388 36.7671 15.4548 36.6882 15.552 36.5889L17.652 34.4889C17.824 34.2881 17.9139 34.0297 17.9037 33.7654C17.8935 33.5012 17.7839 33.2505 17.5969 33.0635C17.4099 32.8765 17.1593 32.767 16.895 32.7567C16.6308 32.7465 16.3724 32.8364 16.1715 33.0084Z" fill="white"/>
</svg>
