<svg width="60" height="50" viewBox="0 0 60 50" fill="none" xmlns="http://www.w3.org/2000/svg">
<path d="M35.4211 25.3443V0.76543H60V26.6232C60 39.1045 50.1787 49.335 37.8764 50V44.322C42.3449 43.991 46.523 41.9829 49.5731 38.7004C52.6231 35.418 54.3194 31.1039 54.322 26.6232C54.322 25.907 53.7594 25.3443 53.0432 25.3443H35.4211ZM3.8147e-06 25.3443V0.76543H24.5789V26.6232C24.5789 39.1045 14.7576 49.335 2.42976 50V44.322C11.6373 43.6571 18.901 35.9841 18.901 26.6232C18.901 25.907 18.3383 25.3443 17.6221 25.3443H3.8147e-06Z" fill="#FF5C01"/>
</svg>
