<svg width="80" height="80" viewBox="0 0 80 80" fill="none" xmlns="http://www.w3.org/2000/svg">
<path d="M47.9664 38.8417H46.8838C45.9892 38.8417 45.2615 38.114 45.2615 37.2194C45.2615 36.9774 45.1654 36.7453 44.9943 36.5742C44.8232 36.4031 44.5911 36.307 44.3491 36.307C44.1071 36.307 43.875 36.4031 43.7039 36.5742C43.5328 36.7453 43.4367 36.9774 43.4367 37.2194C43.4367 39.1203 44.9829 40.6665 46.8838 40.6665H47.9664C50.0857 40.6665 51.8096 38.9426 51.8096 36.8234C51.8096 34.8975 50.3858 33.2978 48.5356 33.0221V29.9246L51.141 27.1228C51.5714 26.661 51.8103 26.053 51.8096 25.4218V22.7361C51.8096 21.6895 50.9581 20.8378 49.9113 20.8378H48.5356V14.3638L66.1962 21.5429V35.0272H64.8047C63.0404 35.0272 61.6053 36.4627 61.6053 38.227V39.4739C61.6053 39.5938 61.6288 39.7124 61.6747 39.8231C61.7205 39.9338 61.7877 40.0344 61.8725 40.1192C61.9572 40.2039 62.0578 40.2711 62.1685 40.3169C62.2792 40.3628 62.3979 40.3864 62.5177 40.3864C62.6375 40.3864 62.7562 40.3628 62.8669 40.3169C62.9776 40.2711 63.0782 40.2039 63.1629 40.1192C63.2477 40.0344 63.3149 39.9338 63.3607 39.8231C63.4066 39.7124 63.4301 39.5938 63.4301 39.4739V38.227C63.4301 37.469 64.0467 36.8521 64.8047 36.8521C71.2083 36.8527 73.2908 36.8521 73.7771 36.8521C74.5382 36.8521 75.1579 37.469 75.1579 38.227V39.4739C75.1579 39.5938 75.1815 39.7124 75.2273 39.8231C75.2731 39.9338 75.3404 40.0344 75.4251 40.1192C75.5098 40.2039 75.6104 40.2711 75.7211 40.3169C75.8318 40.3628 75.9505 40.3864 76.0703 40.3864C76.1901 40.3864 76.3088 40.3628 76.4195 40.3169C76.5302 40.2711 76.6308 40.2039 76.7155 40.1192C76.8003 40.0344 76.8675 39.9338 76.9133 39.8231C76.9592 39.7124 76.9827 39.5938 76.9827 39.4739V38.227C76.9827 36.4627 75.5445 35.0272 73.7771 35.0272H72.3867V11.0952C72.3867 9.38864 70.998 8 69.2915 8C67.5849 8 66.1962 9.38864 66.1962 11.0952V12.0215L47.7852 8.69535C47.2319 8.59399 46.7106 9.02 46.7106 9.59327V20.838H45.3348C44.2882 20.838 43.4365 21.6895 43.4365 22.7363V25.4219C43.4365 26.0551 43.6742 26.6596 44.1054 27.1232L46.7106 29.9247V33.8925C46.7105 34.0123 46.7341 34.1309 46.78 34.2417C46.8258 34.3524 46.893 34.453 46.9778 34.5377C47.0625 34.6224 47.1631 34.6896 47.2738 34.7355C47.3845 34.7813 47.5032 34.8049 47.623 34.8049H47.9663C49.0792 34.8049 49.9844 35.7105 49.9844 36.8234C49.9844 37.9363 49.0794 38.8417 47.9664 38.8417ZM68.0211 11.0952C68.0211 10.3949 68.591 9.82484 69.2915 9.82484C69.9917 9.82484 70.5618 10.3948 70.5618 11.0952V35.0274H68.0211V11.0952ZM48.5356 10.6853L66.1962 13.8758V19.5729L48.5356 12.3941V10.6853ZM45.2615 25.4219V22.7363C45.2615 22.696 45.2945 22.663 45.3348 22.663H49.9113C49.9516 22.663 49.9846 22.696 49.9846 22.7363V25.4219C49.9847 25.5921 49.9203 25.7559 49.8044 25.8804L47.623 28.226L45.4416 25.8804C45.3258 25.7559 45.2614 25.592 45.2615 25.4219Z" fill="#104B59"/>
<path d="M79.3963 46.3299C79.1609 45.9845 78.8447 45.7018 78.4751 45.5066C78.1055 45.3113 77.6938 45.2093 77.2758 45.2095H60.7585C60.1054 45.2095 59.5007 45.505 59.0908 46.0318L55.0929 51.3371L2.1407 51.0074H2.12763C1.82686 51.0063 1.52989 51.0746 1.25985 51.207C0.989799 51.3395 0.753963 51.5324 0.570699 51.7709C0.384257 52.0099 0.255918 52.2889 0.195814 52.586C0.135711 52.883 0.145489 53.19 0.224377 53.4826L4.34008 68.9855C4.82123 70.7983 6.46726 72.0643 8.34294 72.0643H67.6802C69.3957 72.0643 70.9093 71.0325 71.5358 69.4354L79.6652 48.7129C79.818 48.3238 79.8734 47.9033 79.8265 47.488C79.7796 47.0727 79.632 46.6751 79.3963 46.3299ZM2.01352 52.8886C2.02664 52.8707 2.04391 52.8563 2.06384 52.8465C2.08377 52.8367 2.10577 52.8319 2.12795 52.8325H2.12907L55.5399 53.1652H55.5455C55.6868 53.1652 55.8262 53.1324 55.9526 53.0693C56.079 53.0063 56.1891 52.9148 56.2742 52.8019L60.5394 47.1417C60.5654 47.1085 60.5987 47.0815 60.6366 47.063C60.6746 47.0444 60.7163 47.0346 60.7585 47.0345H77.276C77.5252 47.0345 77.7485 47.1524 77.8888 47.3582C78.029 47.5639 78.0572 47.8146 77.9662 48.0467L73.4444 59.573H3.72919L1.98802 53.0149C1.98181 52.9933 1.98089 52.9706 1.98533 52.9486C1.98977 52.9267 1.99944 52.9061 2.01352 52.8886ZM69.8368 68.7692C69.4864 69.6627 68.6399 70.2398 67.6802 70.2398H8.34294C7.83216 70.2394 7.33578 70.0704 6.93088 69.759C6.52599 69.4477 6.23522 69.0113 6.10372 68.5178L4.21353 61.398H72.7285L69.8368 68.7692Z" fill="#104B59"/>
<path d="M3.38068 47.2016C3.50051 47.2017 3.61917 47.1781 3.72988 47.1322C3.84059 47.0864 3.94118 47.0192 4.02591 46.9344C4.11064 46.8497 4.17785 46.7491 4.22369 46.6384C4.26954 46.5277 4.29313 46.409 4.29311 46.2892V38.9667L13.7095 38.9682V46.3624C13.7094 46.4822 13.733 46.6009 13.7789 46.7116C13.8247 46.8223 13.8919 46.9229 13.9767 47.0076C14.0614 47.0923 14.162 47.1595 14.2727 47.2054C14.3834 47.2512 14.5021 47.2748 14.6219 47.2748C14.7417 47.2748 14.8604 47.2512 14.9711 47.2054C15.0818 47.1595 15.1824 47.0923 15.2671 47.0076C15.3518 46.9229 15.419 46.8223 15.4649 46.7116C15.5107 46.6009 15.5343 46.4822 15.5343 46.3624V38.9682H24.9507V46.4291C24.9507 46.6711 25.0468 46.9032 25.2179 47.0743C25.389 47.2454 25.6211 47.3416 25.8631 47.3416C26.1051 47.3416 26.3371 47.2454 26.5083 47.0743C26.6794 46.9032 26.7755 46.6711 26.7755 46.4291V38.9682L36.1919 38.9667V46.5023C36.1918 46.6221 36.2154 46.7408 36.2613 46.8515C36.3071 46.9622 36.3743 47.0628 36.459 47.1475C36.5438 47.2323 36.6444 47.2995 36.7551 47.3453C36.8658 47.3912 36.9844 47.4147 37.1043 47.4147C37.2241 47.4147 37.3428 47.3912 37.4535 47.3453C37.5642 47.2995 37.6648 47.2323 37.7495 47.1475C37.8342 47.0628 37.9014 46.9622 37.9473 46.8515C37.9931 46.7408 38.0167 46.6221 38.0167 46.5023V38.0543C38.0167 37.9345 37.9931 37.8158 37.9473 37.7051C37.9014 37.5944 37.8342 37.4938 37.7495 37.4091C37.6648 37.3243 37.5642 37.2571 37.4535 37.2113C37.3428 37.1654 37.2241 37.1419 37.1043 37.1419H32.3951V28.0989C32.3951 27.9791 32.3715 27.8605 32.3257 27.7498C32.2798 27.639 32.2126 27.5385 32.1279 27.4537C32.0431 27.369 31.9425 27.3018 31.8318 27.2559C31.7211 27.2101 31.6025 27.1865 31.4826 27.1865H8.99865C8.87883 27.1865 8.76017 27.2101 8.64946 27.2559C8.53875 27.3018 8.43816 27.369 8.35343 27.4537C8.2687 27.5385 8.20149 27.639 8.15564 27.7498C8.1098 27.8605 8.08621 27.9791 8.08623 28.0989V37.1419H3.38068C3.26086 37.1419 3.1422 37.1654 3.03149 37.2113C2.92078 37.2571 2.82019 37.3243 2.73546 37.4091C2.65073 37.4938 2.58352 37.5944 2.53767 37.7051C2.49183 37.8158 2.46824 37.9345 2.46826 38.0543V46.2892C2.46824 46.409 2.49183 46.5277 2.53767 46.6384C2.58352 46.7491 2.65073 46.8497 2.73546 46.9344C2.82019 47.0192 2.92078 47.0864 3.03149 47.1322C3.1422 47.1781 3.26086 47.2017 3.38068 47.2016ZM30.5702 37.1419H21.1532V29.0114H30.5702V37.1419ZM9.91123 29.0114H19.3285V37.1419H9.91123V29.0114Z" fill="#FF7D44"/>
<path d="M61.5169 51.907H63.1013C63.2211 51.907 63.3397 51.8834 63.4504 51.8375C63.5611 51.7917 63.6617 51.7245 63.7464 51.6398C63.8312 51.555 63.8984 51.4544 63.9442 51.3437C63.9901 51.233 64.0137 51.1144 64.0137 50.9946C64.0137 50.8748 63.9901 50.7561 63.9442 50.6454C63.8984 50.5347 63.8312 50.4341 63.7464 50.3494C63.6617 50.2647 63.5611 50.1975 63.4504 50.1516C63.3397 50.1058 63.2211 50.0822 63.1013 50.0822H61.5169C61.0128 50.0822 60.6045 50.4906 60.6045 50.9946C60.6045 51.4985 61.0128 51.907 61.5169 51.907ZM66.9033 51.907H68.4877C68.6075 51.907 68.7261 51.8834 68.8368 51.8375C68.9475 51.7917 69.0481 51.7245 69.1328 51.6398C69.2176 51.555 69.2848 51.4544 69.3306 51.3437C69.3765 51.233 69.4001 51.1144 69.4001 50.9946C69.4001 50.8748 69.3765 50.7561 69.3306 50.6454C69.2848 50.5347 69.2176 50.4341 69.1328 50.3494C69.0481 50.2647 68.9475 50.1975 68.8368 50.1516C68.7261 50.1058 68.6075 50.0822 68.4877 50.0822H66.9033C66.3992 50.0822 65.9909 50.4906 65.9909 50.9946C65.9909 51.4985 66.3992 51.907 66.9033 51.907ZM72.2894 51.907H73.8737C73.9936 51.907 74.1122 51.8834 74.2229 51.8375C74.3336 51.7917 74.4342 51.7245 74.5189 51.6398C74.6036 51.555 74.6709 51.4544 74.7167 51.3437C74.7626 51.233 74.7862 51.1144 74.7862 50.9946C74.7862 50.8748 74.7626 50.7561 74.7167 50.6454C74.6709 50.5347 74.6036 50.4341 74.5189 50.3494C74.4342 50.2647 74.3336 50.1975 74.2229 50.1516C74.1122 50.1058 73.9936 50.0822 73.8737 50.0822H72.2894C72.1696 50.0822 72.0509 50.1058 71.9402 50.1516C71.8295 50.1975 71.7289 50.2647 71.6442 50.3494C71.5595 50.4341 71.4923 50.5347 71.4464 50.6454C71.4006 50.7561 71.377 50.8748 71.377 50.9946C71.377 51.1144 71.4006 51.233 71.4464 51.3437C71.4923 51.4544 71.5595 51.555 71.6442 51.6398C71.7289 51.7245 71.8295 51.7917 71.9402 51.8375C72.0509 51.8834 72.1696 51.907 72.2894 51.907Z" fill="#FF7D44"/>
</svg>
