<svg width="80" height="65" viewBox="0 0 80 65" fill="none" xmlns="http://www.w3.org/2000/svg">
<path d="M47.9667 30.8417H46.884C45.9895 30.8417 45.2618 30.114 45.2618 29.2194C45.2618 28.9774 45.1656 28.7453 44.9945 28.5742C44.8234 28.4031 44.5913 28.307 44.3493 28.307C44.1074 28.307 43.8753 28.4031 43.7042 28.5742C43.5331 28.7453 43.4369 28.9774 43.4369 29.2194C43.4369 31.1203 44.9832 32.6665 46.884 32.6665H47.9667C50.0859 32.6665 51.8099 30.9426 51.8099 28.8234C51.8099 26.8975 50.386 25.2978 48.5358 25.0221V21.9246L51.1413 19.1228C51.5716 18.661 51.8106 18.053 51.8099 17.4218V14.7361C51.8099 13.6895 50.9583 12.8378 49.9115 12.8378H48.5358V6.36384L66.1965 13.5429V27.0272H64.805C63.0407 27.0272 61.6055 28.4627 61.6055 30.227V31.4739C61.6055 31.5938 61.6291 31.7124 61.6749 31.8231C61.7208 31.9338 61.788 32.0344 61.8727 32.1192C61.9574 32.2039 62.058 32.2711 62.1688 32.3169C62.2795 32.3628 62.3981 32.3864 62.5179 32.3864C62.6378 32.3864 62.7564 32.3628 62.8671 32.3169C62.9778 32.2711 63.0784 32.2039 63.1632 32.1192C63.2479 32.0344 63.3151 31.9338 63.361 31.8231C63.4068 31.7124 63.4304 31.5938 63.4304 31.4739V30.227C63.4304 29.469 64.047 28.8521 64.805 28.8521C71.2085 28.8527 73.2911 28.8521 73.7773 28.8521C74.5385 28.8521 75.1581 29.469 75.1581 30.227V31.4739C75.1581 31.5938 75.1817 31.7124 75.2275 31.8231C75.2734 31.9338 75.3406 32.0344 75.4253 32.1192C75.5101 32.2039 75.6107 32.2711 75.7214 32.3169C75.8321 32.3628 75.9507 32.3864 76.0706 32.3864C76.1904 32.3864 76.309 32.3628 76.4198 32.3169C76.5305 32.2711 76.631 32.2039 76.7158 32.1192C76.8005 32.0344 76.8677 31.9338 76.9136 31.8231C76.9594 31.7124 76.983 31.5938 76.983 31.4739V30.227C76.983 28.4627 75.5448 27.0272 73.7773 27.0272H72.3869V3.09522C72.3869 1.38864 70.9983 0 69.2917 0C67.5851 0 66.1965 1.38864 66.1965 3.09522V4.02151L47.7855 0.695354C47.2321 0.593992 46.7108 1.02 46.7108 1.59327V12.838H45.3351C44.2885 12.838 43.4368 13.6895 43.4368 14.7363V17.4219C43.4368 18.0551 43.6744 18.6596 44.1057 19.1232L46.7108 21.9247V25.8925C46.7108 26.0123 46.7344 26.1309 46.7802 26.2417C46.8261 26.3524 46.8933 26.453 46.978 26.5377C47.0627 26.6224 47.1633 26.6896 47.274 26.7355C47.3847 26.7813 47.5034 26.8049 47.6232 26.8049H47.9665C49.0794 26.8049 49.9847 27.7105 49.9847 28.8234C49.9847 29.9363 49.0796 30.8417 47.9667 30.8417ZM68.0213 3.09522C68.0213 2.39493 68.5912 1.82484 69.2917 1.82484C69.992 1.82484 70.5621 2.39477 70.5621 3.09522V27.0274H68.0213V3.09522ZM48.5358 2.68531L66.1965 5.87584V11.5729L48.5358 4.39413V2.68531ZM45.2618 17.4219V14.7363C45.2618 14.696 45.2948 14.663 45.3351 14.663H49.9115C49.9519 14.663 49.9848 14.696 49.9848 14.7363V17.4219C49.985 17.5921 49.9206 17.7559 49.8046 17.8804L47.6232 20.226L45.4419 17.8804C45.326 17.7559 45.2617 17.592 45.2618 17.4219Z" fill="white"/>
<path d="M79.3964 38.3299C79.161 37.9845 78.8448 37.7018 78.4752 37.5066C78.1056 37.3113 77.6939 37.2093 77.2759 37.2095H60.7586C60.1055 37.2095 59.5009 37.505 59.0909 38.0318L55.093 43.3371L2.14082 43.0074H2.12776C1.82698 43.0063 1.53001 43.0746 1.25997 43.207C0.989921 43.3395 0.754085 43.5324 0.570821 43.7709C0.384379 44.0099 0.25604 44.2889 0.195936 44.586C0.135833 44.883 0.145611 45.19 0.224499 45.4826L4.3402 60.9855C4.82135 62.7983 6.46738 64.0643 8.34306 64.0643H67.6803C69.3958 64.0643 70.9094 63.0325 71.5359 61.4354L79.6653 40.7129C79.8181 40.3238 79.8735 39.9033 79.8266 39.488C79.7798 39.0727 79.6321 38.6751 79.3964 38.3299ZM2.01364 44.8886C2.02677 44.8707 2.04403 44.8563 2.06396 44.8465C2.08389 44.8367 2.10589 44.8319 2.12807 44.8325H2.12919L55.5401 45.1652H55.5456C55.6869 45.1652 55.8263 45.1324 55.9527 45.0693C56.0792 45.0063 56.1893 44.9148 56.2743 44.8019L60.5395 39.1417C60.5656 39.1085 60.5988 39.0815 60.6368 39.063C60.6747 39.0444 60.7164 39.0346 60.7586 39.0345H77.2761C77.5254 39.0345 77.7486 39.1524 77.8889 39.3582C78.0292 39.5639 78.0574 39.8146 77.9664 40.0467L73.4446 51.573H3.72932L1.98814 45.0149C1.98194 44.9933 1.98101 44.9706 1.98545 44.9486C1.98989 44.9267 1.99956 44.9061 2.01364 44.8886ZM69.837 60.7692C69.4865 61.6627 68.64 62.2398 67.6803 62.2398H8.34306C7.83228 62.2394 7.3359 62.0704 6.93101 61.759C6.52611 61.4477 6.23534 61.0113 6.10384 60.5178L4.21366 53.398H72.7287L69.837 60.7692Z" fill="white"/>
<path d="M3.38093 39.2016C3.50075 39.2017 3.61941 39.1781 3.73012 39.1322C3.84083 39.0864 3.94142 39.0192 4.02615 38.9344C4.11088 38.8497 4.17809 38.7491 4.22394 38.6384C4.26978 38.5277 4.29337 38.409 4.29335 38.2892V30.9667L13.7097 30.9682V38.3624C13.7097 38.4822 13.7333 38.6009 13.7791 38.7116C13.825 38.8223 13.8922 38.9229 13.9769 39.0076C14.0616 39.0923 14.1622 39.1595 14.2729 39.2054C14.3836 39.2512 14.5023 39.2748 14.6221 39.2748C14.742 39.2748 14.8606 39.2512 14.9713 39.2054C15.082 39.1595 15.1826 39.0923 15.2674 39.0076C15.3521 38.9229 15.4193 38.8223 15.4651 38.7116C15.511 38.6009 15.5346 38.4822 15.5345 38.3624V30.9682H24.9509V38.4291C24.9509 38.6711 25.047 38.9032 25.2181 39.0743C25.3893 39.2454 25.6213 39.3416 25.8633 39.3416C26.1053 39.3416 26.3374 39.2454 26.5085 39.0743C26.6796 38.9032 26.7757 38.6711 26.7757 38.4291V30.9682L36.1921 30.9667V38.5023C36.1921 38.6221 36.2157 38.7408 36.2615 38.8515C36.3074 38.9622 36.3746 39.0628 36.4593 39.1475C36.544 39.2323 36.6446 39.2995 36.7553 39.3453C36.866 39.3912 36.9847 39.4147 37.1045 39.4147C37.2243 39.4147 37.343 39.3912 37.4537 39.3453C37.5644 39.2995 37.665 39.2323 37.7497 39.1475C37.8345 39.0628 37.9017 38.9622 37.9475 38.8515C37.9934 38.7408 38.017 38.6221 38.0169 38.5023V30.0543C38.017 29.9345 37.9934 29.8158 37.9475 29.7051C37.9017 29.5944 37.8345 29.4938 37.7497 29.4091C37.665 29.3243 37.5644 29.2571 37.4537 29.2113C37.343 29.1654 37.2243 29.1419 37.1045 29.1419H32.3953V20.0989C32.3953 19.9791 32.3717 19.8605 32.3259 19.7498C32.28 19.639 32.2128 19.5385 32.1281 19.4537C32.0434 19.369 31.9428 19.3018 31.8321 19.2559C31.7214 19.2101 31.6027 19.1865 31.4829 19.1865H8.9989C8.87907 19.1865 8.76041 19.2101 8.6497 19.2559C8.53899 19.3018 8.4384 19.369 8.35367 19.4537C8.26894 19.5385 8.20173 19.639 8.15589 19.7498C8.11004 19.8605 8.08645 19.9791 8.08647 20.0989V29.1419H3.38093C3.2611 29.1419 3.14244 29.1654 3.03173 29.2113C2.92102 29.2571 2.82043 29.3243 2.7357 29.4091C2.65097 29.4938 2.58376 29.5944 2.53792 29.7051C2.49207 29.8158 2.46848 29.9345 2.46851 30.0543V38.2892C2.46848 38.409 2.49207 38.5277 2.53792 38.6384C2.58376 38.7491 2.65097 38.8497 2.7357 38.9344C2.82043 39.0192 2.92102 39.0864 3.03173 39.1322C3.14244 39.1781 3.2611 39.2017 3.38093 39.2016ZM30.5705 29.1419H21.1535V21.0114H30.5705V29.1419ZM9.91148 21.0114H19.3288V29.1419H9.91148V21.0114Z" fill="#FF5C01"/>
<path d="M61.5173 43.907H63.1016C63.2214 43.907 63.3401 43.8834 63.4508 43.8375C63.5615 43.7917 63.6621 43.7245 63.7468 43.6398C63.8315 43.555 63.8987 43.4544 63.9446 43.3437C63.9904 43.233 64.014 43.1144 64.014 42.9946C64.014 42.8748 63.9904 42.7561 63.9446 42.6454C63.8987 42.5347 63.8315 42.4341 63.7468 42.3494C63.6621 42.2647 63.5615 42.1975 63.4508 42.1516C63.3401 42.1058 63.2214 42.0822 63.1016 42.0822H61.5173C61.0132 42.0822 60.6049 42.4906 60.6049 42.9946C60.6049 43.4985 61.0132 43.907 61.5173 43.907ZM66.9037 43.907H68.488C68.6078 43.907 68.7265 43.8834 68.8372 43.8375C68.9479 43.7917 69.0485 43.7245 69.1332 43.6398C69.2179 43.555 69.2851 43.4544 69.331 43.3437C69.3768 43.233 69.4004 43.1144 69.4004 42.9946C69.4004 42.8748 69.3768 42.7561 69.331 42.6454C69.2851 42.5347 69.2179 42.4341 69.1332 42.3494C69.0485 42.2647 68.9479 42.1975 68.8372 42.1516C68.7265 42.1058 68.6078 42.0822 68.488 42.0822H66.9037C66.3996 42.0822 65.9913 42.4906 65.9913 42.9946C65.9913 43.4985 66.3996 43.907 66.9037 43.907ZM72.2897 43.907H73.8741C73.9939 43.907 74.1126 43.8834 74.2233 43.8375C74.334 43.7917 74.4346 43.7245 74.5193 43.6398C74.604 43.555 74.6712 43.4544 74.7171 43.3437C74.7629 43.233 74.7865 43.1144 74.7865 42.9946C74.7865 42.8748 74.7629 42.7561 74.7171 42.6454C74.6712 42.5347 74.604 42.4341 74.5193 42.3494C74.4346 42.2647 74.334 42.1975 74.2233 42.1516C74.1126 42.1058 73.9939 42.0822 73.8741 42.0822H72.2897C72.1699 42.0822 72.0513 42.1058 71.9406 42.1516C71.8299 42.1975 71.7293 42.2647 71.6446 42.3494C71.5598 42.4341 71.4926 42.5347 71.4468 42.6454C71.4009 42.7561 71.3773 42.8748 71.3773 42.9946C71.3773 43.1144 71.4009 43.233 71.4468 43.3437C71.4926 43.4544 71.5598 43.555 71.6446 43.6398C71.7293 43.7245 71.8299 43.7917 71.9406 43.8375C72.0513 43.8834 72.1699 43.907 72.2897 43.907Z" fill="#FF5C01"/>
</svg>
