<svg width="80" height="57" viewBox="0 0 80 57" fill="none" xmlns="http://www.w3.org/2000/svg">
<path d="M50.1267 29.9371H45.1303C44.8204 29.9371 44.5232 30.0647 44.3041 30.2919C44.085 30.519 43.9619 30.8271 43.9619 31.1484C43.9619 31.4696 44.085 31.7777 44.3041 32.0049C44.5232 32.2321 44.8204 32.3597 45.1303 32.3597H50.1267C50.4366 32.3597 50.7338 32.2321 50.9529 32.0049C51.172 31.7777 51.2951 31.4696 51.2951 31.1484C51.2951 30.8271 51.172 30.519 50.9529 30.2919C50.7338 30.0647 50.4366 29.9371 50.1267 29.9371ZM39.6931 29.9371H37.8705C37.5606 29.9371 37.2634 30.0647 37.0443 30.2919C36.8252 30.519 36.702 30.8271 36.702 31.1484C36.702 31.4696 36.8252 31.7777 37.0443 32.0049C37.2634 32.2321 37.5606 32.3597 37.8705 32.3597H39.6931C40.003 32.3597 40.3002 32.2321 40.5193 32.0049C40.7385 31.7777 40.8616 31.4696 40.8616 31.1484C40.8616 30.8271 40.7385 30.519 40.5193 30.2919C40.3002 30.0647 40.003 29.9371 39.6931 29.9371ZM50.1267 36.9359H37.8705C37.5606 36.9359 37.2634 37.0635 37.0443 37.2907C36.8252 37.5179 36.702 37.826 36.702 38.1472C36.702 38.4685 36.8252 38.7766 37.0443 39.0037C37.2634 39.2309 37.5606 39.3585 37.8705 39.3585H50.1267C50.4366 39.3585 50.7338 39.2309 50.9529 39.0037C51.172 38.7766 51.2951 38.4685 51.2951 38.1472C51.2951 37.826 51.172 37.5179 50.9529 37.2907C50.7338 37.0635 50.4366 36.9359 50.1267 36.9359ZM67.0472 44.4685C64.9533 44.4685 63.2499 46.2344 63.2499 48.4051C63.2499 50.5758 64.9533 52.3417 67.0472 52.3417C69.141 52.3417 70.8444 50.5758 70.8444 48.4051C70.8444 46.2344 69.141 44.4685 67.0472 44.4685ZM67.0472 49.919C66.2419 49.919 65.5869 49.2398 65.5869 48.4051C65.5869 47.5704 66.2419 46.8912 67.0472 46.8912C67.8524 46.8912 68.5076 47.5704 68.5076 48.4051C68.5076 49.2398 67.8524 49.919 67.0472 49.919ZM14.7767 44.4685C12.6829 44.4685 10.9795 46.2344 10.9795 48.4051C10.9795 50.5758 12.6829 52.3417 14.7767 52.3417C16.8706 52.3417 18.574 50.5758 18.574 48.4051C18.574 46.2344 16.8706 44.4685 14.7767 44.4685ZM14.7767 49.919C13.9715 49.919 13.3164 49.2398 13.3164 48.4051C13.3164 47.5704 13.9714 46.8912 14.7767 46.8912C15.582 46.8912 16.237 47.5704 16.237 48.4051C16.237 49.2398 15.582 49.919 14.7767 49.919ZM75.0575 27.4735L69.5561 21.7003C69.3506 21.4857 69.1062 21.3152 68.837 21.1986C68.5678 21.082 68.2791 21.0216 67.9874 21.0208H61.6302C60.4141 21.0208 59.4249 22.0462 59.4249 23.3071V33.1692C59.4249 34.4298 60.4141 35.4554 61.6302 35.4554H73.4885C74.7044 35.4554 75.6938 34.4299 75.6938 33.1692V29.0802C75.6938 28.4752 75.4678 27.9047 75.0575 27.4735ZM73.3568 33.0325H61.762V23.4435H67.9324L73.3568 29.1363V33.0325Z" fill="#FF5C01"/>
<path d="M79.9995 46.8765V27.5411C80.0019 26.5373 79.6202 25.5735 78.938 24.861L71.788 17.3573C71.4451 16.9993 71.0374 16.7149 70.5883 16.5204C70.1392 16.3259 69.6575 16.2251 69.1708 16.2238H57.4565V2.49805C57.4565 1.12058 56.3754 1.75585e-08 55.0467 1.75585e-08H2.40983C1.08109 -0.000161962 0 1.12042 0 2.49789V6.73238C0 7.05363 0.123102 7.36173 0.342226 7.58889C0.56135 7.81605 0.858545 7.94367 1.16843 7.94367C1.47832 7.94367 1.77552 7.81605 1.99464 7.58889C2.21376 7.36173 2.33687 7.05363 2.33687 6.73238V2.49789C2.33687 2.45626 2.36952 2.42257 2.40968 2.42257H19.801V16.0773C19.801 17.2787 20.7438 18.2561 21.9029 18.2561H34.9677C36.1266 18.2561 37.0694 17.2787 37.0694 16.0773V2.42257H55.0463C55.0865 2.42257 55.1192 2.45626 55.1192 2.49789V43.4834H21.1818C20.0145 41.8462 18.334 40.737 16.4437 40.323C16.2548 40.2812 16.0644 40.2468 15.8729 40.22C15.7985 40.2094 15.7243 40.1989 15.6495 40.1905C15.5632 40.1812 15.4768 40.1733 15.3903 40.1668C15.3332 40.1623 15.2767 40.1565 15.2193 40.1534C15.0728 40.145 14.9253 40.1399 14.7767 40.1399C14.6281 40.1399 14.4806 40.145 14.334 40.1534C14.2768 40.1566 14.2203 40.1625 14.1632 40.1668C14.0765 40.1738 13.9898 40.1808 13.9039 40.1905C13.8292 40.1989 13.7549 40.2094 13.6807 40.22C13.4891 40.2469 13.2985 40.2813 13.1093 40.3231C11.2192 40.7373 9.53887 41.8464 8.37169 43.4834H2.33702V12.4661C2.33702 11.797 1.8139 11.2549 1.16859 11.2549C0.523279 11.2549 0 11.797 0 12.4661V47.3753C0 49.0364 1.30359 50.3878 2.90593 50.3878H7.03779C7.897 53.9904 11.04 56.67 14.7768 56.67C18.5137 56.67 21.6568 53.9904 22.516 50.3878H59.3084C60.1676 53.9904 63.3107 56.67 67.0475 56.67C70.7844 56.67 73.9275 53.9904 74.7866 50.3878H76.6177C78.4797 50.3878 79.995 48.8195 79.9995 46.8903L80 46.8814L79.9995 46.8765ZM34.7325 15.8334H22.1382V2.42241H34.7325V15.8334ZM7.17232 45.9221C7.12553 46.0763 7.08317 46.2318 7.04528 46.3885C7.03825 46.4173 7.03263 46.4466 7.02591 46.4756C6.98626 46.6471 6.95192 46.8199 6.92294 46.9936C6.90294 47.1135 6.8856 47.2342 6.87075 47.3558C6.86544 47.3986 6.85966 47.4414 6.85497 47.4843C6.83904 47.6333 6.82622 47.7833 6.8181 47.9344C6.81747 47.9446 6.81607 47.9547 6.8156 47.9649H2.90593C2.75509 47.9647 2.61049 47.9025 2.50383 47.7919C2.39718 47.6814 2.33719 47.5315 2.33702 47.3751V45.9059H7.17653C7.17497 45.9115 7.17388 45.9168 7.17232 45.9221ZM20.378 49.0432C20.0702 51.9653 17.676 54.2471 14.7767 54.2471C11.8775 54.2471 9.48324 51.9655 9.17543 49.0433C9.15289 48.8313 9.14141 48.6181 9.14106 48.4048C9.14106 48.282 9.1459 48.1597 9.1534 48.0378C9.15543 48.0047 9.15809 47.972 9.16059 47.9393C9.16799 47.8426 9.17768 47.7462 9.18965 47.65C9.19309 47.6228 9.1959 47.5956 9.19965 47.5685C9.21653 47.447 9.23653 47.3262 9.26075 47.2063C9.2634 47.1929 9.26684 47.1798 9.26965 47.1665C9.29838 47.0295 9.33194 46.8937 9.37028 46.7593C9.39766 46.6628 9.42741 46.567 9.45949 46.4721C9.46653 46.4513 9.47278 46.4301 9.47996 46.4094C9.51746 46.3025 9.55887 46.197 9.60246 46.0924C9.61903 46.0525 9.63668 46.0133 9.65418 45.974C9.68449 45.9055 9.71637 45.8376 9.74918 45.7702C9.76996 45.7276 9.79043 45.6848 9.81215 45.6429C9.85981 45.551 9.90981 45.4603 9.96231 45.3709C9.99215 45.3201 10.0239 45.2705 10.0553 45.2208C10.0803 45.1809 10.1056 45.1411 10.1314 45.102C10.1695 45.0447 10.2082 44.9878 10.2481 44.932C10.262 44.9125 10.2764 44.8934 10.2904 44.8741C11.0948 43.7785 12.2631 42.9853 13.607 42.69C13.6199 42.6872 13.6328 42.6837 13.6459 42.6809C13.7018 42.6691 13.7585 42.6597 13.8151 42.6495C13.8695 42.6399 13.9239 42.6302 13.9787 42.6223C14.0954 42.6051 14.2127 42.5919 14.3303 42.5828C14.3687 42.5797 14.407 42.576 14.4456 42.5737C14.5558 42.5667 14.6662 42.5631 14.7767 42.5628C14.8876 42.5628 14.9979 42.5672 15.1078 42.5737C15.1463 42.576 15.1846 42.5797 15.2231 42.5828C15.3406 42.5922 15.4579 42.6054 15.5746 42.6223C15.6295 42.6302 15.6837 42.6398 15.7381 42.6495C15.7946 42.6595 15.8513 42.6691 15.9073 42.6809C15.9201 42.6837 15.9328 42.6871 15.9456 42.69C17.2902 42.9853 18.459 43.779 19.2635 44.8754C19.2771 44.8941 19.2912 44.9125 19.3046 44.9315C19.3449 44.9878 19.3838 45.045 19.4223 45.1028C19.4477 45.1414 19.4726 45.1806 19.4973 45.2198C19.529 45.27 19.5609 45.3201 19.5912 45.3714C19.6437 45.4607 19.6935 45.5512 19.7412 45.6429C19.763 45.685 19.7835 45.7279 19.8045 45.7707C19.8373 45.8379 19.869 45.9055 19.8991 45.9738C19.9166 46.0133 19.9345 46.0527 19.951 46.0927C19.9945 46.1972 20.0359 46.3026 20.0734 46.4094C20.0807 46.4303 20.087 46.4517 20.094 46.4726C20.1707 46.6996 20.234 46.9314 20.2835 47.1665C20.2863 47.1799 20.2898 47.193 20.2924 47.2065C20.3166 47.3263 20.3366 47.4472 20.3535 47.5687C20.3573 47.5957 20.3601 47.6231 20.3635 47.6503C20.3755 47.7462 20.3851 47.8426 20.3926 47.9391C20.3951 47.972 20.3979 48.0049 20.3998 48.0379C20.4071 48.1599 20.4121 48.282 20.4121 48.4048C20.4119 48.6181 20.4006 48.8312 20.378 49.0432ZM55.1193 47.965H22.738C22.7376 47.9548 22.7362 47.9448 22.7355 47.9346C22.7271 47.7842 22.7148 47.6341 22.6987 47.4844C22.694 47.4415 22.6882 47.3989 22.6829 47.356C22.6681 47.2349 22.6507 47.1141 22.6307 46.9938C22.6234 46.9499 22.616 46.9058 22.6079 46.8621C22.5842 46.7327 22.5574 46.6039 22.5277 46.4758C22.521 46.4468 22.5152 46.4176 22.5084 46.3886C22.4705 46.232 22.4281 46.0765 22.3813 45.9225L22.3769 45.9063H55.1193V47.965ZM72.6485 49.0435C72.3405 51.9656 69.9464 54.2473 67.0472 54.2473C64.1479 54.2473 61.7537 51.9655 61.4459 49.0433C61.4233 48.8314 61.4118 48.6183 61.4115 48.405C61.4115 45.1835 63.9396 42.5627 67.0471 42.5627C70.1546 42.5627 72.6827 45.1835 72.6827 48.405C72.6825 48.6183 72.671 48.8315 72.6485 49.0435ZM77.6625 46.8815C77.6622 47.1688 77.552 47.4442 77.3561 47.6474C77.1601 47.8505 76.8945 47.9647 76.6174 47.965H75.0086C75.0021 47.8429 74.993 47.721 74.9814 47.5993C74.9802 47.5865 74.9799 47.5734 74.9786 47.5604C74.9652 47.4243 74.9485 47.2886 74.9286 47.1534C74.923 47.1145 74.9152 47.0764 74.9089 47.0379C74.8935 46.9425 74.8782 46.8469 74.8597 46.7526C74.8503 46.7053 74.8389 46.6588 74.8288 46.6117C74.8106 46.5271 74.793 46.4423 74.7724 46.3587C74.7599 46.308 74.7453 46.2584 74.7319 46.208C74.711 46.1292 74.6903 46.0501 74.6672 45.9722C74.6517 45.9204 74.6344 45.8695 74.618 45.8182C74.5941 45.743 74.5705 45.6677 74.5446 45.5933C74.5264 45.5417 74.5066 45.4911 74.4875 45.4399C74.4605 45.3672 74.4338 45.2943 74.4047 45.2227C74.3841 45.1717 74.3619 45.1216 74.3402 45.0711C74.3102 45.0008 74.2803 44.9305 74.2486 44.8613C74.2255 44.811 74.2008 44.7614 74.1766 44.7115C74.1438 44.6438 74.1111 44.5759 74.0766 44.5092C74.051 44.4596 74.0239 44.4109 73.9972 44.362C73.962 44.2965 73.9259 44.2315 73.8889 44.1671C73.861 44.1187 73.8317 44.071 73.8027 44.0233C73.7644 43.9601 73.726 43.8969 73.6861 43.835C73.656 43.7881 73.6247 43.7417 73.5935 43.6954C73.5528 43.6344 73.5113 43.574 73.4691 43.5141C73.4366 43.4685 73.4032 43.4234 73.3699 43.3784C73.3264 43.3199 73.2828 43.2618 73.238 43.2046C73.2032 43.1604 73.168 43.1166 73.1324 43.0732C73.0867 43.0171 73.0404 42.9617 72.9933 42.9069C72.9564 42.8642 72.9191 42.8219 72.8814 42.7801C72.7479 42.6311 72.6091 42.4873 72.4653 42.349C72.3733 42.2604 72.2791 42.1741 72.183 42.0902C72.1402 42.0528 72.0972 42.0157 72.0536 41.9791C71.8575 41.8148 71.6542 41.66 71.4443 41.5152C71.3861 41.4751 71.3271 41.4363 71.2678 41.3979C71.2199 41.3668 71.1721 41.3357 71.1235 41.3055C71.0636 41.2685 71.0028 41.2327 70.9419 41.1972C70.8924 41.1684 70.843 41.1394 70.7928 41.1115C70.731 41.0775 70.6687 41.0444 70.606 41.012C70.555 40.9856 70.5044 40.9589 70.4529 40.9336C70.3894 40.9024 70.3252 40.8731 70.2608 40.8436C70.2086 40.8196 70.1566 40.7953 70.1038 40.7725C70.0388 40.7445 69.9729 40.7182 69.9069 40.6918C69.8535 40.6704 69.8002 40.6486 69.7463 40.6283C69.6794 40.6034 69.6116 40.5804 69.5439 40.5572C69.4897 40.5386 69.4357 40.5193 69.381 40.5018C69.3121 40.4799 69.2424 40.4603 69.1727 40.4404C69.1177 40.4247 69.0632 40.408 69.0079 40.3934C68.9369 40.3748 68.865 40.3586 68.7933 40.3419C68.7382 40.3291 68.6835 40.3152 68.628 40.3035C68.554 40.288 68.479 40.2754 68.4043 40.2619C68.35 40.2522 68.2961 40.2412 68.2415 40.2328C68.1626 40.2204 68.0829 40.2112 68.0033 40.2013C67.9518 40.195 67.9008 40.1871 67.849 40.1816C67.761 40.1725 67.6719 40.1667 67.5832 40.1605C67.539 40.1574 67.495 40.1527 67.4507 40.1503C67.1821 40.1363 66.913 40.1363 66.6444 40.1503C66.6001 40.1526 66.5562 40.1574 66.5119 40.1605C66.423 40.1667 66.3341 40.1723 66.2461 40.1816C66.1944 40.1869 66.1433 40.1949 66.0918 40.2013C66.0122 40.2112 65.9324 40.2204 65.8536 40.2328C65.799 40.2413 65.7452 40.2524 65.6908 40.2619C65.6161 40.2754 65.5411 40.288 65.4671 40.3035C65.4115 40.3152 65.3568 40.3291 65.3016 40.3419C65.2299 40.3586 65.1582 40.3747 65.0872 40.3933C65.0318 40.4079 64.9772 40.4245 64.9222 40.4404C64.8527 40.4603 64.7829 40.4799 64.7141 40.5018C64.6593 40.5193 64.6054 40.5386 64.5512 40.5572C64.4835 40.5804 64.4157 40.6034 64.3488 40.6283C64.2948 40.6486 64.2416 40.6704 64.1882 40.6918C64.1222 40.7182 64.0563 40.7443 63.9913 40.7725C63.9385 40.7953 63.8866 40.8196 63.8344 40.8436C63.7701 40.8731 63.7057 40.9025 63.6423 40.9338C63.5908 40.9591 63.5402 40.9856 63.4894 41.012C63.4266 41.0446 63.364 41.0773 63.3021 41.1117C63.2521 41.1394 63.2027 41.1684 63.1532 41.1972C63.0923 41.2327 63.0316 41.2685 62.9716 41.3055C62.9229 41.3357 62.8749 41.3669 62.8268 41.398C62.7677 41.4364 62.7088 41.4751 62.6509 41.5152C62.6038 41.5476 62.5574 41.5808 62.5112 41.6141C62.4538 41.6554 62.3968 41.6972 62.3405 41.74C62.1942 41.852 62.0513 41.9688 61.9121 42.0902C61.8161 42.1743 61.722 42.2606 61.6298 42.3492C61.5375 42.4378 61.4473 42.5287 61.3593 42.6218C61.31 42.674 61.2614 42.7269 61.2135 42.7804C61.1276 42.8759 61.0439 42.9736 60.9627 43.0734C60.9271 43.117 60.8918 43.1605 60.8569 43.2049C60.8121 43.2621 60.7685 43.3203 60.7251 43.3787C60.6916 43.4238 60.6584 43.4688 60.6259 43.5145C60.5835 43.5741 60.5424 43.6347 60.5015 43.6956C60.4704 43.7421 60.439 43.7882 60.4088 43.8354C60.369 43.8974 60.3305 43.9604 60.2923 44.0236C60.2634 44.0714 60.2341 44.119 60.206 44.1674C60.1688 44.2317 60.1334 44.297 60.0977 44.3623C60.0712 44.4112 60.0441 44.4599 60.0184 44.5095C59.9838 44.5763 59.9512 44.644 59.9184 44.7118C59.8941 44.7617 59.8695 44.8113 59.8463 44.8617C59.8146 44.9308 59.7848 45.001 59.7548 45.0713C59.7332 45.1218 59.7109 45.172 59.6902 45.223C59.6613 45.2948 59.6345 45.3675 59.6074 45.4403C59.5884 45.4913 59.5685 45.542 59.5504 45.5936C59.5243 45.668 59.5007 45.7436 59.4766 45.8191C59.4604 45.8701 59.443 45.9208 59.4277 45.9724C59.4045 46.0504 59.3838 46.1298 59.3627 46.209C59.3495 46.2591 59.3349 46.3086 59.3224 46.359C59.3018 46.4426 59.2841 46.5275 59.266 46.612C59.2559 46.659 59.2445 46.7055 59.2351 46.7529C59.2165 46.8472 59.2012 46.9428 59.1859 47.0382C59.1796 47.0769 59.1718 47.115 59.1662 47.1537C59.1462 47.2889 59.1296 47.4245 59.1162 47.5606C59.1146 47.5766 59.114 47.5928 59.1126 47.6088C59.1016 47.7271 59.0921 47.8458 59.086 47.9654H57.4565V18.6463H69.1708C69.5272 18.6463 69.8752 18.797 70.1254 19.0597L77.2753 26.5634C77.5241 26.8233 77.6633 27.1748 77.6625 27.541V46.8815Z" fill="white"/>
</svg>
