<svg width="80" height="80" viewBox="0 0 80 80" fill="none" xmlns="http://www.w3.org/2000/svg">
<g clip-path="url(#clip0_905_97)">
<path d="M50.1267 41.9371H45.1303C44.8204 41.9371 44.5232 42.0647 44.3041 42.2919C44.085 42.519 43.9619 42.8271 43.9619 43.1484C43.9619 43.4696 44.085 43.7777 44.3041 44.0049C44.5232 44.2321 44.8204 44.3597 45.1303 44.3597H50.1267C50.4366 44.3597 50.7338 44.2321 50.9529 44.0049C51.172 43.7777 51.2951 43.4696 51.2951 43.1484C51.2951 42.8271 51.172 42.519 50.9529 42.2919C50.7338 42.0647 50.4366 41.9371 50.1267 41.9371ZM39.6931 41.9371H37.8705C37.5606 41.9371 37.2634 42.0647 37.0443 42.2919C36.8252 42.519 36.702 42.8271 36.702 43.1484C36.702 43.4696 36.8252 43.7777 37.0443 44.0049C37.2634 44.2321 37.5606 44.3597 37.8705 44.3597H39.6931C40.003 44.3597 40.3002 44.2321 40.5193 44.0049C40.7385 43.7777 40.8616 43.4696 40.8616 43.1484C40.8616 42.8271 40.7385 42.519 40.5193 42.2919C40.3002 42.0647 40.003 41.9371 39.6931 41.9371ZM50.1267 48.9359H37.8705C37.5606 48.9359 37.2634 49.0635 37.0443 49.2907C36.8252 49.5179 36.702 49.826 36.702 50.1472C36.702 50.4685 36.8252 50.7766 37.0443 51.0037C37.2634 51.2309 37.5606 51.3585 37.8705 51.3585H50.1267C50.4366 51.3585 50.7338 51.2309 50.9529 51.0037C51.172 50.7766 51.2951 50.4685 51.2951 50.1472C51.2951 49.826 51.172 49.5179 50.9529 49.2907C50.7338 49.0635 50.4366 48.9359 50.1267 48.9359ZM67.0472 56.4685C64.9533 56.4685 63.2499 58.2344 63.2499 60.4051C63.2499 62.5758 64.9533 64.3417 67.0472 64.3417C69.141 64.3417 70.8444 62.5758 70.8444 60.4051C70.8444 58.2344 69.141 56.4685 67.0472 56.4685ZM67.0472 61.919C66.2419 61.919 65.5869 61.2398 65.5869 60.4051C65.5869 59.5704 66.2419 58.8912 67.0472 58.8912C67.8524 58.8912 68.5076 59.5704 68.5076 60.4051C68.5076 61.2398 67.8524 61.919 67.0472 61.919ZM14.7767 56.4685C12.6829 56.4685 10.9795 58.2344 10.9795 60.4051C10.9795 62.5758 12.6829 64.3417 14.7767 64.3417C16.8706 64.3417 18.574 62.5758 18.574 60.4051C18.574 58.2344 16.8706 56.4685 14.7767 56.4685ZM14.7767 61.919C13.9715 61.919 13.3164 61.2398 13.3164 60.4051C13.3164 59.5704 13.9714 58.8912 14.7767 58.8912C15.582 58.8912 16.237 59.5704 16.237 60.4051C16.237 61.2398 15.582 61.919 14.7767 61.919ZM75.0575 39.4735L69.5561 33.7003C69.3506 33.4857 69.1062 33.3152 68.837 33.1986C68.5678 33.082 68.2791 33.0216 67.9874 33.0208H61.6302C60.4141 33.0208 59.4249 34.0462 59.4249 35.3071V45.1692C59.4249 46.4298 60.4141 47.4554 61.6302 47.4554H73.4885C74.7044 47.4554 75.6938 46.4299 75.6938 45.1692V41.0802C75.6938 40.4752 75.4678 39.9047 75.0575 39.4735ZM73.3568 45.0325H61.762V35.4435H67.9324L73.3568 41.1363V45.0325Z" fill="#FF7D44"/>
<path d="M79.9995 58.8765V39.5411C80.0019 38.5373 79.6202 37.5735 78.938 36.861L71.788 29.3573C71.4451 28.9993 71.0374 28.7149 70.5883 28.5204C70.1392 28.3259 69.6575 28.2251 69.1708 28.2238H57.4565V14.4981C57.4565 13.1206 56.3754 12 55.0467 12H2.40983C1.08109 11.9998 0 13.1204 0 14.4979V18.7324C0 19.0536 0.123102 19.3617 0.342226 19.5889C0.56135 19.816 0.858545 19.9437 1.16843 19.9437C1.47832 19.9437 1.77552 19.816 1.99464 19.5889C2.21376 19.3617 2.33687 19.0536 2.33687 18.7324V14.4979C2.33687 14.4563 2.36952 14.4226 2.40968 14.4226H19.801V28.0773C19.801 29.2787 20.7438 30.2561 21.9029 30.2561H34.9677C36.1266 30.2561 37.0694 29.2787 37.0694 28.0773V14.4226H55.0463C55.0865 14.4226 55.1192 14.4563 55.1192 14.4979V55.4834H21.1818C20.0145 53.8462 18.334 52.737 16.4437 52.323C16.2548 52.2812 16.0644 52.2468 15.8729 52.22C15.7985 52.2094 15.7243 52.1989 15.6495 52.1905C15.5632 52.1812 15.4768 52.1733 15.3903 52.1668C15.3332 52.1623 15.2767 52.1565 15.2193 52.1534C15.0728 52.145 14.9253 52.1399 14.7767 52.1399C14.6281 52.1399 14.4806 52.145 14.334 52.1534C14.2768 52.1566 14.2203 52.1625 14.1632 52.1668C14.0765 52.1738 13.9898 52.1808 13.9039 52.1905C13.8292 52.1989 13.7549 52.2094 13.6807 52.22C13.4891 52.2469 13.2985 52.2813 13.1093 52.3231C11.2192 52.7373 9.53887 53.8464 8.37169 55.4834H2.33702V24.4661C2.33702 23.797 1.8139 23.2549 1.16859 23.2549C0.523279 23.2549 0 23.797 0 24.4661V59.3753C0 61.0364 1.30359 62.3878 2.90593 62.3878H7.03779C7.897 65.9904 11.04 68.67 14.7768 68.67C18.5137 68.67 21.6568 65.9904 22.516 62.3878H59.3084C60.1676 65.9904 63.3107 68.67 67.0475 68.67C70.7844 68.67 73.9275 65.9904 74.7866 62.3878H76.6177C78.4797 62.3878 79.995 60.8195 79.9995 58.8903L80 58.8814L79.9995 58.8765ZM34.7325 27.8334H22.1382V14.4224H34.7325V27.8334ZM7.17232 57.9221C7.12553 58.0763 7.08317 58.2318 7.04528 58.3885C7.03825 58.4173 7.03263 58.4466 7.02591 58.4756C6.98626 58.6471 6.95192 58.8199 6.92294 58.9936C6.90294 59.1135 6.8856 59.2342 6.87075 59.3558C6.86544 59.3986 6.85966 59.4414 6.85497 59.4843C6.83904 59.6333 6.82622 59.7833 6.8181 59.9344C6.81747 59.9446 6.81607 59.9547 6.8156 59.9649H2.90593C2.75509 59.9647 2.61049 59.9025 2.50383 59.7919C2.39718 59.6814 2.33719 59.5315 2.33702 59.3751V57.9059H7.17653C7.17497 57.9115 7.17388 57.9168 7.17232 57.9221ZM20.378 61.0432C20.0702 63.9653 17.676 66.2471 14.7767 66.2471C11.8775 66.2471 9.48324 63.9655 9.17543 61.0433C9.15289 60.8313 9.14141 60.6181 9.14106 60.4048C9.14106 60.282 9.1459 60.1597 9.1534 60.0378C9.15543 60.0047 9.15809 59.972 9.16059 59.9393C9.16799 59.8426 9.17768 59.7462 9.18965 59.65C9.19309 59.6228 9.1959 59.5956 9.19965 59.5685C9.21653 59.447 9.23653 59.3262 9.26075 59.2063C9.2634 59.1929 9.26684 59.1798 9.26965 59.1665C9.29838 59.0295 9.33194 58.8937 9.37028 58.7593C9.39766 58.6628 9.42741 58.567 9.45949 58.4721C9.46653 58.4513 9.47278 58.4301 9.47996 58.4094C9.51746 58.3025 9.55887 58.197 9.60246 58.0924C9.61903 58.0525 9.63668 58.0133 9.65418 57.974C9.68449 57.9055 9.71637 57.8376 9.74918 57.7702C9.76996 57.7276 9.79043 57.6848 9.81215 57.6429C9.85981 57.551 9.90981 57.4603 9.96231 57.3709C9.99215 57.3201 10.0239 57.2705 10.0553 57.2208C10.0803 57.1809 10.1056 57.1411 10.1314 57.102C10.1695 57.0447 10.2082 56.9878 10.2481 56.932C10.262 56.9125 10.2764 56.8934 10.2904 56.8741C11.0948 55.7785 12.2631 54.9853 13.607 54.69C13.6199 54.6872 13.6328 54.6837 13.6459 54.6809C13.7018 54.6691 13.7585 54.6597 13.8151 54.6495C13.8695 54.6399 13.9239 54.6302 13.9787 54.6223C14.0954 54.6051 14.2127 54.5919 14.3303 54.5828C14.3687 54.5797 14.407 54.576 14.4456 54.5737C14.5558 54.5667 14.6662 54.5631 14.7767 54.5628C14.8876 54.5628 14.9979 54.5672 15.1078 54.5737C15.1463 54.576 15.1846 54.5797 15.2231 54.5828C15.3406 54.5922 15.4579 54.6054 15.5746 54.6223C15.6295 54.6302 15.6837 54.6398 15.7381 54.6495C15.7946 54.6595 15.8513 54.6691 15.9073 54.6809C15.9201 54.6837 15.9328 54.6871 15.9456 54.69C17.2902 54.9853 18.459 55.779 19.2635 56.8754C19.2771 56.8941 19.2912 56.9125 19.3046 56.9315C19.3449 56.9878 19.3838 57.045 19.4223 57.1028C19.4477 57.1414 19.4726 57.1806 19.4973 57.2198C19.529 57.27 19.5609 57.3201 19.5912 57.3714C19.6437 57.4607 19.6935 57.5512 19.7412 57.6429C19.763 57.685 19.7835 57.7279 19.8045 57.7707C19.8373 57.8379 19.869 57.9055 19.8991 57.9738C19.9166 58.0133 19.9345 58.0527 19.951 58.0927C19.9945 58.1972 20.0359 58.3026 20.0734 58.4094C20.0807 58.4303 20.087 58.4517 20.094 58.4726C20.1707 58.6996 20.234 58.9314 20.2835 59.1665C20.2863 59.1799 20.2898 59.193 20.2924 59.2065C20.3166 59.3263 20.3366 59.4472 20.3535 59.5687C20.3573 59.5957 20.3601 59.6231 20.3635 59.6503C20.3755 59.7462 20.3851 59.8426 20.3926 59.9391C20.3951 59.972 20.3979 60.0049 20.3998 60.0379C20.4071 60.1599 20.4121 60.282 20.4121 60.4048C20.4119 60.6181 20.4006 60.8312 20.378 61.0432ZM55.1193 59.965H22.738C22.7376 59.9548 22.7362 59.9448 22.7355 59.9346C22.7271 59.7842 22.7148 59.6341 22.6987 59.4844C22.694 59.4415 22.6882 59.3989 22.6829 59.356C22.6681 59.2349 22.6507 59.1141 22.6307 58.9938C22.6234 58.9499 22.616 58.9058 22.6079 58.8621C22.5842 58.7327 22.5574 58.6039 22.5277 58.4758C22.521 58.4468 22.5152 58.4176 22.5084 58.3886C22.4705 58.232 22.4281 58.0765 22.3813 57.9225L22.3769 57.9063H55.1193V59.965ZM72.6485 61.0435C72.3405 63.9656 69.9464 66.2473 67.0472 66.2473C64.1479 66.2473 61.7537 63.9655 61.4459 61.0433C61.4233 60.8314 61.4118 60.6183 61.4115 60.405C61.4115 57.1835 63.9396 54.5627 67.0471 54.5627C70.1546 54.5627 72.6827 57.1835 72.6827 60.405C72.6825 60.6183 72.671 60.8315 72.6485 61.0435ZM77.6625 58.8815C77.6622 59.1688 77.552 59.4442 77.3561 59.6474C77.1601 59.8505 76.8945 59.9647 76.6174 59.965H75.0086C75.0021 59.8429 74.993 59.721 74.9814 59.5993C74.9802 59.5865 74.9799 59.5734 74.9786 59.5604C74.9652 59.4243 74.9485 59.2886 74.9286 59.1534C74.923 59.1145 74.9152 59.0764 74.9089 59.0379C74.8935 58.9425 74.8782 58.8469 74.8597 58.7526C74.8503 58.7053 74.8389 58.6588 74.8288 58.6117C74.8106 58.5271 74.793 58.4423 74.7724 58.3587C74.7599 58.308 74.7453 58.2584 74.7319 58.208C74.711 58.1292 74.6903 58.0501 74.6672 57.9722C74.6517 57.9204 74.6344 57.8695 74.618 57.8182C74.5941 57.743 74.5705 57.6677 74.5446 57.5933C74.5264 57.5417 74.5066 57.4911 74.4875 57.4399C74.4605 57.3672 74.4338 57.2943 74.4047 57.2227C74.3841 57.1717 74.3619 57.1216 74.3402 57.0711C74.3102 57.0008 74.2803 56.9305 74.2486 56.8613C74.2255 56.811 74.2008 56.7614 74.1766 56.7115C74.1438 56.6438 74.1111 56.5759 74.0766 56.5092C74.051 56.4596 74.0239 56.4109 73.9972 56.362C73.962 56.2965 73.9259 56.2315 73.8889 56.1671C73.861 56.1187 73.8317 56.071 73.8027 56.0233C73.7644 55.9601 73.726 55.8969 73.6861 55.835C73.656 55.7881 73.6247 55.7417 73.5935 55.6954C73.5528 55.6344 73.5113 55.574 73.4691 55.5141C73.4366 55.4685 73.4032 55.4234 73.3699 55.3784C73.3264 55.3199 73.2828 55.2618 73.238 55.2046C73.2032 55.1604 73.168 55.1166 73.1324 55.0732C73.0867 55.0171 73.0404 54.9617 72.9933 54.9069C72.9564 54.8642 72.9191 54.8219 72.8814 54.7801C72.7479 54.6311 72.6091 54.4873 72.4653 54.349C72.3733 54.2604 72.2791 54.1741 72.183 54.0902C72.1402 54.0528 72.0972 54.0157 72.0536 53.9791C71.8575 53.8148 71.6542 53.66 71.4443 53.5152C71.3861 53.4751 71.3271 53.4363 71.2678 53.3979C71.2199 53.3668 71.1721 53.3357 71.1235 53.3055C71.0636 53.2685 71.0028 53.2327 70.9419 53.1972C70.8924 53.1684 70.843 53.1394 70.7928 53.1115C70.731 53.0775 70.6687 53.0444 70.606 53.012C70.555 52.9856 70.5044 52.9589 70.4529 52.9336C70.3894 52.9024 70.3252 52.8731 70.2608 52.8436C70.2086 52.8196 70.1566 52.7953 70.1038 52.7725C70.0388 52.7445 69.9729 52.7182 69.9069 52.6918C69.8535 52.6704 69.8002 52.6486 69.7463 52.6283C69.6794 52.6034 69.6116 52.5804 69.5439 52.5572C69.4897 52.5386 69.4357 52.5193 69.381 52.5018C69.3121 52.4799 69.2424 52.4603 69.1727 52.4404C69.1177 52.4247 69.0632 52.408 69.0079 52.3934C68.9369 52.3748 68.865 52.3586 68.7933 52.3419C68.7382 52.3291 68.6835 52.3152 68.628 52.3035C68.554 52.288 68.479 52.2754 68.4043 52.2619C68.35 52.2522 68.2961 52.2412 68.2415 52.2328C68.1626 52.2204 68.0829 52.2112 68.0033 52.2013C67.9518 52.195 67.9008 52.1871 67.849 52.1816C67.761 52.1725 67.6719 52.1667 67.5832 52.1605C67.539 52.1574 67.495 52.1527 67.4507 52.1503C67.1821 52.1363 66.913 52.1363 66.6444 52.1503C66.6001 52.1526 66.5562 52.1574 66.5119 52.1605C66.423 52.1667 66.3341 52.1723 66.2461 52.1816C66.1944 52.1869 66.1433 52.1949 66.0918 52.2013C66.0122 52.2112 65.9324 52.2204 65.8536 52.2328C65.799 52.2413 65.7452 52.2524 65.6908 52.2619C65.6161 52.2754 65.5411 52.288 65.4671 52.3035C65.4115 52.3152 65.3568 52.3291 65.3016 52.3419C65.2299 52.3586 65.1582 52.3747 65.0872 52.3933C65.0318 52.4079 64.9772 52.4245 64.9222 52.4404C64.8527 52.4603 64.7829 52.4799 64.7141 52.5018C64.6593 52.5193 64.6054 52.5386 64.5512 52.5572C64.4835 52.5804 64.4157 52.6034 64.3488 52.6283C64.2948 52.6486 64.2416 52.6704 64.1882 52.6918C64.1222 52.7182 64.0563 52.7443 63.9913 52.7725C63.9385 52.7953 63.8866 52.8196 63.8344 52.8436C63.7701 52.8731 63.7057 52.9025 63.6423 52.9338C63.5908 52.9591 63.5402 52.9856 63.4894 53.012C63.4266 53.0446 63.364 53.0773 63.3021 53.1117C63.2521 53.1394 63.2027 53.1684 63.1532 53.1972C63.0923 53.2327 63.0316 53.2685 62.9716 53.3055C62.9229 53.3357 62.8749 53.3669 62.8268 53.398C62.7677 53.4364 62.7088 53.4751 62.6509 53.5152C62.6038 53.5476 62.5574 53.5808 62.5112 53.6141C62.4538 53.6554 62.3968 53.6972 62.3405 53.74C62.1942 53.852 62.0513 53.9688 61.9121 54.0902C61.8161 54.1743 61.722 54.2606 61.6298 54.3492C61.5375 54.4378 61.4473 54.5287 61.3593 54.6218C61.31 54.674 61.2614 54.7269 61.2135 54.7804C61.1276 54.8759 61.0439 54.9736 60.9627 55.0734C60.9271 55.117 60.8918 55.1605 60.8569 55.2049C60.8121 55.2621 60.7685 55.3203 60.7251 55.3787C60.6916 55.4238 60.6584 55.4688 60.6259 55.5145C60.5835 55.5741 60.5424 55.6347 60.5015 55.6956C60.4704 55.7421 60.439 55.7882 60.4088 55.8354C60.369 55.8974 60.3305 55.9604 60.2923 56.0236C60.2634 56.0714 60.2341 56.119 60.206 56.1674C60.1688 56.2317 60.1334 56.297 60.0977 56.3623C60.0712 56.4112 60.0441 56.4599 60.0184 56.5095C59.9838 56.5763 59.9512 56.644 59.9184 56.7118C59.8941 56.7617 59.8695 56.8113 59.8463 56.8617C59.8146 56.9308 59.7848 57.001 59.7548 57.0713C59.7332 57.1218 59.7109 57.172 59.6902 57.223C59.6613 57.2948 59.6345 57.3675 59.6074 57.4403C59.5884 57.4913 59.5685 57.542 59.5504 57.5936C59.5243 57.668 59.5007 57.7436 59.4766 57.8191C59.4604 57.8701 59.443 57.9208 59.4277 57.9724C59.4045 58.0504 59.3838 58.1298 59.3627 58.209C59.3495 58.2591 59.3349 58.3086 59.3224 58.359C59.3018 58.4426 59.2841 58.5275 59.266 58.612C59.2559 58.659 59.2445 58.7055 59.2351 58.7529C59.2165 58.8472 59.2012 58.9428 59.1859 59.0382C59.1796 59.0769 59.1718 59.115 59.1662 59.1537C59.1462 59.2889 59.1296 59.4245 59.1162 59.5606C59.1146 59.5766 59.114 59.5928 59.1126 59.6088C59.1016 59.7271 59.0921 59.8458 59.086 59.9654H57.4565V30.6463H69.1708C69.5272 30.6463 69.8752 30.797 70.1254 31.0597L77.2753 38.5634C77.5241 38.8233 77.6633 39.1748 77.6625 39.541V58.8815Z" fill="#104B59"/>
</g>
<defs>
<clipPath id="clip0_905_97">
<rect width="80" height="80" fill="white"/>
</clipPath>
</defs>
</svg>
