<svg width="80" height="66" viewBox="0 0 80 66" fill="none" xmlns="http://www.w3.org/2000/svg">
<path d="M6.25 46.75C6.25 46.4185 6.1183 46.1005 5.88388 45.8661C5.64946 45.6317 5.33152 45.5 5 45.5H2.5V48H5C5.33152 48 5.64946 47.8683 5.88388 47.6339C6.1183 47.3995 6.25 47.0815 6.25 46.75ZM73.75 44.25C73.75 44.5815 73.8817 44.8995 74.1161 45.1339C74.3505 45.3683 74.6685 45.5 75 45.5H77.5V43H75C74.6685 43 74.3505 43.1317 74.1161 43.3661C73.8817 43.6005 73.75 43.9185 73.75 44.25ZM57.5 32.0775H70.4788L68.9587 25.5H57.5V32.0775Z" fill="#0E313A"/>
<path d="M63.75 59.25C64.4404 59.25 65 58.6904 65 58C65 57.3096 64.4404 56.75 63.75 56.75C63.0596 56.75 62.5 57.3096 62.5 58C62.5 58.6904 63.0596 59.25 63.75 59.25Z" fill="#0E313A"/>
<path d="M63.75 50.5C62.2666 50.5 60.8166 50.9399 59.5832 51.764C58.3499 52.5881 57.3886 53.7594 56.8209 55.1299C56.2532 56.5003 56.1047 58.0083 56.3941 59.4632C56.6835 60.918 57.3978 62.2544 58.4467 63.3033C59.4956 64.3522 60.832 65.0665 62.2868 65.3559C63.7417 65.6453 65.2497 65.4968 66.6201 64.9291C67.9906 64.3614 69.1619 63.4001 69.986 62.1668C70.8101 60.9334 71.25 59.4834 71.25 58C71.25 56.0109 70.4598 54.1032 69.0533 52.6967C67.6468 51.2902 65.7391 50.5 63.75 50.5ZM63.75 61.75C63.0083 61.75 62.2833 61.5301 61.6666 61.118C61.0499 60.706 60.5693 60.1203 60.2855 59.4351C60.0016 58.7498 59.9274 57.9958 60.0721 57.2684C60.2168 56.541 60.5739 55.8728 61.0984 55.3484C61.6228 54.8239 62.291 54.4667 63.0184 54.3221C63.7458 54.1774 64.4998 54.2516 65.1851 54.5355C65.8703 54.8193 66.456 55.2999 66.868 55.9166C67.2801 56.5333 67.5 57.2583 67.5 58C67.5 58.9946 67.1049 59.9484 66.4017 60.6516C65.6984 61.3549 64.7446 61.75 63.75 61.75Z" fill="#0E313A"/>
<path d="M77.5 48H75C74.0054 48 73.0516 47.6049 72.3484 46.9016C71.6451 46.1984 71.25 45.2446 71.25 44.25C71.25 43.2554 71.6451 42.3016 72.3484 41.5984C73.0516 40.8951 74.0054 40.5 75 40.5H77.5C77.4925 39.5075 77.1897 38.5397 76.6303 37.7199C76.0709 36.9 75.2802 36.2652 74.3587 35.8963L71.06 34.5775H56.25C55.9185 34.5775 55.6005 34.4458 55.3661 34.2114C55.1317 33.977 55 33.659 55 33.3275V24.25C55 23.9185 55.1317 23.6005 55.3661 23.3661C55.6005 23.1317 55.9185 23 56.25 23H68.375L68.115 21.875C67.8609 20.7746 67.2417 19.7926 66.3583 19.089C65.475 18.3854 64.3794 18.0015 63.25 18H52.5V53H55.1025C55.9773 51.4801 57.2373 50.2176 58.7554 49.3397C60.2736 48.4618 61.9963 47.9996 63.75 47.9996C65.5037 47.9996 67.2264 48.4618 68.7446 49.3397C70.2627 50.2176 71.5227 51.4801 72.3975 53H77.5V48ZM58.75 40.5H56.25C55.9185 40.5 55.6005 40.3683 55.3661 40.1339C55.1317 39.8995 55 39.5815 55 39.25C55 38.9185 55.1317 38.6005 55.3661 38.3661C55.6005 38.1317 55.9185 38 56.25 38H58.75C59.0815 38 59.3995 38.1317 59.6339 38.3661C59.8683 38.6005 60 38.9185 60 39.25C60 39.5815 59.8683 39.8995 59.6339 40.1339C59.3995 40.3683 59.0815 40.5 58.75 40.5ZM2.5 55.5C1.83696 55.5 1.20107 55.7634 0.732233 56.2322C0.263392 56.7011 0 57.337 0 58C0 58.663 0.263392 59.2989 0.732233 59.7678C1.20107 60.2366 1.83696 60.5 2.5 60.5H6.57875C6.14041 58.8622 6.14041 57.1378 6.57875 55.5H2.5ZM25.9212 55.5C26.3596 57.1378 26.3596 58.8622 25.9212 60.5H54.0788C53.6404 58.8622 53.6404 57.1378 54.0788 55.5H25.9212ZM77.5 55.5H73.4212C73.8596 57.1378 73.8596 58.8622 73.4212 60.5H77.5C78.163 60.5 78.7989 60.2366 79.2678 59.7678C79.7366 59.2989 80 58.663 80 58C80 57.337 79.7366 56.7011 79.2678 56.2322C78.7989 55.7634 78.163 55.5 77.5 55.5Z" fill="#0E313A"/>
<path d="M16.25 59.25C16.9404 59.25 17.5 58.6904 17.5 58C17.5 57.3096 16.9404 56.75 16.25 56.75C15.5596 56.75 15 57.3096 15 58C15 58.6904 15.5596 59.25 16.25 59.25Z" fill="#0E313A"/>
<path d="M16.25 50.5C14.7666 50.5 13.3166 50.9399 12.0832 51.764C10.8499 52.5881 9.88856 53.7594 9.32091 55.1299C8.75325 56.5003 8.60472 58.0083 8.89411 59.4632C9.1835 60.918 9.89781 62.2544 10.9467 63.3033C11.9956 64.3522 13.332 65.0665 14.7868 65.3559C16.2417 65.6453 17.7497 65.4968 19.1201 64.9291C20.4906 64.3614 21.6619 63.4001 22.486 62.1668C23.3101 60.9334 23.75 59.4834 23.75 58C23.75 56.0109 22.9598 54.1032 21.5533 52.6967C20.1468 51.2902 18.2391 50.5 16.25 50.5ZM16.25 61.75C15.5083 61.75 14.7833 61.5301 14.1666 61.118C13.5499 60.706 13.0693 60.1203 12.7855 59.4351C12.5016 58.7498 12.4274 57.9958 12.5721 57.2684C12.7168 56.541 13.0739 55.8728 13.5984 55.3484C14.1228 54.8239 14.791 54.4667 15.5184 54.3221C16.2458 54.1774 16.9998 54.2516 17.6851 54.5355C18.3703 54.8193 18.956 55.2999 19.368 55.9166C19.7801 56.5333 20 57.2583 20 58C20 58.9946 19.6049 59.9484 18.9017 60.6516C18.1984 61.3549 17.2446 61.75 16.25 61.75Z" fill="#0E313A"/>
<path d="M50 16.75C50 15.7554 49.6049 14.8016 48.9016 14.0983C48.1984 13.3951 47.2446 13 46.25 13H41.25C41.25 16.9782 39.6696 20.7936 36.8566 23.6066C34.0436 26.4196 30.2282 28 26.25 28C22.2718 28 18.4564 26.4196 15.6434 23.6066C12.8304 20.7936 11.25 16.9782 11.25 13H6.25C5.25544 13 4.30161 13.3951 3.59835 14.0983C2.89509 14.8016 2.5 15.7554 2.5 16.75V43H5C5.99456 43 6.94839 43.3951 7.65165 44.0984C8.35491 44.8016 8.75 45.7554 8.75 46.75C8.75 47.7446 8.35491 48.6984 7.65165 49.4016C6.94839 50.1049 5.99456 50.5 5 50.5H2.5V53H7.6025C8.4773 51.4801 9.73726 50.2176 11.2554 49.3397C12.7736 48.4618 14.4963 47.9996 16.25 47.9996C18.0037 47.9996 19.7264 48.4618 21.2446 49.3397C22.7627 50.2176 24.0227 51.4801 24.8975 53H50V16.75Z" fill="#0E313A"/>
<path d="M26.25 25.5C28.7223 25.5 31.139 24.7669 33.1946 23.3934C35.2502 22.0199 36.8524 20.0676 37.7985 17.7835C38.7446 15.4995 38.9921 12.9861 38.5098 10.5614C38.0275 8.13661 36.837 5.90933 35.0888 4.16117C33.3407 2.41301 31.1134 1.2225 28.6886 0.74019C26.2639 0.257874 23.7505 0.505416 21.4665 1.45151C19.1824 2.39761 17.2301 3.99976 15.8566 6.05538C14.4831 8.11099 13.75 10.5277 13.75 13C13.75 16.3152 15.067 19.4946 17.4112 21.8388C19.7554 24.183 22.9348 25.5 26.25 25.5ZM21.25 11.75H25V5.50001C25 5.16848 25.1317 4.85054 25.3661 4.61612C25.6005 4.3817 25.9185 4.25001 26.25 4.25001C26.5815 4.25001 26.8995 4.3817 27.1339 4.61612C27.3683 4.85054 27.5 5.16848 27.5 5.50001V13C27.5 13.3315 27.3683 13.6495 27.1339 13.8839C26.8995 14.1183 26.5815 14.25 26.25 14.25H21.25C20.9185 14.25 20.6005 14.1183 20.3661 13.8839C20.1317 13.6495 20 13.3315 20 13C20 12.6685 20.1317 12.3505 20.3661 12.1161C20.6005 11.8817 20.9185 11.75 21.25 11.75Z" fill="#FF5C01"/>
</svg>
