<svg width="60" height="60" viewBox="0 0 60 60" fill="none" xmlns="http://www.w3.org/2000/svg">
<g clip-path="url(#clip0_827_247)">
<path d="M4.68753 17.625V22.5C4.68753 23.0625 5.06253 23.4375 5.62503 23.4375C6.18753 23.4375 6.56253 23.0625 6.56253 22.5V16.875L30 6.84375L53.4375 16.875V35.625C53.4375 36.1875 53.8125 36.5625 54.375 36.5625C54.9375 36.5625 55.3125 36.1875 55.3125 35.625V17.625C55.5938 17.7187 57.9375 18.1875 58.875 16.125C59.4375 14.7187 58.875 13.0312 57.375 12.4687L52.875 10.5C52.4063 10.3125 51.8438 10.5 51.6563 10.9687C51.4688 11.4375 51.6563 12 52.125 12.1875L56.625 14.1562C57.0938 14.3437 57.2813 14.9062 57.0938 15.375C56.9063 15.8437 56.3438 16.0312 55.875 15.8437C55.875 15.8437 30.1875 4.6875 30 4.78125L4.12503 15.8437C3.65628 16.0312 3.09378 15.8437 2.90628 15.375C2.71878 14.9062 2.90628 14.3437 3.37503 14.1562L30 2.71875C30.1875 2.625 48.375 10.5937 48.375 10.5937C48.8438 10.7812 49.4063 10.5937 49.5938 10.125C49.7813 9.65625 49.5938 9.09375 49.125 8.90625L31.125 1.125C30.375 0.84375 29.625 0.84375 28.875 1.125L2.62503 12.375C1.21878 13.0312 0.562527 14.625 1.12503 16.0312C1.78128 17.4375 3.28128 18.0937 4.68753 17.625ZM5.62503 25.125C5.06253 25.125 4.68753 25.5 4.68753 26.0625V28.3125C4.68753 28.875 5.06253 29.25 5.62503 29.25C6.18753 29.25 6.56253 28.875 6.56253 28.3125V26.0625C6.56253 25.5937 6.18753 25.125 5.62503 25.125Z" fill="white"/>
<path d="M50.625 35.5313C51.1875 35.5313 51.5625 35.1563 51.5625 34.5938V18.75C51.5625 18.1875 51.1875 17.8125 50.625 17.8125H9.375C8.8125 17.8125 8.4375 18.1875 8.4375 18.75V48.8438C8.4375 49.4062 8.8125 49.7812 9.375 49.7812C9.9375 49.7812 10.3125 49.4062 10.3125 48.8438V30.9375H49.6875V34.5938C49.6875 35.0625 50.0625 35.5313 50.625 35.5313ZM10.3125 29.0625V19.6875H49.6875V29.0625H10.3125Z" fill="white"/>
<path d="M46.875 21.5625H13.125C12.5625 21.5625 12.1875 21.9375 12.1875 22.5C12.1875 23.0625 12.5625 23.4375 13.125 23.4375H46.875C47.4375 23.4375 47.8125 23.0625 47.8125 22.5C47.8125 21.9375 47.4375 21.5625 46.875 21.5625ZM26.625 11.9062L30 10.4063L31.5 10.9687C31.9687 11.1562 32.5313 10.9688 32.7188 10.4063C32.9063 9.9375 32.7188 9.375 32.1562 9.1875L29.9062 8.25L25.7812 10.125C25.3125 10.3125 25.125 10.875 25.3125 11.3438C25.7812 12.1875 26.5312 12 26.625 11.9062ZM53.8125 37.6875C53.25 37.0313 52.4062 36.5625 51.5625 36.5625H44.0625V35.7188C44.0625 34.125 42.75 32.8125 41.1562 32.8125C40.5938 32.8125 40.2188 33.1875 40.2188 33.75C40.2188 34.3125 40.5938 34.6875 41.1562 34.6875C41.7188 34.6875 42.1875 35.1562 42.1875 35.7188V45.9375H26.25C25.6875 45.9375 25.3125 46.3125 25.3125 46.875C25.3125 47.4375 25.6875 47.8125 26.25 47.8125H42.1875V53.4375H30.8438C30.375 51.2812 28.5 49.6875 26.25 49.6875C24 49.6875 22.125 51.2812 21.6562 53.4375H20.7188C20.1562 53.4375 19.6875 52.9688 19.6875 52.4063V47.8125H22.5C23.0625 47.8125 23.4375 47.4375 23.4375 46.875C23.4375 46.3125 23.0625 45.9375 22.5 45.9375H19.6875V35.7188C19.6875 35.1562 20.1562 34.6875 20.7188 34.6875H37.2188C37.7812 34.6875 38.1562 34.3125 38.1562 33.75C38.1562 33.1875 37.7812 32.8125 37.2188 32.8125H20.7188C19.125 32.8125 17.8125 34.125 17.8125 35.7188V52.3125C17.8125 53.9062 19.125 55.2188 20.7188 55.2188H21.6562C21.8438 55.875 22.125 56.5313 22.5 57.0938H10.3125V52.4063C10.3125 51.8438 9.9375 51.4688 9.375 51.4688C8.8125 51.4688 8.4375 51.8438 8.4375 52.4063V57.0938H6.5625V32.1562C6.5625 31.5938 6.1875 31.2188 5.625 31.2188C5.0625 31.2188 4.6875 31.5938 4.6875 32.1562V57.1875H1.875C1.3125 57.1875 0.9375 57.5625 0.9375 58.125C0.9375 58.6875 1.3125 59.0625 1.875 59.0625H41.25C41.8125 59.0625 42.1875 58.6875 42.1875 58.125C42.1875 57.5625 41.8125 57.1875 41.25 57.1875H30C30.375 56.625 30.75 55.9688 30.8438 55.3125H46.0312C46.2188 55.9688 46.5 56.625 46.875 57.1875H45C44.4375 57.1875 44.0625 57.5625 44.0625 58.125C44.0625 58.6875 44.4375 59.0625 45 59.0625H58.125C58.6875 59.0625 59.0625 58.6875 59.0625 58.125C59.0625 57.5625 58.6875 57.1875 58.125 57.1875H54.375C54.75 56.625 55.125 55.9688 55.2188 55.3125H56.3438C57.8438 55.3125 59.0625 54.0938 59.0625 52.5938C59.0625 52.0312 58.6875 51.6562 58.125 51.6562C57.5625 51.6562 57.1875 52.0312 57.1875 52.5938C57.1875 53.0625 56.8125 53.4375 56.3438 53.4375H55.2188C54.75 51.2812 52.875 49.6875 50.625 49.6875C48.375 49.6875 46.5 51.2812 46.0312 53.4375H44.0625V38.4375H45.9375V45C45.9375 45.5625 46.3125 45.9375 46.875 45.9375H57.1875V49.5938C57.1875 50.1563 57.5625 50.5313 58.125 50.5313C58.6875 50.5313 59.0625 50.1563 59.0625 49.5938V44.625C59.0625 44.4375 53.8125 37.6875 53.8125 37.6875ZM26.25 57.1875C24.6562 57.1875 23.4375 55.9688 23.4375 54.375C23.4375 52.7812 24.6562 51.5625 26.25 51.5625C27.8438 51.5625 29.0625 52.7812 29.0625 54.375C29.0625 55.9688 27.8438 57.1875 26.25 57.1875ZM50.625 51.5625C52.2188 51.5625 53.4375 52.7812 53.4375 54.375C53.4375 55.9688 52.2188 57.1875 50.625 57.1875C49.0312 57.1875 47.8125 55.9688 47.8125 54.375C47.8125 52.7812 49.0312 51.5625 50.625 51.5625ZM47.8125 44.0625V38.4375H51.5625C51.8438 38.4375 52.125 38.625 52.3125 38.8125L56.25 44.0625H47.8125Z" fill="white"/>
<path d="M22.5 36.5625C21.9375 36.5625 21.5625 36.9375 21.5625 37.5V39.375C21.5625 39.9375 21.9375 40.3125 22.5 40.3125C23.0625 40.3125 23.4375 39.9375 23.4375 39.375V38.4375H24.375C24.9375 38.4375 25.3125 38.0625 25.3125 37.5C25.3125 36.9375 24.9375 36.5625 24.375 36.5625H22.5ZM39.375 51.5625C39.9375 51.5625 40.3125 51.1875 40.3125 50.625C40.3125 50.0625 39.9375 49.6875 39.375 49.6875H33.75C33.1875 49.6875 32.8125 50.0625 32.8125 50.625C32.8125 51.1875 33.1875 51.5625 33.75 51.5625H39.375ZM46.875 25.3125H13.125C12.5625 25.3125 12.1875 25.6875 12.1875 26.25C12.1875 26.8125 12.5625 27.1875 13.125 27.1875H46.875C47.4375 27.1875 47.8125 26.8125 47.8125 26.25C47.8125 25.6875 47.4375 25.3125 46.875 25.3125Z" fill="white"/>
<path d="M26.25 55.3125C26.7678 55.3125 27.1875 54.8928 27.1875 54.375C27.1875 53.8572 26.7678 53.4375 26.25 53.4375C25.7322 53.4375 25.3125 53.8572 25.3125 54.375C25.3125 54.8928 25.7322 55.3125 26.25 55.3125Z" fill="white"/>
<path d="M50.625 55.3125C51.1428 55.3125 51.5625 54.8928 51.5625 54.375C51.5625 53.8572 51.1428 53.4375 50.625 53.4375C50.1072 53.4375 49.6875 53.8572 49.6875 54.375C49.6875 54.8928 50.1072 55.3125 50.625 55.3125Z" fill="white"/>
</g>
<defs>
<clipPath id="clip0_827_247">
<rect width="60" height="60" fill="white"/>
</clipPath>
</defs>
</svg>
