<svg width="73" height="73" viewBox="0 0 73 73" fill="none" xmlns="http://www.w3.org/2000/svg">
<path fill-rule="evenodd" clip-rule="evenodd" d="M59.3695 67.5056C59.5664 67.3086 59.8336 67.198 60.1121 67.198C60.3906 67.198 60.6578 67.3086 60.8547 67.5056C61.0517 67.7025 61.1623 67.9697 61.1623 68.2482C61.1623 68.5267 61.0517 68.7939 60.8547 68.9908L57.713 72.1324C57.5161 72.3294 57.2489 72.44 56.9704 72.44C56.6919 72.44 56.4247 72.3294 56.2278 72.1324C56.0308 71.9354 55.9202 71.6683 55.9202 71.3898C55.9202 71.1112 56.0308 70.8441 56.2278 70.6471L59.3695 67.5056ZM14.611 57.8289C15.2807 58.4986 16.258 58.8564 17.1068 58.4366L34.0148 50.0744L67.8008 16.2885C69.017 15.1008 69.8908 13.6075 70.3304 11.9654L71.7953 6.73776C72.0444 5.89404 72.0583 4.9983 71.8356 4.14723C71.6129 3.29616 71.1619 2.52208 70.5315 1.90855C69.918 1.2781 69.1441 0.827138 68.2931 0.604332C67.4422 0.381527 66.5465 0.395339 65.7029 0.644279L60.4746 2.10959C58.8326 2.54926 57.3394 3.423 56.1517 4.63904L22.3657 38.425L14.0031 55.333C13.583 56.1819 13.9411 57.1591 14.6108 57.8289H14.611ZM67.2675 11.1052C67.1924 11.3728 67.0141 11.5997 66.7717 11.7358C66.5294 11.872 66.2429 11.9063 65.9752 11.8312C65.7076 11.7562 65.4807 11.5778 65.3446 11.3355C65.2084 11.0931 65.1741 10.8066 65.2492 10.539C65.3785 10.075 65.3821 9.58499 65.2598 9.11912C65.1375 8.65326 64.8935 8.22828 64.5529 7.88769C64.2123 7.5471 63.7874 7.30315 63.3215 7.18081C62.8556 7.05847 62.3656 7.06214 61.9016 7.19144C61.7686 7.23039 61.6291 7.24255 61.4913 7.22722C61.3535 7.2119 61.2202 7.16939 61.0989 7.10216C60.9777 7.03493 60.871 6.94432 60.785 6.83557C60.699 6.72682 60.6355 6.60209 60.598 6.4686C60.5606 6.33512 60.55 6.19554 60.5669 6.05794C60.5838 5.92033 60.6278 5.78745 60.6964 5.66697C60.765 5.5465 60.8568 5.44083 60.9665 5.35609C61.0762 5.27134 61.2017 5.20921 61.3356 5.17328C62.158 4.94213 63.0271 4.93418 63.8536 5.15024C64.68 5.3663 65.4341 5.79858 66.0381 6.40263C66.6422 7.00668 67.0745 7.76071 67.2905 8.58719C67.5066 9.41368 67.4986 10.2828 67.2675 11.1052ZM18.0282 42.4567L13.8246 50.9564L2.85851 45.2152C2.64929 45.1067 2.46867 44.9504 2.33135 44.7588C2.19404 44.5673 2.10392 44.346 2.06834 44.1131C2.03276 43.8801 2.05272 43.642 2.1266 43.4182C2.20049 43.1945 2.3262 42.9913 2.4935 42.8253L5.55629 39.7625C5.74239 39.5712 5.97719 39.4343 6.23536 39.3666C6.49353 39.299 6.76528 39.303 7.0213 39.3784L18.0282 42.4567ZM21.4836 58.6155L29.9833 54.412L33.0616 65.4189C33.137 65.6749 33.141 65.9466 33.0733 66.2047C33.0057 66.4629 32.8688 66.6976 32.6775 66.8837L29.6147 69.9465C29.4487 70.1138 29.2456 70.2395 29.0218 70.3134C28.798 70.3873 28.5599 70.4072 28.3269 70.3717C28.094 70.3361 27.8727 70.246 27.6812 70.1087C27.4896 69.9713 27.3333 69.7907 27.2248 69.5815L21.4836 58.6155ZM45.8953 11.9243L34.8562 22.9634L9.18468 10.1281C8.97135 10.0224 8.7863 9.86746 8.64491 9.67597C8.50351 9.48447 8.40985 9.26201 8.37171 9.02704C8.33356 8.79208 8.35203 8.55141 8.42559 8.32502C8.49914 8.09863 8.62565 7.89306 8.79461 7.72538L12.5903 3.92971C12.7736 3.74122 13.0043 3.60554 13.2581 3.53691C13.512 3.46828 13.7796 3.46922 14.0329 3.53964L45.8953 11.9243ZM49.4766 37.5838L60.5157 26.5447L68.9001 58.4074C68.9705 58.6607 68.9714 58.9283 68.9028 59.1821C68.8341 59.4359 68.6985 59.6666 68.51 59.8499L64.7143 63.6455C64.5467 63.8145 64.3411 63.9411 64.1147 64.0146C63.8883 64.0882 63.6476 64.1067 63.4126 64.0686C63.1777 64.0304 62.9552 63.9367 62.7637 63.7953C62.5722 63.6539 62.4172 63.4688 62.3116 63.2555L49.4766 37.5838ZM72.0017 40.5931C72.2824 40.8748 72.44 41.2562 72.44 41.6539C72.44 42.0516 72.2824 42.433 72.0017 42.7147L67.996 46.7204L65.4277 36.9602L65.8374 36.5504C66.1192 36.2698 66.5006 36.1123 66.8983 36.1123C67.2959 36.1123 67.6774 36.2698 67.9591 36.5504L72.0017 40.5931ZM31.8469 0.438292L35.8903 4.48031C36.171 4.76201 36.3286 5.14348 36.3286 5.54115C36.3286 5.93882 36.171 6.32028 35.8903 6.60198L35.4806 7.01186L25.7197 4.444L29.7254 0.438292C30.0071 0.157604 30.3886 0 30.7863 0C31.1839 0 31.5654 0.157604 31.8471 0.438292H31.8469ZM3.44947 11.5853C3.64642 11.3883 3.91356 11.2777 4.1921 11.2777C4.47064 11.2777 4.73777 11.3883 4.93473 11.5853C5.13169 11.7822 5.24234 12.0494 5.24234 12.3279C5.24234 12.6064 5.13169 12.8736 4.93473 13.0705L1.79317 16.2122C1.59621 16.4092 1.32908 16.5198 1.05054 16.5198C0.771999 16.5198 0.504866 16.4092 0.307908 16.2122C0.11095 16.0153 0.000300181 15.7481 0.000300175 15.4696C0.000300168 15.1911 0.11095 14.9239 0.307908 14.727L3.44947 11.5853ZM16.6544 18.1876C16.8513 17.9907 17.1184 17.88 17.397 17.88C17.6755 17.88 17.9427 17.9907 18.1396 18.1876C18.3366 18.3846 18.4472 18.6517 18.4472 18.9303C18.4472 19.2088 18.3366 19.4759 18.1396 19.6729L1.79287 36.0195C1.69535 36.117 1.57957 36.1944 1.45215 36.2472C1.32473 36.2999 1.18816 36.3271 1.05024 36.3271C0.91232 36.3271 0.775751 36.2999 0.64833 36.2472C0.520909 36.1944 0.405132 36.117 0.307608 36.0195C0.210084 35.922 0.132724 35.8062 0.0799447 35.6788C0.0271652 35.5514 0 35.4148 0 35.2769C0 35.1389 0.0271652 35.0024 0.0799447 34.875C0.132724 34.7475 0.210084 34.6318 0.307608 34.5342L16.6544 18.1881V18.1876ZM52.767 54.3007C52.8645 54.2032 52.9803 54.1258 53.1077 54.073C53.2351 54.0202 53.3717 53.9931 53.5096 53.9931C53.6475 53.9931 53.7841 54.0202 53.9115 54.073C54.0389 54.1258 54.1547 54.2032 54.2522 54.3007C54.3497 54.3982 54.4271 54.514 54.4799 54.6414C54.5327 54.7688 54.5598 54.9054 54.5598 55.0433C54.5598 55.1812 54.5327 55.3178 54.4799 55.4452C54.4271 55.5726 54.3497 55.6884 54.2522 55.7859L37.9055 72.1321C37.7085 72.3291 37.4414 72.4397 37.1628 72.4397C36.8843 72.4397 36.6172 72.3291 36.4202 72.1321C36.2233 71.9351 36.1126 71.668 36.1126 71.3895C36.1126 71.1109 36.2233 70.8438 36.4202 70.6468L52.767 54.3007Z" fill="black"/>
<path fill-rule="evenodd" clip-rule="evenodd" d="M45.8955 11.9243L34.8563 22.9634L9.18485 10.128C8.97152 10.0224 8.78647 9.86742 8.64508 9.67593C8.50368 9.48443 8.41002 9.26197 8.37187 9.027C8.33373 8.79204 8.3522 8.55137 8.42575 8.32498C8.49931 8.09859 8.62582 7.89302 8.79478 7.72534L12.5905 3.92967C12.7738 3.74118 13.0045 3.6055 13.2583 3.53687C13.5121 3.46824 13.7798 3.46918 14.0331 3.5396L45.8955 11.9243ZM49.4767 37.5838L60.5158 26.5447L68.9002 58.4073C68.9706 58.6606 68.9716 58.9282 68.9029 59.182C68.8343 59.4359 68.6986 59.6665 68.5102 59.8498L64.7145 63.6455C64.5468 63.8145 64.3413 63.941 64.1149 64.0146C63.8885 64.0882 63.6478 64.1067 63.4128 64.0685C63.1778 64.0304 62.9554 63.9367 62.7639 63.7953C62.5724 63.6539 62.4174 63.4688 62.3118 63.2554L49.4767 37.5838Z" fill="#FF5C01"/>
</svg>
