<svg width="60" height="46" viewBox="0 0 60 46" fill="none" xmlns="http://www.w3.org/2000/svg">
<path d="M54.8004 21.6766L50.0993 14.625H40.0383L40.6941 8.40625H36.4015C35.9589 3.93871 32.1797 0.4375 27.5978 0.4375C23.0159 0.4375 19.2367 3.93871 18.7941 8.40625H7.91016V10.1641H18.7939C19.2366 14.6316 23.0157 18.1328 27.5977 18.1328C32.1796 18.1328 35.9588 14.6316 36.4014 10.1641H38.6419L35.3994 33.0234H18.9806C15.7604 28.0202 8.48977 28.0321 5.27707 33.0234H0V38.2969H4.03254C4.47234 42.3758 7.935 45.5625 12.1289 45.5625C16.3228 45.5625 19.7855 42.3758 20.2253 38.2969H36.9622C37.402 42.3758 40.8647 45.5625 45.0586 45.5625C49.2525 45.5625 52.7152 42.3758 53.155 38.2969H60V27.3398C60 24.3688 57.7088 21.923 54.8004 21.6766ZM27.5977 16.375C23.6883 16.375 20.5078 13.1944 20.5078 9.28516C20.5078 5.3759 23.6883 2.19531 27.5977 2.19531C31.507 2.19531 34.6875 5.3759 34.6875 9.28516C34.6875 13.1944 31.507 16.375 27.5977 16.375ZM4.03254 36.5391H1.75781V34.7812H4.42488C4.22897 35.3507 4.09737 35.9403 4.03254 36.5391ZM12.1289 43.8047C8.6073 43.8047 5.74219 40.9397 5.74219 37.418C5.74219 33.8963 8.6073 31.0312 12.1289 31.0312C15.6505 31.0312 18.5156 33.8963 18.5156 37.418C18.5156 40.9397 15.6505 43.8047 12.1289 43.8047ZM43.9282 16.3828H49.1586L52.6743 21.6562H43.0493L43.9282 16.3828ZM36.9622 36.5391H20.2253C20.1604 35.9403 20.0288 35.3507 19.8329 34.7812H37.3546C37.1587 35.3507 37.0271 35.9403 36.9622 36.5391ZM45.0586 43.8047C41.537 43.8047 38.6719 40.9397 38.6719 37.418C38.6719 33.8963 41.537 31.0312 45.0586 31.0312C48.5802 31.0312 51.4453 33.8963 51.4453 37.418C51.4453 40.9397 48.5802 43.8047 45.0586 43.8047ZM58.2422 36.5391H53.155C53.0901 35.9403 52.9585 35.3507 52.7626 34.7812H58.2422V36.5391ZM58.2422 33.0234H51.9103C48.6901 28.0202 41.4195 28.0321 38.2068 33.0234H37.1783L39.7649 16.3828H42.1459L40.974 23.4141H54.3163C56.1787 23.4141 57.7413 24.7182 58.1416 26.4609H55.0195C53.5656 26.4609 52.3828 27.6438 52.3828 29.0977C52.3828 30.5515 53.5656 31.7344 55.0195 31.7344H58.2422V33.0234ZM58.2422 29.9766H55.0195C53.8563 29.9766 53.8575 28.2188 55.0195 28.2188H58.2422V29.9766ZM1.81641 14.8594H3.57422V16.6172H1.81641V14.8594Z" fill="white"/>
<path d="M1.81641 14.8594H3.57422V16.6172H1.81641V14.8594Z" fill="#FF5C01"/>
<path d="M5.33203 14.8594H13.1836V16.6172H5.33203V14.8594ZM5.44922 19.1367H7.20703V20.8945H5.44922V19.1367ZM8.96484 19.1367H19.043V20.8945H8.96484V19.1367ZM3.69141 23.4141H13.7695V25.1719H3.69141V23.4141ZM0.175781 23.4141H1.93359V25.1719H0.175781V23.4141ZM12.1289 34.7812C10.675 34.7812 9.49219 35.9641 9.49219 37.418C9.49219 38.8718 10.675 40.0547 12.1289 40.0547C13.5829 40.0547 14.7656 38.8718 14.7656 37.418C14.7656 35.9641 13.5829 34.7812 12.1289 34.7812ZM11.25 37.418C11.25 36.2548 13.0078 36.2559 13.0078 37.418C13.0078 37.9027 11.25 38.58 11.25 37.418ZM45.0586 34.7812C43.6046 34.7812 42.4219 35.9641 42.4219 37.418C42.4219 38.8718 43.6046 40.0547 45.0586 40.0547C46.5125 40.0547 47.6953 38.8718 47.6953 37.418C47.6953 35.9641 46.5125 34.7812 45.0586 34.7812ZM45.0586 38.2969C43.8954 38.2969 43.8966 36.5391 45.0586 36.5391C46.2218 36.5391 46.2206 38.2969 45.0586 38.2969ZM27.5938 6.24609H25.8359V12.6328H29.9961V10.875H27.5938V6.24609Z" fill="#FF5C01"/>
</svg>
