<svg width="52" height="60" viewBox="0 0 52 60" fill="none" xmlns="http://www.w3.org/2000/svg">
<path d="M27.9007 57.0197C27.9075 57.2368 27.8224 57.4475 27.6641 57.6055C27.5059 57.7636 27.2875 57.856 27.0569 57.8624C26.8077 57.8692 26.5585 57.8726 26.3092 57.8727C19.2814 57.8727 12.6744 55.2966 7.70553 50.6187C2.73668 45.9408 0 39.7208 0 33.1047C0 28.3301 1.44595 23.6951 4.18152 19.7006C6.84538 15.8107 10.5953 12.7065 15.0262 10.7234C15.2339 10.6343 15.4705 10.6256 15.6849 10.6992C15.8994 10.7729 16.0745 10.9229 16.1725 11.117C16.2705 11.3111 16.2835 11.5337 16.2088 11.7367C16.134 11.9398 15.9775 12.107 15.7729 12.2024C7.24819 16.0179 1.73985 24.2226 1.73985 33.1047C1.73985 45.8588 12.7616 56.2349 26.3094 56.2349C26.5502 56.235 26.7911 56.2317 27.0318 56.2249C27.258 56.2251 27.4752 56.3082 27.6374 56.4565C27.7996 56.6049 27.894 56.8069 27.9007 57.0197ZM34.5585 14.0699C34.4525 14.0279 34.3388 14.0061 34.2238 14.0058C34.1088 14.0055 33.9949 14.0266 33.8887 14.0679C33.7825 14.1093 33.686 14.1701 33.6048 14.2468C33.5237 14.3234 33.4595 14.4145 33.416 14.5147C33.3725 14.6148 33.3505 14.7221 33.3513 14.8304C33.3521 14.9386 33.3756 15.0456 33.4206 15.1452C33.4656 15.2448 33.5312 15.335 33.6134 15.4106C33.6957 15.4862 33.793 15.5458 33.8999 15.5857C34.7458 15.9108 35.5671 16.29 36.358 16.7207C37.6208 17.407 38.7999 18.2216 39.874 19.15C37.6855 22.3947 37.3084 25.4371 38.7909 27.9817C41.4405 32.5322 42.544 34.6682 40.9318 37.6165C40.8286 37.8094 40.8105 38.0328 40.8814 38.2382C40.9523 38.4436 41.1066 38.6143 41.3105 38.7132C41.5145 38.812 41.7517 38.831 41.9705 38.766C42.1893 38.701 42.3719 38.5572 42.4786 38.366C44.5816 34.5197 42.8848 31.6056 40.3163 27.1943C38.9626 24.8708 39.887 22.3106 41.1371 20.3422C45.6092 24.9634 47.4883 31.5177 45.7823 37.7881C45.7494 37.9091 45.7462 38.0356 45.7732 38.1579C45.8001 38.2802 45.8565 38.395 45.9379 38.4937C46.0192 38.5924 46.1235 38.6722 46.2427 38.7271C46.3619 38.7819 46.4929 38.8104 46.6255 38.8103C46.8186 38.8101 47.006 38.7495 47.1585 38.638C47.3109 38.5265 47.4196 38.3705 47.4675 38.1945C48.6267 33.9342 48.2793 29.3374 46.4892 25.2508C44.6405 21.0299 41.4379 17.5897 37.2292 15.3029C36.3698 14.8352 35.4775 14.4232 34.5585 14.0699ZM21.2718 35.835C22.3795 37.873 23.8968 40.6643 24.0896 44.3126C24.2501 47.3428 22.6657 49.5891 19.4833 50.8999C21.8902 51.7209 24.442 52.0995 27.0005 52.0152C27.4837 51.9974 27.8835 52.3527 27.9005 52.8047C27.9045 52.9122 27.886 53.0194 27.8461 53.1201C27.8061 53.2208 27.7455 53.3132 27.6676 53.3919C27.5897 53.4706 27.4961 53.534 27.3922 53.5786C27.2883 53.6233 27.176 53.6482 27.0618 53.652C26.8062 53.6604 26.5506 53.6646 26.2954 53.6646C22.9518 53.6647 19.6578 52.9385 16.6544 51.5432C16.6405 51.5366 16.6267 51.5304 16.6133 51.5233C16.1991 51.33 15.7914 51.1245 15.3909 50.9072C10.339 48.1619 6.72513 43.7292 5.21495 38.4256C3.70488 33.1219 4.47927 27.5819 7.39545 22.826C9.21995 19.8533 11.8187 17.3426 14.9109 15.5646C15.1076 15.4556 15.342 15.4237 15.5635 15.4759C15.785 15.5281 15.9758 15.6601 16.0948 15.8436C16.2138 16.027 16.2514 16.2471 16.1996 16.4564C16.1477 16.6657 16.0105 16.8475 15.8176 16.9624C13.5223 18.2821 11.5228 20.0418 9.95363 22.1092C11.3011 23.1713 13.805 24.2904 17.7438 22.9806C21.8872 21.6044 26.3376 21.9948 29.3576 24C31.185 25.2131 32.1945 26.8669 32.2006 28.6565C32.2045 29.5801 31.9209 30.2789 31.3575 30.7329C30.312 31.5761 28.6969 31.3328 26.8266 31.0513C24.8383 30.752 22.5847 30.4129 20.9625 31.3963C19.5266 32.2672 19.739 33.0149 21.2718 35.835ZM20.0208 30.0194C22.2022 28.6968 24.9184 29.1054 27.1014 29.434C28.3625 29.6238 29.7918 29.8389 30.2262 29.489C30.4225 29.3306 30.4624 28.952 30.461 28.6623C30.4569 27.4173 29.7089 26.2371 28.3552 25.3383C25.8268 23.6596 21.8891 23.3403 18.323 24.5248C14.7719 25.7058 11.4376 25.3215 9.00024 23.4906C8.96788 23.5423 8.93389 23.593 8.90203 23.6451C6.21837 28.0218 5.50573 33.1205 6.89554 38.0016C8.28523 42.8827 11.6112 46.9622 16.2606 49.489C16.5513 49.6459 16.8461 49.7959 17.1447 49.939C20.7463 49.0113 22.4982 47.1471 22.3523 44.3942C22.1779 41.0973 20.817 38.5933 19.7233 36.5813C18.3816 34.1129 17.1144 31.7816 20.0208 30.0194ZM51.15 42.321V57.7136C51.15 58.9419 50.0883 59.9414 48.7835 59.9414H31.6304C30.3274 59.9414 29.2672 58.9419 29.2672 57.7136V42.321C29.2672 41.0945 30.3273 40.0964 31.6304 40.0964H48.7835C50.0883 40.0964 51.15 41.0944 51.15 42.321ZM37.0394 50.271C37.0394 50.3328 37.0986 50.3869 37.1661 50.3869H43.2513C43.3176 50.3869 43.378 50.3316 43.378 50.271V41.7344H37.0392L37.0394 50.271ZM49.4103 42.321C49.4103 41.9974 49.1292 41.7342 48.7835 41.7342H45.1177V50.2709C45.1177 51.2379 44.2803 52.0246 43.2513 52.0246H37.1661C36.1369 52.0246 35.2997 51.2379 35.2997 50.2709V41.7342H31.6304C31.2925 41.7342 31.007 42.0028 31.007 42.321V57.7136C31.007 58.039 31.2866 58.3036 31.6304 58.3036H48.7835C48.9497 58.3035 49.109 58.2412 49.2265 58.1306C49.344 58.02 49.4101 57.87 49.4103 57.7136V42.321Z" fill="white"/>
<path d="M51.15 42.321V57.7136C51.15 58.9419 50.0883 59.9414 48.7835 59.9414H31.6304C30.3274 59.9414 29.2672 58.9419 29.2672 57.7136V42.321C29.2672 41.0945 30.3273 40.0964 31.6304 40.0964H48.7835C50.0883 40.0964 51.15 41.0944 51.15 42.321ZM37.0394 50.271C37.0394 50.3328 37.0986 50.3869 37.1661 50.3869H43.2513C43.3176 50.3869 43.378 50.3316 43.378 50.271V41.7344H37.0392L37.0394 50.271ZM49.4103 42.321C49.4103 41.9975 49.1292 41.7342 48.7835 41.7342H45.1177V50.2709C45.1177 51.2379 44.2803 52.0246 43.2513 52.0246H37.1661C36.1369 52.0246 35.2996 51.2379 35.2996 50.2709V41.7342H31.6304C31.2925 41.7342 31.007 42.0028 31.007 42.321V57.7136C31.007 58.039 31.2865 58.3036 31.6304 58.3036H48.7835C48.9497 58.3035 49.109 58.2413 49.2265 58.1306C49.344 58.02 49.4101 57.87 49.4103 57.7136V42.321Z" fill="white"/>
<path d="M37.1661 50.3868C37.0986 50.3868 37.0394 50.3327 37.0394 50.271L37.0392 41.7343L35.2996 41.7342V50.2708C35.2996 51.2379 36.1369 52.0245 37.1661 52.0245H43.2513C44.2803 52.0245 45.1177 51.2379 45.1177 50.2708V41.7342L43.378 41.7343V50.271C43.378 50.3315 43.3176 50.3868 43.2513 50.3868H37.1661Z" fill="#FF5C01"/>
<path d="M17.738 13.133L18.639 9.67277L17.738 6.21246C17.7064 6.09138 17.7031 5.96469 17.7281 5.8421C17.7532 5.71952 17.806 5.60431 17.8825 5.50531C17.959 5.40631 18.0572 5.32617 18.1695 5.27102C18.2818 5.21587 18.4053 5.1872 18.5304 5.18719H20.2543C20.3836 5.1872 20.5109 5.21778 20.6261 5.27644C20.7412 5.33509 20.8408 5.42016 20.9168 5.52469L22.1966 7.28578H26.9787L24.1852 1.22004C24.1276 1.09528 24.1024 0.958048 24.1119 0.82099C24.1213 0.683932 24.1651 0.551455 24.2392 0.435762C24.3133 0.32007 24.4153 0.224882 24.5358 0.15897C24.6564 0.0930569 24.7916 0.0585383 24.929 0.0585938H27.465C27.5943 0.0585929 27.7217 0.0891949 27.8369 0.147896C27.952 0.206597 28.0516 0.29173 28.1276 0.396328L33.1303 7.28578H38.3257C39.6437 7.28578 40.716 8.35664 40.716 9.67277C40.716 10.9908 39.6437 12.0632 38.3257 12.0632H33.1302L28.1276 18.9493C28.0516 19.0539 27.952 19.139 27.8368 19.1977C27.7217 19.2564 27.5943 19.2869 27.465 19.287H24.9288C24.7915 19.2869 24.6564 19.2523 24.5359 19.1863C24.4154 19.1204 24.3134 19.0252 24.2394 18.9095C24.1653 18.7939 24.1215 18.6614 24.112 18.5244C24.1025 18.3874 24.1276 18.2502 24.185 18.1254L26.9783 12.0632H22.196L20.9163 13.8212C20.8404 13.9256 20.7408 14.0105 20.6257 14.0691C20.5106 14.1277 20.3833 14.1582 20.2542 14.1582H18.5304C18.4053 14.1582 18.2818 14.1295 18.1695 14.0744C18.0572 14.0193 17.959 13.9392 17.8825 13.8402C17.806 13.7412 17.7532 13.6259 17.7282 13.5033C17.7031 13.3808 17.7065 13.2541 17.738 13.133ZM20.2777 9.87914L19.5899 12.5204H19.8376L21.1173 10.7624C21.1933 10.658 21.2929 10.573 21.408 10.5145C21.523 10.4559 21.6503 10.4254 21.7794 10.4254H28.2573C28.3947 10.4254 28.5298 10.46 28.6503 10.526C28.7708 10.5919 28.8727 10.6871 28.9468 10.8028C29.0209 10.9184 29.0647 11.0509 29.0741 11.1879C29.0836 11.3249 29.0585 11.4621 29.0011 11.5869L26.2078 17.6491H27.0478L32.0506 10.763C32.1265 10.6584 32.2261 10.5733 32.3412 10.5146C32.4564 10.4559 32.5838 10.4253 32.713 10.4254H38.3257C38.5252 10.4251 38.7165 10.3457 38.8575 10.2046C38.9986 10.0636 39.078 9.87228 39.0782 9.67277C39.0782 9.25969 38.7407 8.92359 38.3257 8.92359H32.713C32.5838 8.9236 32.4563 8.89299 32.3412 8.83429C32.226 8.77559 32.1264 8.69046 32.0504 8.58586L27.0477 1.69641H26.2076L29.0011 7.76215C29.0586 7.88691 29.0838 8.02414 29.0744 8.1612C29.0649 8.29825 29.0212 8.43073 28.9471 8.54643C28.873 8.66212 28.771 8.7573 28.6504 8.82322C28.5299 8.88913 28.3947 8.92365 28.2573 8.92359H21.7794C21.6502 8.92358 21.5228 8.893 21.4077 8.83434C21.2926 8.77569 21.1929 8.69062 21.117 8.58609L19.8372 6.825H19.5899L20.2777 9.46641C20.3129 9.60172 20.3129 9.74382 20.2777 9.87914Z" fill="#FF5C01"/>
</svg>
