<?xml version="1.0" encoding="UTF-8"?>
<svg version="1.1" xmlns="http://www.w3.org/2000/svg" width="128" height="128">
<path d="M0 0 C0.83096191 -0.00945648 1.66192383 -0.01891296 2.51806641 -0.02865601 C3.41187012 -0.02258331 4.30567383 -0.01651062 5.2265625 -0.01025391 C6.14743652 -0.01312408 7.06831055 -0.01599426 8.01708984 -0.01895142 C9.96387344 -0.02099272 11.91067752 -0.01545824 13.85742188 -0.00292969 C16.84030949 0.01312303 19.82184211 -0.00277613 22.8046875 -0.02197266 C24.6953155 -0.01999024 26.58594265 -0.01614659 28.4765625 -0.01025391 C29.37036621 -0.0163266 30.26416992 -0.02239929 31.18505859 -0.02865601 C32.43150146 -0.01447128 32.43150146 -0.01447128 33.703125 0 C34.79874756 0.00358017 34.79874756 0.00358017 35.91650391 0.00723267 C38.42877151 0.50181752 39.2956645 1.38580063 40.8515625 3.38818359 C42.61341433 9.55466501 41.15062161 14.59495976 38.8515625 20.38818359 C37.8615625 21.87318359 37.8615625 21.87318359 36.8515625 23.38818359 C40.26292726 23.44977779 40.26292726 23.44977779 43.8515625 22.38818359 C45.81339875 18.97809725 45.81339875 18.97809725 46.8515625 15.38818359 C47.8515625 14.38818359 47.8515625 14.38818359 50.4140625 14.32568359 C51.2184375 14.34630859 52.0228125 14.36693359 52.8515625 14.38818359 C54.25909288 16.66507097 54.9057761 17.9070379 54.6015625 20.60693359 C53.21347318 24.82903862 52.31693333 26.99067934 48.8515625 29.95068359 C45.8515625 31.38818359 45.8515625 31.38818359 42.8515625 31.38818359 C42.8515625 32.04818359 42.8515625 32.70818359 42.8515625 33.38818359 C43.43292969 33.64212891 44.01429687 33.89607422 44.61328125 34.15771484 C54.4490512 39.56481351 59.41655452 51.92082579 62.73046875 62.08349609 C65.48644381 73.76266315 64.79506144 85.93935226 59.1640625 96.57568359 C50.8367616 106.70348199 41.64183033 110.66110985 28.8515625 112.38818359 C24.90887201 112.66798743 20.99074764 112.72271367 17.0390625 112.70068359 C15.99097412 112.69576904 14.94288574 112.69085449 13.86303711 112.68579102 C0.38079928 112.48266683 -11.62816776 110.46529781 -21.9609375 101.20068359 C-29.223253 93.5171201 -30.47046278 83.27581278 -30.35546875 73.17724609 C-29.50726401 57.65349894 -22.73337533 43.79098491 -11.1484375 33.38818359 C-7.59660455 30.83343699 -3.95745867 28.53832264 -0.1484375 26.38818359 C-0.55835937 25.90349609 -0.96828125 25.41880859 -1.390625 24.91943359 C-6.18778008 18.95168087 -8.34719913 14.42967009 -7.9609375 6.57568359 C-6.73820158 1.77879653 -4.97422092 0.01625428 0 0 Z M0.8515625 8.38818359 C1.92838268 16.09680791 1.92838268 16.09680791 6.8515625 21.38818359 C12.19358302 24.32836543 16.91592732 24.91431629 22.7734375 23.25537109 C26.85762584 21.55106694 29.70221666 19.05995936 32.2265625 15.38818359 C33.10012499 12.94201392 33.10012499 12.94201392 32.8515625 8.38818359 C22.2915625 8.38818359 11.7315625 8.38818359 0.8515625 8.38818359 Z M-10.05859375 44.49365234 C-18.29985473 54.65962395 -23.45784948 67.07582851 -22.1484375 80.38818359 C-20.80576087 87.89991502 -18.03982431 93.43666783 -12.1484375 98.38818359 C0.67504534 106.51778781 19.12914484 105.94950015 33.5390625 103.13818359 C41.8762509 101.0610986 48.16580925 97.84279103 52.8515625 90.38818359 C57.7861252 79.01642819 56.04029921 68.05404454 51.85546875 56.68115234 C46.59410213 45.12071011 38.4989931 38.12760355 26.8515625 33.38818359 C13.25738387 28.85679072 -0.77717591 34.26321427 -10.05859375 44.49365234 Z " fill="#FFFFFF" transform="translate(47.1484375,7.61181640625)"/>
<path d="M0 0 C4.3580422 0.35335477 6.1555464 1.77628592 9 5 C9.556875 5.474375 10.11375 5.94875 10.6875 6.4375 C12.48208669 8.57391272 12.79304434 10.24059115 13 13 C12.01 14.485 12.01 14.485 11 16 C8.0625 15.625 8.0625 15.625 5 15 C4.67 14.34 4.34 13.68 4 13 C2.02463255 13.34786708 2.02463255 13.34786708 0 14 C-0.33 14.66 -0.66 15.32 -1 16 C-0.40832031 16.09796875 0.18335938 16.1959375 0.79296875 16.296875 C5.84834148 17.25351976 9.24766735 18.24766735 13 22 C14.42662219 24.85324437 14.31033868 26.83454549 14 30 C12.17680876 32.93012878 11.02957119 34.6282104 7.75 35.8125 C7.1725 35.874375 6.595 35.93625 6 36 C5.505 38.475 5.505 38.475 5 41 C3.02 41 1.04 41 -1 41 C-1.33 39.68 -1.66 38.36 -2 37 C-2.598125 36.9175 -3.19625 36.835 -3.8125 36.75 C-6.70686231 35.75764721 -7.57987775 34.69075795 -9 32 C-8.58974359 27.58974359 -8.58974359 27.58974359 -7 26 C-5.33382885 25.95936168 -3.66611905 25.957279 -2 26 C-1.67 26.99 -1.34 27.98 -1 29 C0.98 28.67 2.96 28.34 5 28 C5 27.34 5 26.68 5 26 C4.33613281 25.84144531 3.67226562 25.68289062 2.98828125 25.51953125 C-2.52893896 24.06169642 -6.59080106 22.88651848 -10 18 C-10.55878277 14.08852059 -10.23182354 11.28900312 -8 8 C-5 6 -5 6 -2 6 C-1.855625 5.195625 -1.71125 4.39125 -1.5625 3.5625 C-1 1 -1 1 0 0 Z " fill="#FFFFFF" transform="translate(62,55)"/>
</svg>
