<svg width="60" height="60" viewBox="0 0 60 60" fill="none" xmlns="http://www.w3.org/2000/svg">
<path d="M27.0331 55.8723C26.91 55.872 26.7886 55.845 26.677 55.7932L2.12316 43.9778C1.98447 43.9107 1.86755 43.8058 1.78589 43.6752C1.70424 43.5445 1.66116 43.3934 1.66162 43.2394V16.8657C1.66588 16.7328 1.70304 16.603 1.76978 16.4879C1.83652 16.3728 1.93075 16.2761 2.04404 16.2064C2.15972 16.1316 2.29278 16.0881 2.43027 16.08C2.56777 16.0719 2.70502 16.0995 2.82866 16.1602L27.3693 27.9163C27.508 27.9834 27.6249 28.0883 27.7066 28.219C27.7882 28.3496 27.8313 28.5007 27.8309 28.6547V55.0613C27.8266 55.1943 27.7894 55.3241 27.7227 55.4392C27.656 55.5542 27.5617 55.651 27.4484 55.7207C27.327 55.8094 27.183 55.8619 27.0331 55.8723ZM3.29679 42.7317L26.1957 53.7624V29.1624L3.29679 18.1317V42.7317Z" fill="#0E313A"/>
<path d="M27.0331 29.4529C26.9092 29.4536 26.787 29.4242 26.677 29.3672L2.12316 17.5584C1.98447 17.4913 1.86755 17.3864 1.78589 17.2558C1.70424 17.1251 1.66116 16.974 1.66162 16.82C1.66162 16.6669 1.70496 16.5169 1.78664 16.3874C1.86831 16.2578 1.98499 16.1541 2.12316 16.0881L26.6704 4.2991C26.7798 4.24402 26.9007 4.21533 27.0232 4.21533C27.1457 4.21533 27.2665 4.24402 27.3759 4.2991L51.91 16.1079C52.0476 16.1761 52.1634 16.2813 52.2443 16.4118C52.3253 16.5423 52.3682 16.6928 52.3682 16.8464C52.3682 16.9999 52.3253 17.1504 52.2443 17.2809C52.1634 17.4114 52.0476 17.5166 51.91 17.5848L27.3693 29.3672C27.2653 29.4212 27.1502 29.4505 27.0331 29.4529ZM4.35833 16.82L27.0331 27.7321L49.6748 16.8464L27.0331 5.93426L4.35833 16.82Z" fill="#0E313A"/>
<path d="M27.0329 55.8726C26.8788 55.8737 26.7277 55.8302 26.5978 55.7473C26.4845 55.6776 26.3902 55.5809 26.3235 55.4658C26.2568 55.3507 26.2196 55.2209 26.2153 55.088V28.655C26.2164 28.5013 26.2601 28.3508 26.3416 28.2205C26.4231 28.0901 26.5391 27.9849 26.6769 27.9165L51.1978 16.1012C51.3214 16.0405 51.4586 16.0128 51.5961 16.0209C51.7336 16.029 51.8667 16.0725 51.9824 16.1473C52.0957 16.217 52.1899 16.3137 52.2566 16.4288C52.3234 16.5439 52.3605 16.6737 52.3648 16.8067V28.6088C52.375 28.7219 52.3615 28.8359 52.3252 28.9435C52.2889 29.0511 52.2306 29.15 52.154 29.2338C52.0774 29.3176 51.9842 29.3845 51.8803 29.4303C51.7764 29.4761 51.664 29.4998 51.5505 29.4998C51.4369 29.4998 51.3246 29.4761 51.2207 29.4303C51.1168 29.3845 51.0236 29.3176 50.947 29.2338C50.8704 29.15 50.8121 29.0511 50.7758 28.9435C50.7395 28.8359 50.726 28.7219 50.7362 28.6088V18.1319L27.8307 29.1627V53.7627L41.2681 47.288C41.4674 47.1944 41.6958 47.1839 41.9029 47.2587C42.11 47.3335 42.2789 47.4875 42.3725 47.6869C42.466 47.8862 42.4766 48.1146 42.4018 48.3217C42.3269 48.5288 42.1729 48.6977 41.9736 48.7913L27.3692 55.7935C27.2637 55.8426 27.1492 55.8695 27.0329 55.8726Z" fill="#0E313A"/>
<path d="M19.4704 39.7846C19.3423 39.7856 19.2157 39.7563 19.1011 39.699C18.9865 39.6417 18.8871 39.558 18.8111 39.4549L13.7803 32.6439L9.8902 34.8329C9.76649 34.9028 9.62681 34.9396 9.48471 34.9396C9.34261 34.9396 9.20293 34.9028 9.07922 34.8329C8.95608 34.7611 8.85406 34.658 8.78345 34.5341C8.71284 34.4103 8.67613 34.27 8.67702 34.1274V20.189C8.67701 20.0358 8.72035 19.8858 8.80203 19.7563C8.88371 19.6268 9.00038 19.5231 9.13856 19.4571L22.6419 12.9164C22.7517 12.8628 22.8724 12.835 22.9946 12.835C23.1168 12.835 23.2375 12.8628 23.3473 12.9164L33.3627 17.7296C33.5006 17.7967 33.6168 17.9012 33.6981 18.0312C33.7795 18.1612 33.8226 18.3114 33.8226 18.4648C33.8226 18.6181 33.7795 18.7684 33.6981 18.8984C33.6168 19.0283 33.5006 19.1329 33.3627 19.1999L20.288 25.5098V38.967C20.2874 39.1389 20.2331 39.3064 20.1326 39.4459C20.0321 39.5854 19.8905 39.69 19.7276 39.745C19.6443 39.771 19.5576 39.7843 19.4704 39.7846ZM14.0045 30.7648C14.1324 30.7648 14.2586 30.7946 14.3731 30.8518C14.4875 30.909 14.5871 30.9921 14.6638 31.0945L18.6528 36.4945V25.0021C18.653 24.8474 18.697 24.6958 18.7799 24.5651C18.8628 24.4344 18.981 24.3298 19.121 24.2637L31.1276 18.4615L22.9847 14.5516L10.299 20.7032V32.7296L13.5957 30.8703C13.7199 30.7987 13.8612 30.7623 14.0045 30.7648Z" fill="#0E313A"/>
<path d="M32.1825 47.565C31.9995 47.5617 31.8229 47.4971 31.6809 47.3815C31.539 47.2659 31.4399 47.106 31.3997 46.9275C31.3594 46.7489 31.3802 46.562 31.4588 46.3966C31.5374 46.2313 31.6692 46.0971 31.8331 46.0156L36.5078 43.754C36.7041 43.6626 36.9283 43.6513 37.1328 43.7228C37.3372 43.7942 37.5057 43.9426 37.6023 44.1365C37.6492 44.2329 37.6765 44.3377 37.6827 44.4448C37.6888 44.5518 37.6737 44.6591 37.6381 44.7602C37.6026 44.8614 37.5473 44.9545 37.4755 45.0342C37.4037 45.1139 37.3168 45.1785 37.2199 45.2244L32.5386 47.4727C32.428 47.5291 32.3065 47.5606 32.1825 47.565Z" fill="#0E313A"/>
<path d="M32.1825 42.5144C31.9995 42.5111 31.8229 42.4465 31.6809 42.3309C31.539 42.2153 31.4399 42.0554 31.3997 41.8768C31.3594 41.6982 31.3802 41.5113 31.4588 41.346C31.5374 41.1807 31.6692 41.0465 31.8331 40.9649L34.9979 39.4353C35.0943 39.3635 35.2053 39.3139 35.323 39.2899C35.4407 39.2659 35.5623 39.2682 35.679 39.2965C35.7958 39.3249 35.9049 39.3786 35.9985 39.4539C36.0921 39.5292 36.168 39.6242 36.2208 39.7321C36.2735 39.8401 36.3018 39.9583 36.3037 40.0784C36.3055 40.1986 36.2809 40.3176 36.2315 40.4272C36.1821 40.5367 36.1091 40.634 36.0179 40.7121C35.9266 40.7902 35.8192 40.8473 35.7034 40.8792L32.5386 42.4023C32.4309 42.4685 32.3086 42.507 32.1825 42.5144Z" fill="#0E313A"/>
<path d="M46.9055 51.3431H46.8527C46.7698 51.3433 46.6874 51.33 46.6088 51.3035C33.0396 47.0244 35.6044 31.3585 35.6044 31.2002C35.6293 31.0623 35.689 30.9329 35.7779 30.8245C35.8667 30.716 35.9817 30.632 36.1121 30.5804L46.5429 26.4793C46.6371 26.4415 46.7381 26.4236 46.8396 26.4266C46.9582 26.4243 47.0764 26.4421 47.189 26.4793L57.6264 30.5804C57.7567 30.632 57.8718 30.716 57.9606 30.8245C58.0494 30.9329 58.1091 31.0623 58.1341 31.2002C58.1341 31.3585 60.7121 47.0244 47.1495 51.3035C47.0707 51.3295 46.9884 51.3429 46.9055 51.3431ZM37.167 31.9255C36.9007 34.3756 37.041 36.853 37.5824 39.2574C38.7956 44.5321 41.9341 48.0398 46.9055 49.6749C51.8703 48.0398 55.0088 44.5321 56.2286 39.2574C56.7566 36.8508 56.8857 34.3739 56.611 31.9255L46.8791 28.1079L37.167 31.9255Z" fill="#FF5C01"/>
<path d="M46.8593 42.9493C46.7312 42.9498 46.6049 42.9202 46.4903 42.863C46.3758 42.8057 46.2763 42.7223 46.1999 42.6196L43.3054 38.7493C43.176 38.5744 43.1214 38.3553 43.1535 38.1401C43.1857 37.925 43.302 37.7314 43.4769 37.602C43.6517 37.4726 43.8708 37.418 44.086 37.4501C44.3011 37.4823 44.4947 37.5986 44.6241 37.7734L46.8659 40.7734L51.923 34.1207C51.988 34.0341 52.0693 33.9612 52.1624 33.906C52.2556 33.8509 52.3587 33.8146 52.4658 33.7993C52.5729 33.784 52.6821 33.7899 52.7869 33.8168C52.8917 33.8437 52.9903 33.8909 53.0769 33.9559C53.1634 34.0208 53.2364 34.1021 53.2915 34.1953C53.3467 34.2884 53.3829 34.3915 53.3982 34.4986C53.4136 34.6058 53.4076 34.7149 53.3807 34.8197C53.3539 34.9246 53.3066 35.0231 53.2417 35.1097L47.5252 42.6262C47.4486 42.7298 47.348 42.8134 47.232 42.8696C47.116 42.9259 46.9881 42.9532 46.8593 42.9493Z" fill="#FF5C01"/>
</svg>
