<svg width="60" height="60" viewBox="0 0 60 60" fill="none" xmlns="http://www.w3.org/2000/svg">
<path d="M58.3445 35.0141C55.9725 47.9685 44.6771 57.3709 31.4865 57.3709C24.965 57.3709 18.7531 55.0803 13.8217 50.8886L14.108 53.753C14.1189 53.8623 14.1082 53.9728 14.0764 54.078C14.0447 54.1832 13.9925 54.2811 13.9229 54.3661C13.8533 54.4511 13.7676 54.5216 13.6708 54.5735C13.574 54.6255 13.4679 54.6578 13.3585 54.6687C12.8987 54.7158 12.4888 54.3792 12.4428 53.9194L11.9376 48.8649C11.9156 48.6441 11.9822 48.4236 12.1227 48.2519C12.2632 48.0801 12.4662 47.9712 12.687 47.9492L17.7415 47.4439C18.2014 47.3968 18.6113 47.7334 18.6573 48.1933C18.6794 48.4141 18.6128 48.6346 18.4723 48.8063C18.3318 48.978 18.1288 49.0869 17.908 49.109L14.6926 49.4304C19.3549 53.4811 25.2708 55.6974 31.4865 55.6974C43.8689 55.6974 54.4719 46.8721 56.6984 34.7126C56.7182 34.6046 56.7591 34.5014 56.8187 34.4091C56.8784 34.3169 56.9556 34.2372 57.046 34.1748C57.1365 34.1124 57.2383 34.0684 57.3457 34.0453C57.4531 34.0222 57.5641 34.0205 57.6721 34.0403C57.7802 34.0601 57.8834 34.101 57.9756 34.1607C58.0679 34.2203 58.1475 34.2976 58.21 34.388C58.2724 34.4784 58.3164 34.5802 58.3395 34.6877C58.3626 34.7951 58.3643 34.906 58.3445 35.0141ZM59.0316 17.7001C58.8294 17.6089 58.5992 17.6017 58.3916 17.6802C58.184 17.7586 58.0161 17.9163 57.9248 18.1185L56.7405 20.7424C54.5656 14.6464 50.3312 9.55681 44.6835 6.29612C33.26 -0.299378 18.7767 2.19572 10.2453 12.2287C10.1035 12.398 10.0344 12.6165 10.0531 12.8365C10.0717 13.0565 10.1765 13.2603 10.3448 13.4033C10.513 13.5464 10.7309 13.6171 10.9511 13.6002C11.1713 13.5832 11.3758 13.4799 11.5201 13.3127C19.528 3.89557 33.1234 1.55407 43.8468 7.74531C49.2297 10.8531 53.2448 15.7306 55.2571 21.5697L52.3118 20.2403C52.1098 20.1503 51.8803 20.1439 51.6736 20.2226C51.4669 20.3014 51.2997 20.4587 51.2087 20.6603C51.1177 20.8619 51.1103 21.0914 51.188 21.2985C51.2656 21.5056 51.4222 21.6735 51.6233 21.7655L56.2533 23.8553C56.3534 23.9005 56.4615 23.9256 56.5713 23.929C56.6811 23.9325 56.7906 23.9142 56.8933 23.8753C57.1009 23.7968 57.2688 23.6391 57.3601 23.4369L59.4499 18.807C59.4951 18.7068 59.5202 18.5988 59.5236 18.4889C59.5271 18.3791 59.5089 18.2697 59.47 18.1669C59.4312 18.0641 59.3725 17.97 59.2973 17.8899C59.222 17.8098 59.1318 17.7453 59.0316 17.7001ZM6.54774 30.0656C6.54774 29.8437 6.45959 29.6309 6.30268 29.474C6.14576 29.3171 5.93294 29.2289 5.71103 29.2289H1.3124C1.09048 29.2289 0.877662 29.3171 0.720747 29.474C0.563832 29.6309 0.475677 29.8437 0.475677 30.0656C0.475677 30.2875 0.563832 30.5004 0.720747 30.6573C0.877662 30.8142 1.09048 30.9023 1.3124 30.9023H5.71103C5.93294 30.9023 6.14576 30.8142 6.30268 30.6573C6.45959 30.5004 6.54774 30.2875 6.54774 30.0656ZM15.0325 30.0656C15.0325 29.8437 14.9444 29.6309 14.7875 29.474C14.6306 29.3171 14.4177 29.2289 14.1958 29.2289H9.7972C9.57529 29.2289 9.36247 29.3171 9.20555 29.474C9.04864 29.6309 8.96048 29.8437 8.96048 30.0656C8.96048 30.2875 9.04864 30.5004 9.20555 30.6573C9.36247 30.8142 9.57529 30.9023 9.7972 30.9023H14.1958C14.4177 30.9023 14.6306 30.8142 14.7875 30.6573C14.9444 30.5004 15.0325 30.2875 15.0325 30.0656ZM8.26314 40.4481H3.86451C3.6426 40.4481 3.42977 40.5363 3.27286 40.6932C3.11594 40.8501 3.02779 41.0629 3.02779 41.2848C3.02779 41.5067 3.11594 41.7196 3.27286 41.8765C3.42977 42.0334 3.6426 42.1215 3.86451 42.1215H8.26314C8.48505 42.1215 8.69787 42.0334 8.85479 41.8765C9.0117 41.7196 9.09986 41.5067 9.09986 41.2848C9.09986 41.0629 9.0117 40.8501 8.85479 40.6932C8.69787 40.5363 8.48505 40.4481 8.26314 40.4481ZM16.7479 42.1215C16.9699 42.1215 17.1827 42.0334 17.3396 41.8765C17.4965 41.7196 17.5847 41.5067 17.5847 41.2848C17.5847 41.0629 17.4965 40.8501 17.3396 40.6932C17.1827 40.5363 16.9699 40.4481 16.7479 40.4481H12.3493C12.1274 40.4481 11.9146 40.5363 11.7577 40.6932C11.6007 40.8501 11.5126 41.0629 11.5126 41.2848C11.5126 41.5067 11.6007 41.7196 11.7577 41.8765C11.9146 42.0334 12.1274 42.1215 12.3493 42.1215H16.7479ZM3.86451 19.6829H8.26314C8.48505 19.6829 8.69787 19.5947 8.85479 19.4378C9.0117 19.2809 9.09986 19.0681 9.09986 18.8462C9.09986 18.6243 9.0117 18.4114 8.85479 18.2545C8.69787 18.0976 8.48505 18.0095 8.26314 18.0095H3.86451C3.6426 18.0095 3.42977 18.0976 3.27286 18.2545C3.11594 18.4114 3.02779 18.6243 3.02779 18.8462C3.02779 19.0681 3.11594 19.2809 3.27286 19.4378C3.42977 19.5947 3.6426 19.6829 3.86451 19.6829ZM16.7479 19.6829C16.9699 19.6829 17.1827 19.5947 17.3396 19.4378C17.4965 19.2809 17.5847 19.0681 17.5847 18.8462C17.5847 18.6243 17.4965 18.4114 17.3396 18.2545C17.1827 18.0976 16.9699 18.0095 16.7479 18.0095H12.3493C12.1274 18.0095 11.9146 18.0976 11.7577 18.2545C11.6007 18.4114 11.5126 18.6243 11.5126 18.8462C11.5126 19.0681 11.6007 19.2809 11.7577 19.4378C11.9146 19.5947 12.1274 19.6829 12.3493 19.6829H16.7479ZM17.6182 37.5892V22.5417C17.6182 22.3949 17.6569 22.2506 17.7303 22.1234C17.8038 21.9962 17.9094 21.8906 18.0366 21.8171L31.0681 14.2934C31.1954 14.2199 31.3396 14.1813 31.4865 14.1813C31.6334 14.1813 31.7777 14.2199 31.9049 14.2934L44.9364 21.8171C45.0636 21.8906 45.1692 21.9962 45.2427 22.1234C45.3161 22.2506 45.3548 22.3949 45.3548 22.5417V37.5892C45.3548 37.736 45.3161 37.8803 45.2427 38.0075C45.1692 38.1347 45.0636 38.2403 44.9364 38.3138L31.9049 45.8375C31.7777 45.911 31.6334 45.9496 31.4865 45.9496C31.3396 45.9496 31.1953 45.911 31.0681 45.8375L18.0366 38.3138C17.9094 38.2403 17.8038 38.1347 17.7304 38.0075C17.6569 37.8803 17.6183 37.736 17.6182 37.5892ZM22.9418 20.9173L20.1284 22.5416L23.1582 24.2908L34.5163 17.7332L31.4865 15.984L22.9418 20.9173ZM40.0312 20.9173L39.8148 20.7924L28.4567 27.35L31.4865 29.0992L42.8446 22.5416L40.0312 20.9173ZM23.9949 31.0439L25.9466 32.1706V27.8331L23.9949 26.7063V31.0439ZM26.7833 26.3839L38.1414 19.8263L36.1897 18.6995L24.8316 25.2571L26.7833 26.3839ZM19.2917 37.1061L30.6498 43.6637V30.5485L27.62 28.7993V33.6199C27.6201 33.7668 27.5814 33.9111 27.508 34.0383C27.4346 34.1655 27.3289 34.2711 27.2017 34.3446C27.0745 34.418 26.9302 34.4567 26.7833 34.4567C26.6364 34.4566 26.4921 34.418 26.365 34.3445L22.7398 32.2516C22.6126 32.1782 22.507 32.0725 22.4336 31.9453C22.3601 31.8182 22.3215 31.6739 22.3214 31.527V25.7403L19.2917 23.991V37.1061ZM43.6813 37.1061V23.9909L32.3232 30.5485V43.6637L43.6813 37.1061Z" fill="white"/>
</svg>
