<svg width="60" height="60" viewBox="0 0 60 60" fill="none" xmlns="http://www.w3.org/2000/svg">
<path d="M44.0187 21.7379H49.5031L45.1207 31.7072M33.7429 28.7649H27.4826C27.4826 28.7649 30.7971 22.7569 31.3442 22.0858C31.8973 21.4071 32.421 21.8304 32.4709 22.429C32.5208 23.0276 32.4459 31.7072 32.4459 31.7072M25.8615 31.7817C25.8615 31.7817 21.0111 31.8427 20.7813 31.7661C20.5517 31.6895 21.1497 31.285 24.3298 26.7413C24.9237 25.8927 25.2506 25.1768 25.3896 24.577L25.439 24.1914C25.439 22.7826 24.2968 21.6404 22.888 21.6404C21.6483 21.6404 20.6152 22.5247 20.385 23.697M40.6061 21.7379L36.6022 31.8047" stroke="#FF5C01" stroke-width="1.6" stroke-miterlimit="10" stroke-linecap="round" stroke-linejoin="round"/>
<path d="M2.85435 32.6858C1.49498 29.6278 0.647947 26.4073 0.934588 23.3779C1.00596 22.6244 1.35482 21.924 1.89002 21.389L6.30576 16.9732C7.56928 15.7097 9.6599 15.8618 10.7271 17.295L15.7149 23.9254C15.9725 24.2678 16.0961 24.6926 16.0625 25.1198C16.0289 25.547 15.8405 25.9472 15.5325 26.2452L12.3017 29.3719C12.1092 29.5582 11.9863 29.8048 11.9535 30.0706C11.9208 30.3365 11.9801 30.6055 12.1215 30.833V30.8331C16.4217 37.7465 22.2538 43.5786 29.1672 47.8787C29.3946 48.0202 29.6637 48.0794 29.9295 48.0467C30.1954 48.0139 30.442 47.8911 30.6283 47.6986L33.7548 44.4678C34.0529 44.1598 34.4531 43.9714 34.8803 43.9378C35.3075 43.9042 35.7323 44.0278 36.0748 44.2854L42.7051 49.2731C44.1383 50.3404 44.2904 52.431 43.0269 53.6945L38.6112 58.1102C38.0564 58.664 37.3243 59.0049 36.5434 59.0729C25.9017 60.0101 12.946 47.0544 12.946 47.0544C12.946 47.0544 8.23349 42.342 4.6983 36.2667" stroke="white" stroke-width="1.6" stroke-miterlimit="10" stroke-linecap="round" stroke-linejoin="round"/>
<path d="M18.6664 10.3945C27.2692 2.68286 40.502 2.96118 48.7704 11.2296C57.327 19.7861 57.327 33.6589 48.7704 42.2155C46.3853 44.6006 43.5872 46.3208 40.6062 47.3762M12.5975 19.4681C13.3914 17.1993 14.5558 15.0777 16.0433 13.1895" stroke="white" stroke-width="1.6" stroke-miterlimit="10" stroke-linecap="round" stroke-linejoin="round"/>
<path d="M52.7265 9.70266C61.6277 19.8541 61.2361 35.3123 51.5516 44.9967C49.2581 47.2902 46.6408 49.0625 43.8468 50.3136M9.70349 16.1149C10.9536 13.3354 12.7202 10.7313 15.0033 8.44828C24.5769 -1.12535 39.7931 -1.61766 49.9471 6.9716" stroke="white" stroke-width="1.6" stroke-miterlimit="10" stroke-linecap="round" stroke-linejoin="round"/>
</svg>
