<svg width="80" height="57" viewBox="0 0 80 57" fill="none" xmlns="http://www.w3.org/2000/svg">
<path d="M68.5497 3.30248C68.5497 2.86808 68.467 2.43795 68.3064 2.03672C68.1458 1.63549 67.9104 1.27106 67.6137 0.964282C67.317 0.657509 66.9648 0.414427 66.5774 0.248962C66.1899 0.083496 65.7747 -0.00110299 65.3557 1.08572e-05H8.24783C6.49155 1.08572e-05 5.06201 1.47342 5.06201 3.30248V34.2694H68.5497V3.30248ZM16.7711 26.1826C16.7711 26.8427 16.5182 27.4757 16.0679 27.9424C15.6177 28.4091 15.0071 28.6713 14.3703 28.6713C13.7336 28.6713 13.1229 28.4091 12.6727 27.9424C12.2225 27.4757 11.9695 26.8427 11.9695 26.1826V9.7787C11.9695 9.11865 12.2225 8.48564 12.6727 8.01892C13.1229 7.5522 13.7336 7.28999 14.3703 7.28999C15.0071 7.28999 15.6177 7.5522 16.0679 8.01892C16.5182 8.48564 16.7711 9.11865 16.7711 9.7787V26.1826ZM27.9885 26.1826C27.9885 26.8427 27.7355 27.4757 27.2853 27.9424C26.8351 28.4091 26.2244 28.6713 25.5877 28.6713C24.9509 28.6713 24.3403 28.4091 23.89 27.9424C23.4398 27.4757 23.1869 26.8427 23.1869 26.1826V9.7787C23.1869 9.11865 23.4398 8.48564 23.89 8.01892C24.3403 7.5522 24.9509 7.28999 25.5877 7.28999C26.2244 7.28999 26.8351 7.5522 27.2853 8.01892C27.7355 8.48564 27.9885 9.11865 27.9885 9.7787V26.1826ZM39.2058 26.1826C39.2058 26.8427 38.9529 27.4757 38.5026 27.9424C38.0524 28.4091 37.4418 28.6713 36.805 28.6713C36.1683 28.6713 35.5576 28.4091 35.1074 27.9424C34.6572 27.4757 34.4042 26.8427 34.4042 26.1826V9.7787C34.4042 9.11865 34.6572 8.48564 35.1074 8.01892C35.5576 7.5522 36.1683 7.28999 36.805 7.28999C37.4418 7.28999 38.0524 7.5522 38.5026 8.01892C38.9529 8.48564 39.2058 9.11865 39.2058 9.7787V26.1826ZM50.4232 26.1826C50.4232 26.8427 50.1702 27.4757 49.72 27.9424C49.2698 28.4091 48.6591 28.6713 48.0224 28.6713C47.3856 28.6713 46.775 28.4091 46.3247 27.9424C45.8745 27.4757 45.6216 26.8427 45.6216 26.1826V9.7787C45.6216 9.11865 45.8745 8.48564 46.3247 8.01892C46.775 7.5522 47.3856 7.28999 48.0224 7.28999C48.6591 7.28999 49.2698 7.5522 49.72 8.01892C50.1702 8.48564 50.4232 9.11865 50.4232 9.7787V26.1826ZM61.6397 26.1826C61.6397 26.8427 61.3868 27.4757 60.9365 27.9424C60.4863 28.4091 59.8756 28.6713 59.2389 28.6713C58.6022 28.6713 57.9915 28.4091 57.5413 27.9424C57.0911 27.4757 56.8381 26.8427 56.8381 26.1826V9.7787C56.8381 9.11865 57.0911 8.48564 57.5413 8.01892C57.9915 7.5522 58.6022 7.28999 59.2389 7.28999C59.8756 7.28999 60.4863 7.5522 60.9365 8.01892C61.3868 8.48564 61.6397 9.11865 61.6397 9.7787V26.1826Z" fill="#0E313A"/>
<path d="M77.9848 35.3025H74.8561C74.4068 35.3025 74.0393 35.6835 74.0393 36.1493V38.0376H71.899V36.9707C71.899 36.4118 71.4579 35.963 70.9188 35.963H2.69324C2.1541 35.963 1.71299 36.4118 1.71299 36.9707V41.1538C1.71299 41.7127 2.1541 42.1615 2.69324 42.1615H13.3617L14.3256 49.393C14.3337 49.4184 14.3419 49.4354 14.3501 49.4523H14.3337C14.0952 48.2675 13.4704 47.2041 12.5644 46.4407C11.6584 45.6773 10.5265 45.2607 9.35896 45.2607C6.5489 45.2607 4.28615 47.6232 4.28615 50.5362C4.28561 51.4152 4.49768 52.2804 4.90296 53.0526C5.30823 53.8248 5.89379 54.4793 6.60608 54.9564H5.54414C5.09486 54.9564 4.72726 55.3374 4.72726 55.8032C4.72726 56.2689 5.09486 56.65 5.54414 56.65H73.8677C74.317 56.65 74.6846 56.2689 74.6846 55.8032C74.6846 55.3374 74.317 54.9564 73.8677 54.9564H66.9978C67.7112 54.4799 68.298 53.8257 68.7047 53.0535C69.1114 52.2814 69.3249 51.4159 69.3259 50.5362C69.3259 47.6232 67.055 45.2607 64.2449 45.2607C61.7453 45.2607 59.6786 47.1321 59.2538 49.5962H59.2211C59.2374 49.5285 59.2701 49.4692 59.2783 49.393L60.2422 42.1615H70.9188C71.4579 42.1615 71.899 41.7127 71.899 41.1538V39.7312H74.0393V41.4078C74.0393 41.8735 74.4068 42.2546 74.8561 42.2546H77.9848C78.4422 42.2546 78.8016 41.8735 78.8016 41.4078V36.1493C78.8016 35.6835 78.4422 35.3025 77.9848 35.3025ZM9.35896 52.5769C8.28885 52.5769 7.42296 51.6709 7.42296 50.5616C7.42188 50.2973 7.47116 50.0354 7.56798 49.791C7.66479 49.5465 7.80722 49.3243 7.9871 49.137C8.16698 48.9498 8.38077 48.8012 8.61619 48.6998C8.85161 48.5984 9.10403 48.5462 9.35896 48.5462C10.037 48.5462 10.6333 48.9103 10.9845 49.4523H9.09756C8.64827 49.4523 8.28068 49.8333 8.28068 50.2991C8.28068 50.7648 8.64827 51.1459 9.09756 51.1459H11.2133C11.0926 51.5587 10.8474 51.9205 10.5136 52.1781C10.1798 52.4357 9.77509 52.5755 9.35896 52.5769ZM12.1118 54.9564C12.742 54.5371 13.2743 53.9775 13.6699 53.3184C14.0655 52.6593 14.3146 51.9172 14.3991 51.1459H17.5441C17.6302 51.9167 17.88 52.6582 18.2755 53.317C18.6709 53.9759 19.2023 54.5357 19.8313 54.9564H12.1118ZM22.5842 52.5769C21.7101 52.5769 20.9831 51.9672 20.738 51.1459H22.8456C23.303 51.1459 23.6625 50.7648 23.6625 50.2991C23.6625 49.8333 23.303 49.4523 22.8456 49.4523H20.9668C21.318 48.9103 21.9062 48.5462 22.5842 48.5462C23.6625 48.5462 24.5284 49.4438 24.5284 50.5616C24.5284 51.0961 24.3235 51.6087 23.9589 51.9866C23.5943 52.3646 23.0998 52.5769 22.5842 52.5769ZM51.0197 52.5769C49.9496 52.5769 49.0837 51.6709 49.0837 50.5616C49.0826 50.2973 49.1319 50.0354 49.2287 49.791C49.3255 49.5465 49.4679 49.3243 49.6478 49.137C49.8277 48.9498 50.0415 48.8012 50.2769 48.6998C50.5123 48.5984 50.7647 48.5462 51.0197 48.5462C51.7548 48.5462 52.3839 48.9696 52.7106 49.5962H50.8236C50.3743 49.5962 50.0067 49.9688 50.0067 50.443C50.0067 50.9088 50.3743 51.2898 50.8236 51.2898H52.825C52.5472 52.0435 51.8447 52.5769 51.0197 52.5769ZM64.0979 49.5962H62.554C62.8807 48.9696 63.5097 48.5462 64.2449 48.5462C65.3232 48.5462 66.1891 49.4438 66.1891 50.5616C66.1891 51.0961 65.9842 51.6087 65.6196 51.9866C65.255 52.3646 64.7605 52.5769 64.2449 52.5769C63.4199 52.5769 62.7255 52.0435 62.4396 51.2898H64.0979C64.5553 51.2898 64.9147 50.9088 64.9147 50.443C64.9147 49.9688 64.5553 49.5962 64.0979 49.5962ZM59.2293 51.2898C59.3319 52.0331 59.5869 52.7449 59.9772 53.3774C60.3675 54.0098 60.8841 54.5483 61.492 54.9564H53.7725C54.3804 54.5473 54.8973 54.0088 55.2889 53.3766C55.6804 52.7444 55.9377 52.033 56.0435 51.2898H59.2293ZM55.9863 49.393C56.0026 49.4692 56.0271 49.5285 56.0516 49.5962H56.0108C55.586 47.1321 53.5193 45.2607 51.0197 45.2607C48.2096 45.2607 45.9469 47.6232 45.9469 50.5362C45.9469 52.3906 46.8699 54.0165 48.2586 54.9564H25.3371C26.0517 54.4812 26.6394 53.8273 27.0463 53.0548C27.4531 52.2824 27.6659 51.4163 27.6652 50.5362C27.6652 47.6232 25.3942 45.2607 22.5842 45.2607C20.1336 45.2607 18.0995 47.0559 17.6176 49.4523H17.6012C17.6012 49.4354 17.6094 49.4184 17.6176 49.393L18.5815 42.1615H55.0224L55.9863 49.393ZM2.13532 54.9564H0.816877C0.600227 54.9564 0.392452 55.0456 0.239258 55.2044C0.0860635 55.3632 0 55.5786 0 55.8032C0 56.0278 0.0860635 56.2431 0.239258 56.402C0.392452 56.5608 0.600227 56.65 0.816877 56.65H2.13532C2.35196 56.65 2.55974 56.5608 2.71293 56.402C2.86613 56.2431 2.95219 56.0278 2.95219 55.8032C2.95219 55.5786 2.86613 55.3632 2.71293 55.2044C2.55974 55.0456 2.35196 54.9564 2.13532 54.9564ZM79.1831 54.9564H77.0756C76.8589 54.9564 76.6512 55.0456 76.498 55.2044C76.3448 55.3632 76.2587 55.5786 76.2587 55.8032C76.2587 56.0278 76.3448 56.2431 76.498 56.402C76.6512 56.5608 76.8589 56.65 77.0756 56.65H79.1831C79.3998 56.65 79.6076 56.5608 79.7607 56.402C79.9139 56.2431 80 56.0278 80 55.8032C80 55.5786 79.9139 55.3632 79.7607 55.2044C79.6076 55.0456 79.3998 54.9564 79.1831 54.9564Z" fill="#FF5C01"/>
</svg>
