<?xml version="1.0" encoding="UTF-8"?>
<svg version="1.1" xmlns="http://www.w3.org/2000/svg" width="128" height="128">
<path d="M0 0 C2.21557617 1.07885742 2.21557617 1.07885742 4.29296875 2.60546875 C5.07913574 3.17088379 5.86530273 3.73629883 6.67529297 4.31884766 C7.50432129 4.93550293 8.33334961 5.5521582 9.1875 6.1875 C10.96404175 7.47116276 12.7414072 8.75368618 14.51953125 10.03515625 C15.42396973 10.69273926 16.3284082 11.35032227 17.26025391 12.02783203 C21.57954731 15.13701507 25.97469595 18.13209994 30.375 21.125 C31.15254639 21.65633545 31.93009277 22.1876709 32.73120117 22.73510742 C33.83492065 23.48884644 33.83492065 23.48884644 34.9609375 24.2578125 C35.99371826 24.97807617 35.99371826 24.97807617 37.04736328 25.71289062 C39.20153299 27.18504726 39.20153299 27.18504726 42.515625 28.7890625 C45 31 45 31 45.46142578 32.99462891 C45.59203981 35.44248953 45.52408127 37.80353817 45.375 40.25 C45.33439453 41.51070312 45.33439453 41.51070312 45.29296875 42.796875 C45.22244109 44.86568634 45.11482367 46.93317393 45 49 C43.98421875 49.07476562 42.9684375 49.14953125 41.921875 49.2265625 C28.36034303 50.43401686 17.32346031 54.58510286 8 65 C2.24678409 72.80973827 -0.85512427 80.64396044 -1.57421875 90.2890625 C-1.65631592 91.3610791 -1.73841309 92.4330957 -1.82299805 93.53759766 C-1.88140869 94.35019043 -1.93981934 95.1627832 -2 96 C-8.49609906 96.07597206 -14.99208385 96.12856672 -21.48852539 96.16479492 C-23.69918092 96.17989525 -25.90980643 96.20037709 -28.12036133 96.22631836 C-31.29515993 96.26264655 -34.46956297 96.27971384 -37.64453125 96.29296875 C-38.63524124 96.30845261 -39.62595123 96.32393646 -40.64668274 96.33988953 C-41.56741074 96.34011612 -42.48813873 96.34034271 -43.43676758 96.34057617 C-44.65255241 96.35056892 -44.65255241 96.35056892 -45.89289856 96.36076355 C-48 96 -48 96 -49.74209595 94.84083557 C-51.49340931 92.27793745 -51.51386118 90.29750676 -51.68969727 87.20605469 C-51.76047989 86.01341003 -51.83126251 84.82076538 -51.90419006 83.59197998 C-52.13153168 78.09805836 -52.3118742 72.60561071 -52.43481445 67.10839844 C-52.50575039 64.21822399 -52.63709928 61.34097708 -52.82446289 58.45605469 C-54.28904049 35.35445091 -54.28904049 35.35445091 -48.96136475 28.30099487 C-43.80775493 23.58193922 -37.93194804 20.3949604 -31.67990112 17.35284424 C-28.14244988 15.56709905 -25.18687728 13.42853191 -22.03125 11.03515625 C-21.09152344 10.36162109 -20.15179687 9.68808594 -19.18359375 8.99414062 C-17.32555824 7.6567337 -15.47442067 6.30971082 -13.62890625 4.95507812 C-12.70980469 4.30087891 -11.79070313 3.64667969 -10.84375 2.97265625 C-10.05162109 2.39781494 -9.25949219 1.82297363 -8.44335938 1.23071289 C-5.36704 -0.31882008 -3.40733082 -0.40056544 0 0 Z " fill="#000000" transform="translate(51,0)"/>
<path d="M0 0 C7.89093569 6.80901902 13.55398883 14.33834461 14.45703125 24.96484375 C14.73211993 37.82263719 12.76025994 46.20168614 3.63671875 55.80859375 C-5.3668776 63.69373093 -15.35274239 64.68835385 -26.8203125 64.18652344 C-36.42215261 63.37118692 -42.79907306 57.31820934 -49.12890625 50.63671875 C-54.63085021 42.38380281 -56.8375506 33.87206064 -55.87890625 24.01171875 C-53.67079054 13.79585813 -49.12079241 5.83473226 -40.62890625 -0.36328125 C-28.14361038 -8.00733995 -12.24992659 -8.46026138 0 0 Z " fill="#FF5C01" transform="translate(113.87890625,63.98828125)"/>
<path d="M0 0 C1.55170898 -0.00945648 1.55170898 -0.00945648 3.13476562 -0.019104 C4.81602539 -0.01303131 4.81602539 -0.01303131 6.53125 -0.00683594 C7.67787109 -0.00874939 8.82449219 -0.01066284 10.00585938 -0.01263428 C12.43359598 -0.01399715 14.86133984 -0.01029361 17.2890625 -0.00195312 C21.01579073 0.00874469 24.74203686 -0.00184525 28.46875 -0.01464844 C30.82291774 -0.01332686 33.17708517 -0.01076451 35.53125 -0.00683594 C36.65208984 -0.0108844 37.77292969 -0.01493286 38.92773438 -0.019104 C39.96220703 -0.01279968 40.99667969 -0.00649536 42.0625 0 C43.43245117 0.00238678 43.43245117 0.00238678 44.83007812 0.00482178 C47.03125 0.25878906 47.03125 0.25878906 49.03125 2.25878906 C49.515625 5.12597656 49.515625 5.12597656 49.03125 8.25878906 C46.546875 10.45410156 46.546875 10.45410156 43.28125 12.38378906 C38.916316 14.87321938 38.916316 14.87321938 35.4140625 18.35498047 C31.7835986 21.25563185 28.4030564 20.75846139 23.890625 20.64941406 C23.00844299 20.64375427 22.12626099 20.63809448 21.21734619 20.63226318 C18.40475787 20.60990497 15.59345205 20.55971038 12.78125 20.50878906 C10.87241426 20.48872331 8.96355851 20.47047267 7.0546875 20.45410156 C2.37971555 20.41004206 -2.29429992 20.3410189 -6.96875 20.25878906 C-7.02254226 17.30021497 -7.06232093 14.34261185 -7.09375 11.38378906 C-7.11050781 10.54203125 -7.12726562 9.70027344 -7.14453125 8.83300781 C-7.15097656 8.02734375 -7.15742188 7.22167969 -7.1640625 6.39160156 C-7.17977295 5.27615967 -7.17977295 5.27615967 -7.19580078 4.13818359 C-6.66665793 -0.2417537 -3.64741176 0.00635466 0 0 Z " fill="#608EA5" transform="translate(26.96875,43.7412109375)"/>
<path d="M0 0 C9.9 0 19.8 0 30 0 C29.67 5.28 29.34 10.56 29 16 C19.43 16 9.86 16 0 16 C0 10.72 0 5.44 0 0 Z " fill="#5F8DA4" transform="translate(20,80)"/>
<path d="M0 0 C2.475 0.495 2.475 0.495 5 1 C5.73828125 3.1796875 5.73828125 3.1796875 6 6 C4.48046875 8.5078125 4.48046875 8.5078125 2.1875 11.125 C1.36121094 12.07117188 0.53492187 13.01734375 -0.31640625 13.9921875 C-0.7561377 14.48170898 -1.19586914 14.97123047 -1.64892578 15.47558594 C-3.01917029 17.0216298 -4.3375358 18.60198886 -5.65234375 20.1953125 C-6.51702356 21.21456567 -7.38287599 22.23282541 -8.25 23.25 C-9.03890625 24.18328125 -9.8278125 25.1165625 -10.640625 26.078125 C-13 28 -13 28 -15.46484375 28.09375 C-18.76355438 26.67057746 -20.77654048 24.7897165 -23.3125 22.25 C-24.19550781 21.38890625 -25.07851562 20.5278125 -25.98828125 19.640625 C-28 17 -28 17 -28.35546875 14.234375 C-28 12 -28 12 -27 11 C-24.875 10.5625 -24.875 10.5625 -22 11 C-19.46868534 12.79760027 -17.22819118 14.84244313 -15 17 C-13.24797712 15.10600285 -11.49835022 13.20988262 -9.75 11.3125 C-9.25886719 10.78205078 -8.76773438 10.25160156 -8.26171875 9.70507812 C-5.37269261 6.56566972 -2.62459433 3.36822939 0 0 Z " fill="#FFFAF7" transform="translate(103,80)"/>
</svg>
