<svg width="1920" height="268" viewBox="0 0 1920 268" fill="none" xmlns="http://www.w3.org/2000/svg">
<g opacity="0.03">
<path d="M149.369 -354.967L-798 621.552L-796.525 623.073L150.845 -353.446L149.369 -354.967Z" fill="white"/>
<path d="M165.251 -354.902L-782.118 621.617L-780.642 623.138L166.727 -353.381L165.251 -354.902Z" fill="white"/>
<path d="M181.282 -354.998L-766.088 621.521L-764.612 623.041L182.757 -353.478L181.282 -354.998Z" fill="white"/>
<path d="M197.164 -354.937L-750.206 621.582L-748.73 623.103L198.639 -353.416L197.164 -354.937Z" fill="white"/>
<path d="M213.046 -354.876L-734.323 621.643L-732.848 623.163L214.521 -353.356L213.046 -354.876Z" fill="white"/>
<path d="M229.075 -354.968L-718.294 621.551L-716.819 623.072L230.55 -353.447L229.075 -354.968Z" fill="white"/>
<path d="M244.958 -354.908L-702.412 621.611L-700.936 623.132L246.433 -353.387L244.958 -354.908Z" fill="white"/>
<path d="M260.987 -354.999L-686.382 621.52L-684.907 623.04L262.462 -353.479L260.987 -354.999Z" fill="white"/>
<path d="M276.87 -354.937L-670.5 621.582L-669.024 623.103L278.345 -353.416L276.87 -354.937Z" fill="white"/>
<path d="M292.752 -354.878L-654.617 621.641L-653.142 623.161L294.227 -353.358L292.752 -354.878Z" fill="white"/>
<path d="M308.781 -354.969L-638.588 621.55L-637.112 623.071L310.257 -353.448L308.781 -354.969Z" fill="white"/>
<path d="M324.663 -354.91L-622.706 621.609L-621.23 623.13L326.139 -353.389L324.663 -354.91Z" fill="white"/>
<path d="M340.694 -355L-606.676 621.519L-605.2 623.039L342.169 -353.48L340.694 -355Z" fill="white"/>
<path d="M356.576 -354.939L-590.793 621.58L-589.318 623.101L358.051 -353.418L356.576 -354.939Z" fill="white"/>
<path d="M372.458 -354.88L-574.912 621.639L-573.436 623.159L373.933 -353.36L372.458 -354.88Z" fill="white"/>
<path d="M388.488 -354.971L-558.881 621.548L-557.406 623.069L389.963 -353.45L388.488 -354.971Z" fill="white"/>
<path d="M404.37 -354.912L-542.999 621.607L-541.524 623.128L405.845 -353.391L404.37 -354.912Z" fill="white"/>
<path d="M420.252 -354.85L-527.117 621.669L-525.641 623.19L421.728 -353.329L420.252 -354.85Z" fill="white"/>
<path d="M436.282 -354.94L-511.087 621.579L-509.612 623.1L437.757 -353.419L436.282 -354.94Z" fill="white"/>
<path d="M452.164 -354.881L-495.205 621.638L-493.729 623.159L453.64 -353.36L452.164 -354.881Z" fill="white"/>
<path d="M468.194 -354.971L-479.176 621.548L-477.7 623.069L469.669 -353.45L468.194 -354.971Z" fill="white"/>
<path d="M484.076 -354.914L-463.293 621.605L-461.818 623.126L485.551 -353.393L484.076 -354.914Z" fill="white"/>
<path d="M499.958 -354.852L-447.411 621.667L-445.935 623.188L501.434 -353.331L499.958 -354.852Z" fill="white"/>
<path d="M515.988 -354.943L-431.381 621.576L-429.906 623.097L517.463 -353.422L515.988 -354.943Z" fill="white"/>
<path d="M531.87 -354.883L-415.5 621.636L-414.024 623.157L533.345 -353.362L531.87 -354.883Z" fill="white"/>
<path d="M547.9 -354.972L-399.469 621.547L-397.994 623.068L549.376 -353.451L547.9 -354.972Z" fill="white"/>
<path d="M563.782 -354.914L-383.587 621.605L-382.111 623.126L565.258 -353.393L563.782 -354.914Z" fill="white"/>
<path d="M579.664 -354.853L-367.705 621.666L-366.23 623.187L581.139 -353.332L579.664 -354.853Z" fill="white"/>
<path d="M595.695 -354.945L-351.675 621.574L-350.199 623.095L597.17 -353.424L595.695 -354.945Z" fill="white"/>
<path d="M611.576 -354.884L-335.793 621.635L-334.317 623.156L613.052 -353.363L611.576 -354.884Z" fill="white"/>
<path d="M627.606 -354.975L-319.763 621.544L-318.288 623.065L629.081 -353.454L627.606 -354.975Z" fill="white"/>
<path d="M643.489 -354.915L-303.881 621.604L-302.405 623.125L644.964 -353.394L643.489 -354.915Z" fill="white"/>
<path d="M659.371 -354.855L-287.998 621.664L-286.523 623.185L660.846 -353.334L659.371 -354.855Z" fill="white"/>
<path d="M675.401 -354.946L-271.968 621.573L-270.493 623.094L676.876 -353.425L675.401 -354.946Z" fill="white"/>
<path d="M691.283 -354.886L-256.086 621.633L-254.611 623.154L692.758 -353.365L691.283 -354.886Z" fill="white"/>
<path d="M707.312 -354.977L-240.057 621.542L-238.582 623.063L708.787 -353.456L707.312 -354.977Z" fill="white"/>
<path d="M723.195 -354.916L-224.174 621.603L-222.699 623.123L724.671 -353.396L723.195 -354.916Z" fill="white"/>
<path d="M739.076 -354.856L-208.293 621.663L-206.817 623.184L740.552 -353.335L739.076 -354.856Z" fill="white"/>
<path d="M755.107 -354.948L-192.262 621.571L-190.787 623.092L756.582 -353.427L755.107 -354.948Z" fill="white"/>
<path d="M770.989 -354.886L-176.38 621.633L-174.905 623.154L772.464 -353.365L770.989 -354.886Z" fill="white"/>
<path d="M787.019 -354.978L-160.351 621.541L-158.875 623.062L788.494 -353.457L787.019 -354.978Z" fill="white"/>
<path d="M802.901 -354.917L-144.468 621.602L-142.993 623.122L804.376 -353.397L802.901 -354.917Z" fill="white"/>
<path d="M818.783 -354.857L-128.586 621.662L-127.111 623.183L820.258 -353.336L818.783 -354.857Z" fill="white"/>
<path d="M834.813 -354.949L-112.557 621.57L-111.081 623.091L836.288 -353.428L834.813 -354.949Z" fill="white"/>
<path d="M850.695 -354.888L-96.6743 621.631L-95.1989 623.152L852.17 -353.367L850.695 -354.888Z" fill="white"/>
<path d="M866.725 -354.98L-80.6443 621.539L-79.1689 623.06L868.2 -353.459L866.725 -354.98Z" fill="white"/>
<path d="M882.607 -354.918L-64.7625 621.601L-63.287 623.121L884.082 -353.398L882.607 -354.918Z" fill="white"/>
<path d="M898.489 -354.859L-48.8799 621.66L-47.4045 623.181L899.965 -353.338L898.489 -354.859Z" fill="white"/>
<path d="M914.518 -354.95L-32.8508 621.569L-31.3754 623.09L915.994 -353.429L914.518 -354.95Z" fill="white"/>
<path d="M930.401 -354.89L-16.968 621.629L-15.4926 623.15L931.877 -353.369L930.401 -354.89Z" fill="white"/>
<path d="M946.431 -354.981L-0.938232 621.538L0.537191 623.059L947.906 -353.46L946.431 -354.981Z" fill="white"/>
<path d="M962.313 -354.92L14.9441 621.599L16.4195 623.119L963.789 -353.4L962.313 -354.92Z" fill="white"/>
<path d="M978.195 -354.86L30.8262 621.659L32.3016 623.18L979.671 -353.339L978.195 -354.86Z" fill="white"/>
<path d="M994.226 -354.951L46.8564 621.568L48.3319 623.089L995.701 -353.43L994.226 -354.951Z" fill="white"/>
<path d="M1010.11 -354.89L62.738 621.629L64.2135 623.15L1011.58 -353.369L1010.11 -354.89Z" fill="white"/>
<path d="M1026.14 -354.982L78.7681 621.537L80.2435 623.058L1027.61 -353.461L1026.14 -354.982Z" fill="white"/>
<path d="M1042.02 -354.917L94.6501 621.603L96.1256 623.123L1043.49 -353.396L1042.02 -354.917Z" fill="white"/>
<path d="M1057.9 -354.861L110.532 621.658L112.008 623.179L1059.38 -353.34L1057.9 -354.861Z" fill="white"/>
<path d="M1073.93 -354.948L126.562 621.571L128.038 623.092L1075.41 -353.427L1073.93 -354.948Z" fill="white"/>
<path d="M1089.81 -354.892L142.444 621.627L143.92 623.148L1091.29 -353.371L1089.81 -354.892Z" fill="white"/>
<path d="M1105.84 -354.983L158.475 621.536L159.95 623.057L1107.32 -353.462L1105.84 -354.983Z" fill="white"/>
<path d="M1121.73 -354.923L174.356 621.596L175.831 623.117L1123.2 -353.402L1121.73 -354.923Z" fill="white"/>
<path d="M1137.61 -354.858L190.239 621.661L191.714 623.182L1139.08 -353.337L1137.61 -354.858Z" fill="white"/>
<path d="M1153.64 -354.949L206.269 621.57L207.744 623.091L1155.11 -353.428L1153.64 -354.949Z" fill="white"/>
<path d="M1169.52 -354.893L222.151 621.626L223.626 623.147L1171 -353.372L1169.52 -354.893Z" fill="white"/>
<path d="M1185.55 -354.98L238.18 621.539L239.656 623.06L1187.02 -353.459L1185.55 -354.98Z" fill="white"/>
<path d="M1201.43 -354.923L254.062 621.596L255.538 623.117L1202.91 -353.402L1201.43 -354.923Z" fill="white"/>
<path d="M1217.31 -354.859L269.944 621.66L271.42 623.181L1218.79 -353.338L1217.31 -354.859Z" fill="white"/>
<path d="M1233.34 -354.955L285.975 621.564L287.45 623.085L1234.82 -353.434L1233.34 -354.955Z" fill="white"/>
<path d="M1249.23 -354.89L301.857 621.629L303.332 623.15L1250.7 -353.369L1249.23 -354.89Z" fill="white"/>
<path d="M1265.26 -354.982L317.887 621.537L319.362 623.058L1266.73 -353.461L1265.26 -354.982Z" fill="white"/>
<path d="M1281.14 -354.925L333.769 621.594L335.244 623.115L1282.61 -353.404L1281.14 -354.925Z" fill="white"/>
<path d="M1297.02 -354.865L349.651 621.654L351.127 623.175L1298.5 -353.344L1297.02 -354.865Z" fill="white"/>
<path d="M1313.05 -354.956L365.681 621.562L367.156 623.083L1314.53 -353.436L1313.05 -354.956Z" fill="white"/>
<path d="M1328.93 -354.892L381.563 621.627L383.038 623.148L1330.41 -353.371L1328.93 -354.892Z" fill="white"/>
<path d="M1344.96 -354.988L397.593 621.531L399.069 623.052L1346.44 -353.467L1344.96 -354.988Z" fill="white"/>
<path d="M1360.84 -354.923L413.475 621.596L414.95 623.117L1362.32 -353.403L1360.84 -354.923Z" fill="white"/>
<path d="M1376.73 -354.867L429.357 621.652L430.833 623.173L1378.2 -353.346L1376.73 -354.867Z" fill="white"/>
<path d="M1392.76 -354.958L445.387 621.561L446.862 623.081L1394.23 -353.438L1392.76 -354.958Z" fill="white"/>
<path d="M1408.64 -354.898L461.269 621.621L462.744 623.142L1410.11 -353.377L1408.64 -354.898Z" fill="white"/>
<path d="M1424.67 -354.989L477.299 621.53L478.774 623.051L1426.14 -353.468L1424.67 -354.989Z" fill="white"/>
<path d="M1440.55 -354.924L493.182 621.595L494.657 623.116L1442.03 -353.404L1440.55 -354.924Z" fill="white"/>
<path d="M1456.43 -354.867L509.063 621.652L510.539 623.173L1457.91 -353.346L1456.43 -354.867Z" fill="white"/>
<path d="M1472.46 -354.955L525.093 621.564L526.569 623.085L1473.94 -353.434L1472.46 -354.955Z" fill="white"/>
<path d="M1488.34 -354.898L540.976 621.621L542.451 623.142L1489.82 -353.377L1488.34 -354.898Z" fill="white"/>
<path d="M1504.37 -354.991L557.005 621.528L558.481 623.049L1505.85 -353.47L1504.37 -354.991Z" fill="white"/>
<path d="M1520.26 -354.929L572.887 621.59L574.363 623.111L1521.73 -353.408L1520.26 -354.929Z" fill="white"/>
<path d="M1536.14 -354.869L588.769 621.65L590.244 623.171L1537.61 -353.348L1536.14 -354.869Z" fill="white"/>
<path d="M1552.17 -354.957L604.8 621.562L606.275 623.083L1553.64 -353.436L1552.17 -354.957Z" fill="white"/>
<path d="M1568.05 -354.9L620.681 621.619L622.157 623.14L1569.53 -353.379L1568.05 -354.9Z" fill="white"/>
<path d="M1584.08 -354.991L636.711 621.528L638.187 623.049L1585.56 -353.47L1584.08 -354.991Z" fill="white"/>
<path d="M1599.96 -354.93L652.594 621.589L654.069 623.11L1601.44 -353.409L1599.96 -354.93Z" fill="white"/>
<path d="M1615.84 -354.866L668.476 621.653L669.951 623.174L1617.32 -353.345L1615.84 -354.866Z" fill="white"/>
<path d="M1631.87 -354.962L684.505 621.557L685.98 623.077L1633.35 -353.442L1631.87 -354.962Z" fill="white"/>
<path d="M1647.76 -354.9L700.388 621.619L701.864 623.14L1649.23 -353.379L1647.76 -354.9Z" fill="white"/>
<path d="M1663.64 -354.839L716.27 621.68L717.745 623.201L1665.11 -353.318L1663.64 -354.839Z" fill="white"/>
<path d="M1679.67 -354.933L732.299 621.586L733.775 623.107L1681.14 -353.412L1679.67 -354.933Z" fill="white"/>
<path d="M1695.55 -354.872L748.182 621.647L749.657 623.168L1697.03 -353.351L1695.55 -354.872Z" fill="white"/>
<path d="M1711.58 -354.963L764.212 621.556L765.687 623.076L1713.06 -353.443L1711.58 -354.963Z" fill="white"/>
<path d="M1727.46 -354.898L780.094 621.621L781.569 623.142L1728.94 -353.377L1727.46 -354.898Z" fill="white"/>
<path d="M1743.35 -354.84L795.977 621.679L797.452 623.2L1744.82 -353.319L1743.35 -354.84Z" fill="white"/>
<path d="M1759.38 -354.933L812.006 621.586L813.481 623.107L1760.85 -353.412L1759.38 -354.933Z" fill="white"/>
<path d="M1775.26 -354.872L827.888 621.647L829.364 623.168L1776.73 -353.351L1775.26 -354.872Z" fill="white"/>
<path d="M1791.29 -354.963L843.918 621.556L845.393 623.076L1792.76 -353.443L1791.29 -354.963Z" fill="white"/>
<path d="M1807.17 -354.904L859.8 621.615L861.275 623.136L1808.64 -353.383L1807.17 -354.904Z" fill="white"/>
<path d="M1823.05 -354.843L875.683 621.676L877.158 623.197L1824.53 -353.322L1823.05 -354.843Z" fill="white"/>
<path d="M1839.08 -354.93L891.712 621.589L893.187 623.11L1840.56 -353.409L1839.08 -354.93Z" fill="white"/>
<path d="M1854.96 -354.873L907.594 621.646L909.07 623.166L1856.44 -353.353L1854.96 -354.873Z" fill="white"/>
<path d="M1870.99 -354.965L923.624 621.554L925.099 623.075L1872.47 -353.444L1870.99 -354.965Z" fill="white"/>
<path d="M1886.88 -354.904L939.507 621.615L940.982 623.136L1888.35 -353.383L1886.88 -354.904Z" fill="white"/>
<path d="M1902.76 -354.839L955.389 621.68L956.864 623.201L1904.23 -353.319L1902.76 -354.839Z" fill="white"/>
<path d="M1918.79 -354.936L971.419 621.583L972.894 623.104L1920.26 -353.415L1918.79 -354.936Z" fill="white"/>
<path d="M1934.67 -354.873L987.301 621.646L988.776 623.166L1936.15 -353.353L1934.67 -354.873Z" fill="white"/>
<path d="M1950.7 -354.963L1003.33 621.557L1004.81 623.077L1952.17 -353.442L1950.7 -354.963Z" fill="white"/>
<path d="M1966.58 -354.905L1019.21 621.614L1020.69 623.135L1968.06 -353.384L1966.58 -354.905Z" fill="white"/>
<path d="M1982.46 -354.846L1035.09 621.673L1036.57 623.194L1983.94 -353.325L1982.46 -354.846Z" fill="white"/>
<path d="M1998.49 -354.937L1051.12 621.582L1052.6 623.103L1999.97 -353.416L1998.49 -354.937Z" fill="white"/>
<path d="M2014.38 -354.875L1067.01 621.645L1068.48 623.165L2015.85 -353.354L2014.38 -354.875Z" fill="white"/>
<path d="M2030.41 -354.968L1083.04 621.551L1084.51 623.072L2031.88 -353.447L2030.41 -354.968Z" fill="white"/>
<path d="M2046.29 -354.906L1098.92 621.613L1100.39 623.134L2047.76 -353.385L2046.29 -354.906Z" fill="white"/>
<path d="M2062.17 -354.843L1114.8 621.676L1116.28 623.197L2063.65 -353.323L2062.17 -354.843Z" fill="white"/>
<path d="M2078.2 -354.937L1130.83 621.582L1132.31 623.103L2079.68 -353.416L2078.2 -354.937Z" fill="white"/>
<path d="M2094.08 -354.879L1146.71 621.64L1148.19 623.16L2095.56 -353.359L2094.08 -354.879Z" fill="white"/>
<path d="M2110.11 -354.964L1162.74 621.555L1164.22 623.076L2111.59 -353.444L2110.11 -354.964Z" fill="white"/>
<path d="M2125.99 -354.906L1178.62 621.613L1180.1 623.134L2127.47 -353.385L2125.99 -354.906Z" fill="white"/>
<path d="M2141.88 -354.849L1194.51 621.67L1195.98 623.191L2143.35 -353.328L2141.88 -354.849Z" fill="white"/>
<path d="M2157.91 -354.939L1210.54 621.58L1212.01 623.101L2159.38 -353.418L2157.91 -354.939Z" fill="white"/>
<path d="M2173.79 -354.877L1226.42 621.643L1227.89 623.163L2175.26 -353.356L2173.79 -354.877Z" fill="white"/>
<path d="M2189.82 -354.969L1242.45 621.55L1243.92 623.071L2191.29 -353.448L2189.82 -354.969Z" fill="white"/>
<path d="M2205.7 -354.91L1258.33 621.609L1259.81 623.13L2207.18 -353.389L2205.7 -354.91Z" fill="white"/>
<path d="M2221.58 -354.85L1274.21 621.669L1275.69 623.19L2223.06 -353.329L2221.58 -354.85Z" fill="white"/>
<path d="M2237.61 -354.936L1290.24 621.583L1291.72 623.104L2239.09 -353.415L2237.61 -354.936Z" fill="white"/>
<path d="M2253.49 -354.881L1306.13 621.638L1307.6 623.159L2254.97 -353.36L2253.49 -354.881Z" fill="white"/>
<path d="M2269.52 -354.971L1322.16 621.548L1323.63 623.069L2271 -353.45L2269.52 -354.971Z" fill="white"/>
<path d="M2285.41 -354.909L1338.04 621.61L1339.51 623.131L2286.88 -353.388L2285.41 -354.909Z" fill="white"/>
<path d="M2301.29 -354.847L1353.92 621.672L1355.39 623.193L2302.76 -353.326L2301.29 -354.847Z" fill="white"/>
<path d="M2317.32 -354.943L1369.95 621.576L1371.42 623.097L2318.79 -353.422L2317.32 -354.943Z" fill="white"/>
<path d="M2333.2 -354.883L1385.83 621.636L1387.31 623.157L2334.68 -353.362L2333.2 -354.883Z" fill="white"/>
<path d="M2349.23 -354.968L1401.86 621.551L1403.34 623.072L2350.71 -353.448L2349.23 -354.968Z" fill="white"/>
<path d="M2365.11 -354.914L1417.74 621.605L1419.22 623.126L2366.59 -353.393L2365.11 -354.914Z" fill="white"/>
<path d="M2380.99 -354.852L1433.63 621.667L1435.1 623.188L2382.47 -353.331L2380.99 -354.852Z" fill="white"/>
<path d="M2397.02 -354.941L1449.66 621.578L1451.13 623.099L2398.5 -353.42L2397.02 -354.941Z" fill="white"/>
<path d="M2412.91 -354.879L1465.54 621.641L1467.01 623.161L2414.38 -353.358L2412.91 -354.879Z" fill="white"/>
<path d="M2428.94 -354.976L1481.57 621.543L1483.04 623.064L2430.41 -353.455L2428.94 -354.976Z" fill="white"/>
<path d="M2444.82 -354.915L1497.45 621.604L1498.92 623.125L2446.29 -353.394L2444.82 -354.915Z" fill="white"/>
<path d="M2460.7 -354.85L1513.33 621.669L1514.81 623.19L2462.18 -353.329L2460.7 -354.85Z" fill="white"/>
<path d="M2476.73 -354.947L1529.36 621.572L1530.84 623.093L2478.21 -353.426L2476.73 -354.947Z" fill="white"/>
<path d="M2492.61 -354.884L1545.24 621.635L1546.72 623.156L2494.09 -353.363L2492.61 -354.884Z" fill="white"/>
<path d="M2508.64 -354.972L1561.27 621.547L1562.75 623.068L2510.12 -353.451L2508.64 -354.972Z" fill="white"/>
<path d="M2524.53 -354.911L1577.16 621.608L1578.63 623.129L2526 -353.39L2524.53 -354.911Z" fill="white"/>
<path d="M2540.41 -354.856L1593.04 621.663L1594.51 623.184L2541.88 -353.335L2540.41 -354.856Z" fill="white"/>
<path d="M2556.44 -354.947L1609.07 621.572L1610.54 623.093L2557.91 -353.426L2556.44 -354.947Z" fill="white"/>
<path d="M2572.32 -354.881L1624.95 621.638L1626.43 623.159L2573.79 -353.361L2572.32 -354.881Z" fill="white"/>
<path d="M2588.35 -354.978L1640.98 621.541L1642.45 623.062L2589.82 -353.457L2588.35 -354.978Z" fill="white"/>
<path d="M2604.23 -354.917L1656.86 621.602L1658.34 623.122L2605.71 -353.397L2604.23 -354.917Z" fill="white"/>
<path d="M2620.11 -354.857L1672.74 621.662L1674.22 623.183L2621.59 -353.336L2620.11 -354.857Z" fill="white"/>
<path d="M2636.14 -354.944L1688.77 621.575L1690.25 623.096L2637.62 -353.423L2636.14 -354.944Z" fill="white"/>
<path d="M2652.03 -354.887L1704.66 621.632L1706.13 623.153L2653.5 -353.366L2652.03 -354.887Z" fill="white"/>
<path d="M2668.06 -354.978L1720.69 621.541L1722.16 623.062L2669.53 -353.457L2668.06 -354.978Z" fill="white"/>
<path d="M2683.94 -354.915L1736.57 621.604L1738.04 623.125L2685.41 -353.394L2683.94 -354.915Z" fill="white"/>
<path d="M2699.82 -354.853L1752.45 621.666L1753.93 623.187L2701.29 -353.332L2699.82 -354.853Z" fill="white"/>
<path d="M2715.85 -354.95L1768.48 621.569L1769.96 623.09L2717.33 -353.429L2715.85 -354.95Z" fill="white"/>
</g>
</svg>
