<svg width="179" height="50" viewBox="0 0 179 50" fill="none" xmlns="http://www.w3.org/2000/svg">
<path d="M69.72 40V15.72H60.4V11.2H83.86V15.72H74.54V40H69.72ZM85.0656 40V18.4H89.3256V23.66L88.8056 22.98C89.0723 22.26 89.4256 21.6067 89.8656 21.02C90.319 20.42 90.859 19.9267 91.4856 19.54C92.019 19.18 92.6056 18.9 93.2456 18.7C93.899 18.4867 94.5656 18.36 95.2456 18.32C95.9256 18.2667 96.5856 18.2933 97.2256 18.4V22.9C96.5856 22.7133 95.8456 22.6533 95.0056 22.72C94.179 22.7867 93.4323 23.02 92.7656 23.42C92.099 23.78 91.5523 24.24 91.1256 24.8C90.7123 25.36 90.4056 26 90.2056 26.72C90.0056 27.4267 89.9056 28.1933 89.9056 29.02V40H85.0656ZM106.574 40.6C105.014 40.6 103.694 40.3067 102.614 39.72C101.534 39.12 100.714 38.3267 100.154 37.34C99.6077 36.3533 99.3344 35.2667 99.3344 34.08C99.3344 33.04 99.5077 32.1067 99.8544 31.28C100.201 30.44 100.734 29.72 101.454 29.12C102.174 28.5067 103.108 28.0067 104.254 27.62C105.121 27.34 106.134 27.0867 107.294 26.86C108.468 26.6333 109.734 26.4267 111.094 26.24C112.468 26.04 113.901 25.8267 115.394 25.6L113.674 26.58C113.688 25.0867 113.354 23.9867 112.674 23.28C111.994 22.5733 110.848 22.22 109.234 22.22C108.261 22.22 107.321 22.4467 106.414 22.9C105.508 23.3533 104.874 24.1333 104.514 25.24L100.114 23.86C100.648 22.0333 101.661 20.5667 103.154 19.46C104.661 18.3533 106.688 17.8 109.234 17.8C111.154 17.8 112.841 18.1133 114.294 18.74C115.761 19.3667 116.848 20.3933 117.554 21.82C117.941 22.58 118.174 23.36 118.254 24.16C118.334 24.9467 118.374 25.8067 118.374 26.74V40H114.154V35.32L114.854 36.08C113.881 37.64 112.741 38.7867 111.434 39.52C110.141 40.24 108.521 40.6 106.574 40.6ZM107.534 36.76C108.628 36.76 109.561 36.5667 110.334 36.18C111.108 35.7933 111.721 35.32 112.174 34.76C112.641 34.2 112.954 33.6733 113.114 33.18C113.368 32.5667 113.508 31.8667 113.534 31.08C113.574 30.28 113.594 29.6333 113.594 29.14L115.074 29.58C113.621 29.8067 112.374 30.0067 111.334 30.18C110.294 30.3533 109.401 30.52 108.654 30.68C107.908 30.8267 107.248 30.9933 106.674 31.18C106.114 31.38 105.641 31.6133 105.254 31.88C104.868 32.1467 104.568 32.4533 104.354 32.8C104.154 33.1467 104.054 33.5533 104.054 34.02C104.054 34.5533 104.188 35.0267 104.454 35.44C104.721 35.84 105.108 36.16 105.614 36.4C106.134 36.64 106.774 36.76 107.534 36.76ZM138.521 40V29.6C138.521 28.92 138.475 28.1667 138.381 27.34C138.288 26.5133 138.068 25.72 137.721 24.96C137.388 24.1867 136.881 23.5533 136.201 23.06C135.535 22.5667 134.628 22.32 133.481 22.32C132.868 22.32 132.261 22.42 131.661 22.62C131.061 22.82 130.515 23.1667 130.021 23.66C129.541 24.14 129.155 24.8067 128.861 25.66C128.568 26.5 128.421 27.58 128.421 28.9L125.561 27.68C125.561 25.84 125.915 24.1733 126.621 22.68C127.341 21.1867 128.395 20 129.781 19.12C131.168 18.2267 132.875 17.78 134.901 17.78C136.501 17.78 137.821 18.0467 138.861 18.58C139.901 19.1133 140.728 19.7933 141.341 20.62C141.955 21.4467 142.408 22.3267 142.701 23.26C142.995 24.1933 143.181 25.08 143.261 25.92C143.355 26.7467 143.401 27.42 143.401 27.94V40H138.521ZM123.541 40V18.4H127.841V25.1H128.421V40H123.541ZM146.62 40V39.34L158.06 22.62H147.78V18.4H165.56V19.08L154.16 35.78H165.08V40H146.62ZM170.348 15.12V10.7H175.168V15.12H170.348ZM170.348 40V18.4H175.168V40H170.348Z" fill="white"/>
<path d="M37.0435 2.83139C37.47 3.00597 37.8965 3.18055 38.3281 3.34486C38.4129 3.00597 38.4977 2.66708 38.585 2.31792C39.3558 2.57466 39.3558 2.57466 39.5998 3.02137C39.6615 3.20365 39.7257 3.38337 39.7899 3.57078C39.885 3.83779 39.885 3.83779 39.9852 4.11249C40.1265 4.62853 40.1265 4.62853 40.1265 5.39873C39.6666 5.44751 39.2067 5.49629 38.7443 5.5425C38.49 5.57074 38.233 5.59642 37.9684 5.62466C37.3004 5.65546 37.3004 5.65546 36.7866 5.39873C36.7866 5.22929 36.7866 5.05984 36.7866 4.88526C37.1257 4.71582 37.4649 4.54637 37.8143 4.37179C31.543 1.02655 24.9917 0.151088 18.1089 2.06889C14.8127 3.16001 11.8916 4.8904 9.29676 7.19587C9.10407 7.36274 8.91395 7.52962 8.71613 7.7042C4.53099 11.6014 2.02094 17.2419 1.74861 22.926C1.63042 27.3418 2.08517 31.2262 4.15847 35.1799C4.31518 35.5136 4.31518 35.5136 4.47447 35.8525C7.08729 41.131 11.8916 44.6688 17.3356 46.6328C22.014 48.1526 27.53 48.1398 32.1622 46.4762C32.4679 46.3683 32.7762 46.2579 33.0922 46.145C38.955 43.8446 43.2352 39.3415 45.7786 33.6395C47.7106 28.6203 48.2476 22.2533 46.0355 17.2085C45.8531 17.3317 45.6733 17.4575 45.4857 17.5859C43.8415 18.659 42.1972 19.5191 40.368 20.2354C40.1445 20.3227 39.9235 20.41 39.6949 20.4998C37.3107 21.4318 34.8932 22.2584 32.4705 23.08C28.1055 24.5639 23.7662 26.0658 19.5733 27.9913C19.3729 28.0812 19.1726 28.1736 18.967 28.2686C15.9097 29.6755 13.487 31.257 11.3521 33.8962C10.8614 32.6254 11.4882 31.5933 11.9738 30.4021C15.509 22.8387 24.7784 19.7758 32.062 17.1263C32.4602 16.9826 32.8558 16.8388 33.2515 16.695C34.0813 16.3946 34.9086 16.0917 35.7358 15.7888C37.5933 15.1084 39.4534 14.4306 41.3109 13.7554C41.8273 13.5654 42.3437 13.378 42.8601 13.1906C43.8363 12.8337 44.8126 12.4795 45.7889 12.1277C46.0869 12.0173 46.3849 11.9095 46.6932 11.7965C46.9681 11.699 47.2405 11.5989 47.5256 11.4962C47.8853 11.3652 47.8853 11.3652 48.2527 11.2317C48.8616 11.0469 48.8616 11.0469 49.6323 11.0469C49.5219 11.396 49.4088 11.7426 49.2958 12.0892C49.2316 12.2843 49.1699 12.4769 49.1057 12.6771C48.8616 13.3575 48.8616 13.3575 48.4146 14.2175C48.0035 15.4037 48.1988 15.8786 48.6535 17.0313C50.5392 21.9196 50.5393 27.6524 48.8616 32.6125C48.8051 32.782 48.7486 32.9488 48.6895 33.1234C46.5031 39.4417 41.9429 44.3324 36.0801 47.4389C30.3201 50.2142 23.3474 50.8432 17.2611 48.7868C17.0915 48.7303 16.9246 48.6738 16.7498 48.6148C13.2969 47.4235 10.5017 45.5314 7.75527 43.1386C7.59341 43 7.43413 42.8614 7.2697 42.7176C2.99721 38.7485 0.322732 32.651 0.0170041 26.872C-0.227065 19.2033 2.15196 12.518 7.43413 6.89035C15.6143 -0.857876 27.1009 -1.86427 37.0435 2.83139Z" fill="white"/>
<path d="M54 2.06116C53.7739 4.76713 52.402 6.6798 50.4032 8.47951C48.5432 9.88641 46.4416 10.8774 44.2938 11.7657C43.9778 11.8966 43.9778 11.8966 43.6567 12.0301C41.3239 12.998 38.968 13.9017 36.6095 14.8003C36.1856 14.9646 35.7591 15.1289 35.3326 15.2907C33.3801 16.0403 31.4224 16.7797 29.4621 17.5114C18.9723 21.3059 18.9723 21.3059 11.6091 29.275C10.1499 32.5252 9.95717 35.7806 9.81073 39.2876C9.64117 39.2876 9.47161 39.2876 9.2969 39.2876C7.8736 34.2607 7.9815 28.0914 10.453 23.4112C11.5038 21.6782 12.7807 20.2097 14.1783 18.7489C14.3144 18.5948 14.4506 18.4382 14.5893 18.279C20.6859 11.5963 31.502 9.25998 39.785 6.53603C41.3932 6.00716 42.999 5.47058 44.6072 4.93401C45.157 4.74916 45.7094 4.56688 46.2592 4.3846C47.3177 4.03031 48.3762 3.67601 49.4321 3.31659C49.6839 3.23186 49.9356 3.14714 50.1926 3.05985C50.6627 2.90068 51.1303 2.7415 51.5979 2.58233C51.9036 2.47963 51.9036 2.47963 52.217 2.37181C52.3943 2.31276 52.5742 2.25114 52.7566 2.18952C53.2293 2.06116 53.2293 2.06116 54 2.06116Z" fill="white"/>
<path d="M45.0079 19.519C44.5891 21.994 43.3174 23.8399 41.411 25.4239C39.7283 26.5715 37.9658 27.3905 36.0647 28.1042C35.7872 28.2095 35.5123 28.3147 35.2271 28.4226C32.2854 29.524 29.3001 30.4919 26.3173 31.4726C17.9625 33.5906 17.9625 33.5906 11.4317 38.502C11.3212 38.7613 11.2107 39.0206 11.0951 39.2876C10.9256 39.2876 10.756 39.2876 10.5813 39.2876C10.6455 36.5148 11.6424 34.4199 13.5487 32.4097C18.4968 27.9528 25.5491 26.0221 31.7125 23.8733C32.7402 23.5138 33.7678 23.1518 34.7955 22.7898C35.8822 22.4073 36.969 22.0273 38.0557 21.6448C38.5901 21.4574 39.1219 21.27 39.6563 21.0826C40.4039 20.8207 41.1541 20.5614 41.9018 20.2995C42.1278 20.2199 42.3514 20.1429 42.5851 20.0608C42.7907 19.9889 42.9988 19.917 43.212 19.8425C43.3919 19.7809 43.5717 19.7167 43.7592 19.6525C44.2371 19.519 44.2371 19.519 45.0079 19.519Z" fill="white"/>
</svg>
