<svg width="865" height="144" viewBox="0 0 865 144" fill="none" xmlns="http://www.w3.org/2000/svg">
<g opacity="0.4">
<path d="M12.2497 -695.924L-825.886 142.632L-824.58 143.938L13.555 -694.618L12.2497 -695.924Z" fill="white"/>
<path d="M26.3009 -695.872L-811.834 142.684L-810.529 143.99L27.6062 -694.566L26.3009 -695.872Z" fill="white"/>
<path d="M40.4821 -695.951L-797.653 142.606L-796.348 143.912L41.7874 -694.645L40.4821 -695.951Z" fill="white"/>
<path d="M54.5329 -695.899L-783.603 142.658L-782.297 143.964L55.8382 -694.593L54.5329 -695.899Z" fill="white"/>
<path d="M68.7148 -695.977L-769.421 142.58L-768.115 143.886L70.0201 -694.671L68.7148 -695.977Z" fill="white"/>
<path d="M82.7657 -695.926L-755.37 142.631L-754.064 143.937L84.071 -694.62L82.7657 -695.926Z" fill="white"/>
<path d="M96.8166 -695.872L-741.319 142.684L-740.014 143.99L98.1219 -694.566L96.8166 -695.872Z" fill="white"/>
<path d="M110.998 -695.952L-727.137 142.604L-725.832 143.91L112.304 -694.646L110.998 -695.952Z" fill="white"/>
<path d="M125.049 -695.9L-713.086 142.657L-711.781 143.963L126.354 -694.594L125.049 -695.9Z" fill="white"/>
<path d="M139.231 -695.978L-698.905 142.578L-697.599 143.884L140.536 -694.672L139.231 -695.978Z" fill="white"/>
<path d="M153.282 -695.926L-684.854 142.631L-683.548 143.937L154.587 -694.62L153.282 -695.926Z" fill="white"/>
<path d="M167.333 -695.874L-670.803 142.683L-669.497 143.989L168.638 -694.568L167.333 -695.874Z" fill="white"/>
<path d="M181.514 -695.953L-656.621 142.603L-655.316 143.909L182.819 -694.647L181.514 -695.953Z" fill="white"/>
<path d="M195.565 -695.901L-642.57 142.656L-641.265 143.961L196.871 -694.595L195.565 -695.901Z" fill="white"/>
<path d="M209.746 -695.98L-628.389 142.577L-627.084 143.883L211.052 -694.674L209.746 -695.98Z" fill="white"/>
<path d="M223.798 -695.927L-614.338 142.629L-613.032 143.935L225.103 -694.621L223.798 -695.927Z" fill="white"/>
<path d="M237.848 -695.875L-600.287 142.681L-598.982 143.987L239.153 -694.57L237.848 -695.875Z" fill="white"/>
<path d="M252.03 -695.953L-586.105 142.603L-584.8 143.909L253.336 -694.647L252.03 -695.953Z" fill="white"/>
<path d="M266.081 -695.903L-572.055 142.654L-570.749 143.96L267.386 -694.597L266.081 -695.903Z" fill="white"/>
<path d="M280.262 -695.981L-557.873 142.576L-556.568 143.882L281.568 -694.675L280.262 -695.981Z" fill="white"/>
<path d="M294.314 -695.929L-543.821 142.628L-542.516 143.934L295.619 -694.623L294.314 -695.929Z" fill="white"/>
<path d="M308.364 -695.877L-529.771 142.68L-528.466 143.986L309.67 -694.571L308.364 -695.877Z" fill="white"/>
<path d="M322.546 -695.955L-515.59 142.602L-514.284 143.908L323.851 -694.649L322.546 -695.955Z" fill="white"/>
<path d="M336.597 -695.904L-501.539 142.653L-500.233 143.959L337.902 -694.598L336.597 -695.904Z" fill="white"/>
<path d="M350.778 -695.981L-487.357 142.576L-486.052 143.882L352.084 -694.675L350.778 -695.981Z" fill="white"/>
<path d="M364.829 -695.93L-473.306 142.626L-472.001 143.932L366.135 -694.624L364.829 -695.93Z" fill="white"/>
<path d="M378.88 -695.878L-459.255 142.679L-457.95 143.985L380.186 -694.572L378.88 -695.878Z" fill="white"/>
<path d="M393.061 -695.956L-445.074 142.6L-443.769 143.906L394.367 -694.651L393.061 -695.956Z" fill="white"/>
<path d="M407.113 -695.904L-431.023 142.653L-429.717 143.959L408.418 -694.598L407.113 -695.904Z" fill="white"/>
<path d="M421.294 -695.984L-416.841 142.573L-415.536 143.879L422.599 -694.678L421.294 -695.984Z" fill="white"/>
<path d="M435.345 -695.931L-402.79 142.625L-401.485 143.931L436.65 -694.625L435.345 -695.931Z" fill="white"/>
<path d="M449.396 -695.879L-388.74 142.677L-387.434 143.983L450.701 -694.573L449.396 -695.879Z" fill="white"/>
<path d="M463.578 -695.957L-374.557 142.599L-373.252 143.905L464.883 -694.651L463.578 -695.957Z" fill="white"/>
<path d="M477.629 -695.905L-360.506 142.651L-359.201 143.957L478.934 -694.599L477.629 -695.905Z" fill="white"/>
<path d="M491.81 -695.984L-346.325 142.573L-345.02 143.879L493.115 -694.678L491.81 -695.984Z" fill="white"/>
<path d="M505.861 -695.932L-332.275 142.625L-330.969 143.931L507.166 -694.626L505.861 -695.932Z" fill="white"/>
<path d="M519.912 -695.881L-318.224 142.676L-316.918 143.982L521.217 -694.575L519.912 -695.881Z" fill="white"/>
<path d="M534.094 -695.959L-304.042 142.598L-302.737 143.904L535.399 -694.653L534.094 -695.959Z" fill="white"/>
<path d="M548.144 -695.907L-289.991 142.65L-288.686 143.955L549.45 -694.601L548.144 -695.907Z" fill="white"/>
<path d="M562.326 -695.985L-275.809 142.571L-274.504 143.877L563.632 -694.679L562.326 -695.985Z" fill="white"/>
<path d="M576.377 -695.933L-261.759 142.624L-260.453 143.93L577.682 -694.627L576.377 -695.933Z" fill="white"/>
<path d="M590.428 -695.881L-247.707 142.676L-246.402 143.982L591.734 -694.575L590.428 -695.881Z" fill="white"/>
<path d="M604.61 -695.96L-233.526 142.596L-232.221 143.902L605.915 -694.654L604.61 -695.96Z" fill="white"/>
<path d="M618.661 -695.907L-219.475 142.65L-218.17 143.956L619.966 -694.601L618.661 -695.907Z" fill="white"/>
<path d="M632.842 -695.986L-205.294 142.57L-203.988 143.876L634.147 -694.68L632.842 -695.986Z" fill="white"/>
<path d="M646.893 -695.934L-191.243 142.622L-189.937 143.928L648.198 -694.628L646.893 -695.934Z" fill="white"/>
<path d="M660.944 -695.882L-177.192 142.674L-175.886 143.98L662.249 -694.576L660.944 -695.882Z" fill="white"/>
<path d="M675.125 -695.962L-163.01 142.595L-161.705 143.901L676.43 -694.656L675.125 -695.962Z" fill="white"/>
<path d="M689.176 -695.91L-148.96 142.647L-147.654 143.953L690.481 -694.604L689.176 -695.91Z" fill="white"/>
<path d="M703.358 -695.988L-134.777 142.569L-133.472 143.875L704.664 -694.682L703.358 -695.988Z" fill="white"/>
<path d="M717.409 -695.936L-120.727 142.621L-119.421 143.927L718.714 -694.63L717.409 -695.936Z" fill="white"/>
<path d="M731.46 -695.883L-106.675 142.673L-105.37 143.979L732.765 -694.577L731.46 -695.883Z" fill="white"/>
<path d="M745.641 -695.962L-92.494 142.595L-91.1887 143.901L746.947 -694.656L745.641 -695.962Z" fill="white"/>
<path d="M759.692 -695.91L-78.4431 142.647L-77.1378 143.953L760.998 -694.604L759.692 -695.91Z" fill="white"/>
<path d="M773.874 -695.989L-64.2614 142.567L-62.956 143.873L775.179 -694.683L773.874 -695.989Z" fill="white"/>
<path d="M787.925 -695.937L-50.2111 142.62L-48.9058 143.926L789.23 -694.631L787.925 -695.937Z" fill="white"/>
<path d="M801.976 -695.885L-36.1595 142.672L-34.8542 143.978L803.281 -694.579L801.976 -695.885Z" fill="white"/>
<path d="M816.157 -695.963L-21.9785 142.593L-20.6732 143.899L817.462 -694.657L816.157 -695.963Z" fill="white"/>
<path d="M830.208 -695.911L-7.92749 142.646L-6.62219 143.952L831.513 -694.605L830.208 -695.911Z" fill="white"/>
<path d="M844.389 -695.991L6.25403 142.566L7.55933 143.872L845.695 -694.685L844.389 -695.991Z" fill="white"/>
<path d="M858.441 -695.937L20.3053 142.62L21.6106 143.926L859.746 -694.631L858.441 -695.937Z" fill="white"/>
<path d="M872.491 -695.886L34.3561 142.67L35.6614 143.976L873.797 -694.58L872.491 -695.886Z" fill="white"/>
<path d="M886.673 -695.964L48.5377 142.592L49.843 143.898L887.979 -694.659L886.673 -695.964Z" fill="white"/>
<path d="M900.724 -695.912L62.5885 142.644L63.8938 143.95L902.029 -694.606L900.724 -695.912Z" fill="white"/>
<path d="M914.905 -695.99L76.77 142.566L78.0753 143.872L916.211 -694.685L914.905 -695.99Z" fill="white"/>
<path d="M928.956 -695.938L90.8209 142.618L92.1262 143.924L930.262 -694.632L928.956 -695.938Z" fill="white"/>
<path d="M943.007 -695.887L104.871 142.669L106.177 143.975L944.312 -694.581L943.007 -695.887Z" fill="white"/>
<path d="M957.189 -695.965L119.054 142.591L120.359 143.897L958.495 -694.659L957.189 -695.965Z" fill="white"/>
<path d="M971.239 -695.914L133.104 142.643L134.409 143.949L972.545 -694.608L971.239 -695.914Z" fill="white"/>
<path d="M985.422 -695.992L147.286 142.565L148.591 143.871L986.727 -694.686L985.422 -695.992Z" fill="white"/>
<path d="M999.472 -695.94L161.337 142.617L162.642 143.923L1000.78 -694.634L999.472 -695.94Z" fill="white"/>
<path d="M1013.52 -695.888L175.388 142.669L176.693 143.975L1014.83 -694.582L1013.52 -695.888Z" fill="white"/>
<path d="M1027.7 -695.966L189.569 142.591L190.874 143.897L1029.01 -694.66L1027.7 -695.966Z" fill="white"/>
<path d="M1041.76 -695.915L203.621 142.642L204.926 143.948L1043.06 -694.609L1041.76 -695.915Z" fill="white"/>
<path d="M1055.81 -695.863L217.671 142.694L218.976 144L1057.11 -694.557L1055.81 -695.863Z" fill="white"/>
<path d="M1069.99 -695.941L231.853 142.616L233.158 143.921L1071.29 -694.635L1069.99 -695.941Z" fill="white"/>
<path d="M1084.04 -695.889L245.904 142.668L247.209 143.974L1085.34 -694.583L1084.04 -695.889Z" fill="white"/>
<path d="M1098.22 -695.969L260.085 142.588L261.391 143.894L1099.53 -694.663L1098.22 -695.969Z" fill="white"/>
<path d="M1112.27 -695.916L274.136 142.641L275.441 143.946L1113.58 -694.61L1112.27 -695.916Z" fill="white"/>
<path d="M1126.32 -695.863L288.188 142.694L289.493 144L1127.63 -694.557L1126.32 -695.863Z" fill="white"/>
<path d="M1140.5 -695.942L302.369 142.614L303.674 143.92L1141.81 -694.636L1140.5 -695.942Z" fill="white"/>
<path d="M1154.56 -695.89L316.42 142.667L317.725 143.972L1155.86 -694.584L1154.56 -695.89Z" fill="white"/>
<path d="M1168.74 -695.969L330.601 142.588L331.906 143.894L1170.04 -694.663L1168.74 -695.969Z" fill="white"/>
<path d="M1182.79 -695.916L344.652 142.64L345.957 143.946L1184.09 -694.61L1182.79 -695.916Z" fill="white"/>
<path d="M1196.84 -695.866L358.703 142.691L360.008 143.997L1198.14 -694.56L1196.84 -695.866Z" fill="white"/>
<path d="M1211.02 -695.944L372.884 142.613L374.19 143.919L1212.33 -694.638L1211.02 -695.944Z" fill="white"/>
<path d="M1225.07 -695.892L386.936 142.665L388.241 143.971L1226.38 -694.586L1225.07 -695.892Z" fill="white"/>
<path d="M1239.25 -695.97L401.117 142.586L402.422 143.892L1240.56 -694.664L1239.25 -695.97Z" fill="white"/>
<path d="M1253.3 -695.917L415.168 142.639L416.474 143.945L1254.61 -694.612L1253.3 -695.917Z" fill="white"/>
<path d="M1267.35 -695.866L429.219 142.691L430.525 143.997L1268.66 -694.56L1267.35 -695.866Z" fill="white"/>
<path d="M1281.54 -695.944L443.401 142.613L444.706 143.919L1282.84 -694.638L1281.54 -695.944Z" fill="white"/>
<path d="M1295.59 -695.892L457.451 142.665L458.757 143.971L1296.89 -694.586L1295.59 -695.892Z" fill="white"/>
<path d="M1309.77 -695.971L471.633 142.585L472.938 143.891L1311.07 -694.665L1309.77 -695.971Z" fill="white"/>
<path d="M1323.82 -695.919L485.684 142.637L486.989 143.943L1325.12 -694.613L1323.82 -695.919Z" fill="white"/>
<path d="M1337.87 -695.867L499.735 142.69L501.04 143.996L1339.18 -694.561L1337.87 -695.867Z" fill="white"/>
<path d="M1352.05 -695.947L513.916 142.61L515.222 143.916L1353.36 -694.641L1352.05 -695.947Z" fill="white"/>
<path d="M1366.1 -695.894L527.967 142.662L529.272 143.968L1367.41 -694.588L1366.1 -695.894Z" fill="white"/>
<path d="M1380.28 -695.973L542.149 142.584L543.454 143.89L1381.59 -694.667L1380.28 -695.973Z" fill="white"/>
<path d="M1394.34 -695.92L556.2 142.636L557.505 143.942L1395.64 -694.614L1394.34 -695.92Z" fill="white"/>
<path d="M1408.39 -695.869L570.251 142.688L571.556 143.994L1409.69 -694.563L1408.39 -695.869Z" fill="white"/>
<path d="M1422.57 -695.947L584.432 142.61L585.738 143.916L1423.87 -694.641L1422.57 -695.947Z" fill="white"/>
<path d="M1436.62 -695.894L598.483 142.662L599.789 143.968L1437.92 -694.588L1436.62 -695.894Z" fill="white"/>
<path d="M1450.8 -695.974L612.665 142.583L613.97 143.889L1452.11 -694.668L1450.8 -695.974Z" fill="white"/>
<path d="M1464.85 -695.922L626.716 142.635L628.021 143.941L1466.16 -694.616L1464.85 -695.922Z" fill="white"/>
<path d="M1478.9 -695.87L640.766 142.687L642.071 143.993L1480.21 -694.564L1478.9 -695.87Z" fill="white"/>
<path d="M1493.08 -695.948L654.948 142.609L656.253 143.915L1494.39 -694.642L1493.08 -695.948Z" fill="white"/>
<path d="M1507.13 -695.897L668.999 142.66L670.304 143.966L1508.44 -694.591L1507.13 -695.897Z" fill="white"/>
<path d="M1521.32 -695.974L683.181 142.583L684.486 143.888L1522.62 -694.668L1521.32 -695.974Z" fill="white"/>
<path d="M1535.37 -695.922L697.232 142.635L698.537 143.941L1536.67 -694.616L1535.37 -695.922Z" fill="white"/>
<path d="M1549.42 -695.87L711.283 142.687L712.588 143.993L1550.72 -694.564L1549.42 -695.87Z" fill="white"/>
<path d="M1563.6 -695.949L725.464 142.608L726.77 143.914L1564.91 -694.643L1563.6 -695.949Z" fill="white"/>
<path d="M1577.65 -695.897L739.515 142.66L740.82 143.966L1578.96 -694.591L1577.65 -695.897Z" fill="white"/>
<path d="M1591.83 -695.975L753.696 142.581L755.002 143.887L1593.14 -694.669L1591.83 -695.975Z" fill="white"/>
<path d="M1605.88 -695.925L767.747 142.632L769.053 143.938L1607.19 -694.619L1605.88 -695.925Z" fill="white"/>
<path d="M1619.93 -695.872L781.798 142.684L783.104 143.99L1621.24 -694.566L1619.93 -695.872Z" fill="white"/>
<path d="M1634.12 -695.951L795.98 142.606L797.285 143.912L1635.42 -694.645L1634.12 -695.951Z" fill="white"/>
<path d="M1648.17 -695.899L810.031 142.658L811.336 143.964L1649.47 -694.593L1648.17 -695.899Z" fill="white"/>
<path d="M1662.35 -695.977L824.212 142.58L825.518 143.886L1663.65 -694.671L1662.35 -695.977Z" fill="white"/>
<path d="M1676.4 -695.925L838.263 142.632L839.569 143.938L1677.7 -694.619L1676.4 -695.925Z" fill="white"/>
<path d="M1690.45 -695.873L852.314 142.684L853.62 143.99L1691.75 -694.567L1690.45 -695.873Z" fill="white"/>
</g>
</svg>
