<svg width="200" height="160" viewBox="0 0 200 160" fill="none" xmlns="http://www.w3.org/2000/svg">
<path fill-rule="evenodd" clip-rule="evenodd" d="M94.6947 50.6839C91.656 51.0027 88.6013 51.5121 85.5519 52.2002C62.8424 57.3359 40.5301 72.5175 27.2812 98.6206C23.0495 106.955 19.8323 115.596 17.8789 124.549C15.9359 133.457 15.2457 142.625 15.4548 151.948C15.4525 152.729 16.0793 153.365 16.8548 153.371C17.6309 153.375 18.2624 152.747 18.2647 151.967C18.5394 142.919 19.872 134.117 22.0092 125.533C24.1411 116.986 27.0882 108.647 31.2071 100.655C43.9126 76.0204 65.0989 61.7583 86.6266 57.0018C88.8201 56.5177 91.0156 56.1343 93.2024 55.8537C92.1716 59.914 91.4769 64.0153 91.1159 68.0848C88.8544 93.6739 99.88 117.99 125.638 125.027C141.4 129.46 152.651 122.675 157.891 111.887C162.872 101.631 162.249 87.566 154.866 76.0117C143.375 58.0365 121.809 49.0905 98.9156 50.3354C104.16 35.2924 114.319 21.371 128.963 12.5566C140.276 5.74578 152.464 3.47352 164.061 4.15073C172.907 4.66504 181.301 7.17018 188.982 10.3573C192.543 11.8338 195.992 13.2602 199.173 15.0915C199.409 15.26 199.737 15.2035 199.904 14.9669C200.071 14.7302 200.014 14.4003 199.778 14.2317C196.912 11.7465 193.855 9.35267 190.369 7.433C182.687 3.21015 173.617 0.840648 164.311 0.167044C151.966 -0.721766 138.976 1.88831 126.926 9.15074C110.939 18.7857 100.052 34.184 94.6947 50.6839ZM97.3429 55.4279C96.1653 59.7437 95.3932 64.1076 95.0248 68.437C93.0368 91.9425 103.082 114.412 126.784 120.69C139.81 124.034 148.931 118.491 153.147 109.582C157.337 100.74 156.835 88.735 150.531 78.8007C139.733 61.7843 119.061 53.7756 97.3429 55.4279Z" fill="#FF5C01"/>
<path fill-rule="evenodd" clip-rule="evenodd" d="M16.3268 152.396C15.0615 147.699 13.1753 140.62 12.9791 139.854L9.1839 126.414L1.80582 104.894C1.66559 104.399 1.15277 104.117 0.665136 104.258C0.175119 104.398 -0.104428 104.913 0.0364674 105.406L7.91875 141.131C8.14421 142.054 10.6733 152.245 11.7705 156.321C12.4328 158.781 13.9371 159.829 13.9931 159.847C14.8225 160.132 16.2016 160.128 17.5251 158.865C19.2361 157.229 22.1648 151.702 22.4973 151.154L38.6877 125.056C44.1635 116.034 46.6407 113.521 44.5126 112.015C44.0939 111.681 43.5533 111.658 42.2459 112.316C41.8493 112.515 41.5502 112.973 41.1752 113.419C38.7558 116.285 35.6449 121.967 35.1365 122.675L18.0601 148.347C17.9129 148.577 17.1882 150.619 16.3268 152.396Z" fill="#FF5C01"/>
</svg>
