<svg width="1590" height="728" viewBox="0 0 1590 728" fill="none" xmlns="http://www.w3.org/2000/svg">
<g opacity="0.06">
<path d="M975.722 224.269L950.721 207.045L950.254 204.181L959.063 193.402L945.02 196.739L941.452 202.244L948.108 205.349L939.081 208.227L937.652 210.617L928.356 204.169L932.172 200.578L921.479 197.211L915.282 204.164L914.578 207.743L911.715 208.938L910.038 215.869L907.671 217.313L908.145 223.761H905.528L922.429 231.65L941.933 224.955L971.897 232.375L977.131 227.115L975.722 224.269Z" fill="#104B59"/>
<path d="M1042.79 252.7L1040.65 242.91L1034.22 236.67L1034.93 233.568L1041.6 230.23L1034.44 229.988L1023.28 205.122L1028.02 206.077L1028.26 197.467L1021.38 194.354L1001.16 208.708L1002.11 212.532L1006.38 213.487L1004.96 218.026L1022.56 237.633L1021.14 237.88L1020.42 243.37L1017.32 246.724L1031.59 259.387L1044.45 257.476L1042.79 252.7Z" fill="#104B59"/>
<path d="M821.972 151.464L832.421 147.487L834.164 150.827L836.406 151.785L867.963 144.135L866.357 139.016L873.985 130.098L880.325 132.166L880.005 126.276L875.719 123.413L876.377 121.172L895.397 119.735L900.784 114.946L898.879 113.515L870.634 116.697L867.95 114.788L865.416 98.2008L881.427 86.0883L880.789 83.8594L857.015 95.804L855.593 120.841L848.93 124.679L846.691 130.406L848.132 132.322L845.434 138.542L838.132 142.837L840.349 144.128L838.937 145.399L828.318 142.37L827.199 146.68L821.957 151.146L821.972 151.148V151.464Z" fill="#104B59"/>
<path d="M946.932 259.651L940.514 262.771L925.282 259.155L919.338 262.27L908.398 257.963L895.294 234.049L890.325 238.586L885.309 236.201L884.361 240.756L891.496 250.074L886.763 253.656L885.218 259.017L879.841 258.444L864.626 237.633L865.559 234.051L832.502 200.817L827.99 206.803L845.601 225.461L846.067 227.851L860.101 235.254L859.377 238.129L854.874 235.495L850.56 237.406L853.927 243.138L851.771 244.838L852.011 246.507L844.864 251.523L843.678 255.823L840.116 258.227L828.203 250.807L840.342 251.271L846.995 243.382L815.137 212.058L809.654 210.861L797.535 219.221L789.443 216.588L782.308 218.745L780.874 227.123L771.124 231.911L764.24 242.666L765.411 246.732L762.079 248.176L760.184 253.191L737.591 262.529L736.403 265.375L741.387 269.456L812.537 254.608L818.706 257.235L825.365 282.835L842.984 288.815L847.509 294.076L864.626 300.042L872.704 284.728L881.496 281.64L881.99 283.071L928.361 292.886L946.923 286.196L953.353 269.206L946.932 259.651Z" fill="#104B59"/>
<path d="M1100.74 36.3319L1101.03 36.2163L1100.74 36.3319Z" fill="#104B59"/>
<path d="M1438.05 487.541L1446.6 491.375L1456.45 487.865L1458.35 483.73L1457.07 480.852L1449.16 485.623L1431.06 483.392L1425.37 529.314L1431.06 527.722L1431.7 509.552L1436.79 513.373L1442.5 526.769L1446.23 524.698L1446.29 524.849L1446.23 524.698L1446.24 524.696L1439.01 504.132L1446.3 498.074L1433.94 499.985L1430.44 494.892L1431.41 488.492L1438.05 487.541Z" fill="#104B59"/>
<path d="M1463.72 447.985L1454.22 413.894L1432.35 396.685L1434.56 382.644L1429.16 371.808L1425.03 373.4L1423.45 387.433L1420.93 389.65L1422.82 398.269L1426.95 401.13L1426.01 405.904L1430.14 411.67L1432.35 412.29L1433.3 405.27L1449.47 418.345L1445.01 420.263L1438.36 416.77L1438.68 426.636L1441.86 427.589L1442.82 432.069L1447.26 433.015L1451.38 430.786L1447.57 422.82L1451.38 420.258L1455.81 433.987L1451.47 437.47L1449.15 437.169L1440.91 441.303L1439.94 449.61L1446.29 444.169L1448.84 443.866L1450.41 445.438L1451.04 450.891L1458.35 457.886L1460.24 448.953H1460.24L1463.72 447.985Z" fill="#104B59"/>
<path d="M1407.32 516.373L1407.91 515.903L1407.32 516.373Z" fill="#104B59"/>
<path d="M1280.18 388.064L1285.09 384.224L1295.72 423.928L1293.49 424.728L1294.45 443.542L1298.42 442.261L1308.7 460.761L1307.62 463.785L1330.6 488.04L1299.54 423.446L1302.87 408.165L1305.39 406.392L1307.45 409.263L1307.15 413.906L1312.84 412.776L1324.75 427.593L1327.61 426.641L1331.25 429.21L1330.61 438.289L1353.93 418.191L1351.87 399.064L1359.85 392.822L1357.92 382.146L1370.79 371.932L1376.66 372.884L1377.75 379.904L1379.83 381.018L1388.39 370.976L1392.82 372.568L1412.96 362.522L1404.84 297.817L1397.55 300.219L1396.58 292.085L1398.15 288.743L1378.04 269.45L1388.35 256.047L1391.83 256.363L1379.47 251.907L1371.39 255.417L1370.91 251.747L1361.71 247.923L1361.87 244.574L1375.95 232.765L1379.13 235.475L1377.23 239.931L1378.36 246.487L1392.29 239.77L1397.7 241.523L1398.66 251.105L1409.91 256.995L1415 267.537L1413.56 271.835L1417.05 275.182L1426.1 271.674L1425.78 254.136L1408.5 241.528L1415.79 234.364L1415.15 228.151L1421.81 218.895L1426.88 222.42L1434.5 217.626L1438.94 182.071L1423.4 155.119L1408.16 150.187L1405.32 154.961L1398.19 143.974L1395.96 147.948L1387.71 145.551L1398.66 120.847L1437.04 119.11L1438.16 122.141L1454.78 120.374L1449.24 108.261L1459.88 104.603L1468.9 113.195L1474.72 106.615L1474.71 106.61L1474.91 106.659L1474.71 106.607L1471.46 102.687L1475.57 101.243L1480.17 109.693L1473.66 134.401L1508.25 169.64L1510.14 169.169L1511.1 161.662L1508.25 158.816L1513.16 156.871L1508.4 150.819L1509.98 147.482L1513.64 148.595L1506.18 138.227L1509.06 139.331L1495.73 127.068L1492.54 127.529L1490.79 124.042L1491.74 121.331L1488.43 116.715L1495.83 114.158L1499.19 115.094L1500.93 117.656L1504.28 114.469L1517.7 116.871L1517.89 112.383L1525.69 103.45L1541.24 102.033L1522.69 92.1424L1522.83 89.4296L1526.01 86.0874L1524.26 83.3771L1559.78 91.3476L1559.31 83.2216L1446.4 58.661L1455.13 65.9971L1405.16 61.86L1400.73 57.0565L1305.28 47.0274L1312.38 52.4505L1284.48 49.7328L1284.66 56.274L1239.77 40.1825L1235.02 44.7984L1221.54 44.322L1219.14 41.7722L1201.38 41.9326L1194.56 36.9687L1189.49 38.114L1185.68 42.2486L1174.91 43.0508L1190.62 33.8042L1187.12 28.8501L1089.08 36.2133L1093.86 40.185L1072.89 41.7697L1087.04 50.5301L1064.98 47.3434L1062.92 50.0586L1065.64 53.0923L1065.79 55.4817L1051.2 43.8333L1064.97 66.9499L1068.46 64.5629L1068.01 66.4685L1067.2 66.7845L1066.42 78.7439L1061.97 79.6967L1057.86 78.2626L1062.61 74.6044L1063.25 69.6528L1048.82 53.0873L1048.03 45.5859L1037.7 41.7672L1034.23 43.3569L1032.01 49.249L1032.64 51.6433L1028.2 54.6819L1042.3 70.7809L1000.59 57.5527L997.263 59.3003L1005.2 68.5519L954.297 77.4702L950.821 74.9401L954.783 71.7509L950.337 67.4436L939.762 67.4757L944.317 76.3767L947.319 77.7936L946.833 80.5162L930.04 84.9914L932.262 88.0152L929.551 89.6148L920.683 86.5836L916.386 87.8597L917.965 90.5651L923.359 91.8388L910.214 89.4444L903.246 79.4079L933.212 77.9861L934.626 74.7747L933.678 72.0694L885.306 61.5589L888.5 57.565L818.394 69.2035L825.055 69.8404L804.917 96.6176L790.164 97.41L783.829 103.475L784.136 123.901L788.585 126.912L808.73 120.712L814.104 131.699L813.471 139.343L806.186 141.269L808.244 138.094L805.855 133.135L806.341 129.63L798.892 131.699L797.78 148.131L799.047 150.199L796.658 153.225L778.428 157.533L776.996 165.034L753.687 180.324L745.769 176.498L747.35 185.125L734.661 183.041L731.491 187.04L744.18 194.364L748.617 204.242L743.065 217.332L717.057 215.718L715.933 214.449H713.082L710.706 217.15L707.219 217.325L706.274 253.344L717.548 257.182L719.92 262.27L721.342 263.227L721.815 264.516L702.945 283.794L698.972 301.816L687.084 313.136L680.742 314.57L669.475 329.729V335.144L657.108 353.793L660.278 366.081L658.068 368.297L656.634 394.776L652.817 397.797L652.974 399.715L656.31 402.416L658.225 417.74L706.102 464.753L733.389 459.981L737.814 462.055L769.695 451.697L775.73 454.062L782.393 465.55L796.992 464.442L803.481 470.514L797.944 498.101L822.683 545.279L820.142 548.787L847.888 693.89L845.519 700.103L849.943 710.319L855.008 713.173L894.515 705.851L924.488 673.794L927.336 657.236L941.442 646.22L941.122 617.189L972.682 591.69L968.378 519.129L1032.47 416.451L995.046 425.685L988.702 419.001L989.652 414.222L931.287 315.049L937.788 314.412L984.101 388.56L978.537 383.441L977.428 386.813L991.393 411.517L1000.28 409.769L1001.86 406.247L1053.25 383.444L1054.67 378.03L1059.73 377.709L1061.16 374.051L1066.08 371.025L1066.69 363.047L1070.35 364.153L1071.47 361.438L1070.2 359.705L1075.76 351.576L1075.91 348.691L1055.45 331.143L1055.12 324.775L1033.57 339.439L1030.56 338.171L1030.09 330.351L1026.28 325.414L1023.42 331.002L1009.15 305.163L1020.73 301.821L1042.44 323.666L1050.53 323.177L1054.98 319.833L1059.41 322.062L1060.04 327.332L1110.79 332.419L1129.82 347.274L1131.87 347.106L1126.82 349.345L1137.43 360.663L1143.93 356.669L1144.24 352.053L1146.33 352.213L1174.55 438.941L1179.77 441.174L1184.83 434.011L1188.5 433.367L1192 435.601L1197.22 453.941L1201.98 449.639L1204.03 442.285L1191.65 429.714L1192.3 431.935L1191.65 432.745L1188.01 431.316L1191.84 392.406L1231.64 353.494L1231.95 355.884L1247.02 350.32L1247.31 348.387L1259.23 367.219L1262.72 366.73L1261.61 372L1268.59 379.166L1268.11 390.649L1274.6 392.9L1280.18 388.064ZM815.219 146.679L816.339 142.369L826.958 145.401L828.372 144.127L826.155 142.838L833.456 138.543L836.155 132.323L834.714 130.408L836.953 124.681L843.616 120.843L845.038 95.8055L868.814 83.8609L869.452 86.0899L853.442 98.2023L855.976 114.79L858.659 116.698L886.904 113.516L888.809 114.948L883.423 119.734L864.402 121.171L863.744 123.412L868.031 126.275L868.35 132.168L862.011 130.099L854.385 139.017L855.988 144.137L824.431 151.786L822.189 150.829L820.446 147.489L809.997 151.463V151.147H809.982L815.219 146.679ZM941.373 269.206L934.943 286.196L906.641 294.305L870.01 283.068L869.516 281.637L860.726 284.725L852.649 300.039L835.529 294.073L831.006 288.812L813.385 282.831L806.729 257.232L800.559 254.605L729.409 269.453L724.425 265.375L725.611 262.529L748.204 253.191L750.1 248.175L753.431 246.731L752.26 242.666L759.145 231.911L768.894 227.125L770.328 218.747L777.463 216.589L785.555 219.223L797.674 210.86L803.157 212.057L835.016 243.381L828.364 251.27L816.226 250.806L828.138 258.226L831.703 255.82L832.889 251.52L840.036 246.504L839.796 244.835L841.952 243.135L838.585 237.403L842.899 235.495L847.402 238.129L848.126 235.25L834.092 227.848L833.628 225.458L816.015 206.797L820.53 200.814L853.587 234.048L852.654 237.63L867.866 258.439L873.243 259.011L874.788 253.652L879.521 250.071L872.389 240.753L873.336 236.198L878.352 238.583L883.319 234.046L896.423 257.96L907.363 262.267L913.307 259.152L928.54 262.766L934.957 259.648L941.373 269.206ZM965.152 227.115L959.917 232.375L929.954 224.955L910.452 231.649L893.548 223.76H896.165L895.691 217.313L898.061 215.869L899.737 208.94L902.6 207.743L903.305 204.166L909.499 197.212L920.192 200.579L916.376 204.171L925.669 210.618L927.098 208.229L936.129 205.351L929.472 202.245L933.037 196.743L947.084 193.406L938.274 204.186L938.738 207.051L965.152 227.115ZM1019.61 259.387L1005.34 246.724L1008.44 243.369L1009.16 237.877L1010.58 237.633L992.977 218.024L994.398 213.484L990.131 212.529L989.183 208.705L1009.4 194.352L1016.28 197.467L1016.04 206.076L1011.3 205.119L1022.46 229.988L1029.62 230.23L1022.95 233.567L1022.23 236.67L1028.67 242.91L1032.47 257.476L1019.61 259.387Z" fill="#104B59"/>
<path d="M698.597 94.8436L711.922 90.5437L714.757 85.2884L709.542 80.9885L685.265 83.8568L678.13 79.542L669.581 84.3307L679.559 86.2462V90.5486L686.208 96.2926L698.597 94.8436Z" fill="#104B59"/>
<path d="M689.069 59.9423L695.266 42.7128L706.196 36.5048L703.346 35.5199L704.288 28.3566L710.962 25.9647L706.196 17.345L739.506 3.01102L713.351 5.87683L712.383 2.53955L553.966 10.668L553.492 14.0201L522.554 17.8535L520.663 21.2007L553.011 30.277L559.676 49.4145L570.145 54.1909L558.712 56.1014L558.235 61.3813L567.769 59.4733L566.789 62.8105L560.14 64.2447L553.492 72.3657L558.235 111.11L581.093 115.886L603.436 88.1512L689.069 59.9423Z" fill="#104B59"/>
<path d="M1511.25 456.829L1509.69 447.234L1469.76 416.258L1452.93 433.887L1440.9 407.721L1427.58 410.957L1439.64 428.552L1442.18 444.581L1465.94 455.25L1473.87 487.287L1494.47 498.461L1499.2 489.399L1513.47 492.618L1520.13 505.986L1534.4 512.907L1517.91 474.477L1523.61 471.787L1511.25 456.829Z" fill="#104B59"/>
<path d="M1423.78 458.839V458.841L1409.51 449.604L1378.1 482.748L1369.22 480.847L1369.85 483.725L1367.64 489.143L1375.56 513.704L1407.32 516.375L1421.86 487.223L1416.17 477.339L1423.78 458.839Z" fill="#104B59"/>
<path d="M1580.18 619.555L1558.93 569.187L1553.23 569.829L1548.76 547.5L1547.2 546.868L1532.6 590.544L1520.55 585.763L1511.01 566.319L1512.29 562.503L1517.37 558.344V555.801L1506.58 556.122L1491.04 547.503L1492.8 555.011L1484.06 556.739L1475.5 569.503L1476.45 571.73L1467.24 573.966L1464.06 568.23L1454.56 568.551L1453.3 575.24L1448.54 573.966L1444.4 580.979L1440.32 582.583L1438.07 587.36L1436.81 582.272L1432.05 586.726L1430.46 594.044L1383.85 619.884L1382.89 617.336L1379.4 621.157V629.135L1375.91 633.907L1377.82 641.233L1372.43 644.128L1370.53 693.225L1367.68 693.546L1375.59 701.847L1462.17 680.789L1474.87 691.963L1474.24 698.006L1478.03 699.926L1491.68 687.812L1484.69 697.374L1485 700.257L1488.84 697.048L1490.41 698.327L1480.26 708.855L1491.68 708.235L1489.77 712.678L1505.32 724.81L1515.47 720.646L1519.27 728L1531.01 718.733L1540.2 717.78L1590 639.033L1580.18 619.555Z" fill="#104B59"/>
<path d="M1420.28 352.982L1422.19 330.66L1419.02 331.929L1415.53 345.947L1420.28 352.982Z" fill="#104B59"/>
<path d="M1379.37 544.616L1457.07 545.562L1445.65 554.5L1445.35 558.629L1466.6 543.649L1389.83 539.842L1393.32 535.071L1374.94 531.218L1373.03 535.382L1349.88 529.959L1346.07 534.414L1379.37 544.616Z" fill="#104B59"/>
<path d="M1368.92 365.733V365.736L1365.42 365.104L1362.24 366.37L1360.66 365.733L1357.16 370.525L1359.06 375.938H1363.5L1367.01 373.393L1368.92 365.733Z" fill="#104B59"/>
<path d="M1350.19 524.215L1352.1 508.262L1348.29 508.901L1336.88 496.152L1339.71 492.323L1291.51 456.931L1345.41 529.959L1350.19 524.215Z" fill="#104B59"/>
<path d="M1033.34 570.442H1033.34L1005.74 595.339L999.41 650.821L1011.76 654.657L1019.69 648.269L1033.97 592.784L1038.4 590.535L1035.53 569.186L1033.34 570.442Z" fill="#104B59"/>
<path d="M436.123 22.6353L441.502 21.996L441.188 14.3267L431.676 15.5979L436.123 22.6353Z" fill="#104B59"/>
<path d="M409.471 18.167L424.05 21.6746L428.507 17.851L410.414 14.6421L409.471 18.167Z" fill="#104B59"/>
<path d="M356.016 362.461L325.108 347.174L300.124 352.197L301.091 356.973L312.25 348.354L352.218 365.588L356.016 362.461Z" fill="#104B59"/>
<path d="M719.366 161.816L718.571 164.855L724.76 167.079L738.554 162.912L740.471 151.288L743.481 149.531L742.512 145.08L731.431 144.12L728.097 148.252L729.538 148.583L727.925 150.173H726.054L724.434 149.215L722.069 149.531L721.269 150.97L722.239 153.201L720.636 154.803L724.434 156.86L724.139 159.103L722.062 160.046L719.366 161.816Z" fill="#104B59"/>
<path d="M1529.65 116.875L1529.71 117.023L1529.65 116.875Z" fill="#104B59"/>
<path d="M740.922 141.246H740.925L744.728 143.638L746.8 143.167L745.374 145.396L752.349 148.585L753.79 150.811L753.456 155.588L749.805 155.924L746.97 159.103H749.327L749.661 161.347L743.638 163.731L743.785 166.125L750.78 166.923L751.414 168.036L740.608 175.362L742.666 176.325L743.94 174.723L773.771 170.588L776.621 158.644L770.287 158.301L770.432 155.114L759.172 135.821L762.182 132.323L755.374 129.773L760.127 121.65L759.646 120.055L757.436 120.986L755.374 124.034L749.661 123.876L742.044 131.2L741.723 137.25L743.643 138.22L741.887 139.175L740.922 141.246Z" fill="#104B59"/>
<path d="M951.521 67.4321L951.728 67.4641L951.521 67.4321Z" fill="#104B59"/>
<path d="M404.718 33.7974L428.509 36.3225L433.253 29.6381L437.702 32.1954L435.789 34.7354L476.067 36.0165L457.37 30.5958L461.802 26.4563L482.747 27.4141L484.957 23.9114L488.134 26.7772L567.747 0L449.754 8.59745L448.485 17.5306L457.37 21.3616L462.752 20.7148L418.035 32.2003L415.804 26.1404L404.718 33.7974Z" fill="#104B59"/>
<path d="M509.079 459.503L536.682 477.676L536.685 477.673L555.558 696.733L469.572 705.748L347.673 560.587L281.063 470.505L288.436 461.404L283.67 457.099L288.431 437.009L293.913 434.861L294.137 429.137L303.187 419.323L302.944 399.951L329.612 393.017L329.852 389.667L326.278 386.804H291.991L288.217 390.627L289.381 395.162L285.335 397.569L283.697 396.481L292.819 409.571L273.793 411.726L269.752 423.693L251.363 428.689L216.476 488.445L207.183 491.321L179.358 477.199L176.986 477.673L191.489 421.049L190.063 415.298L192.683 411.242L192.921 402.865L175.567 382.063L176.986 375.596L165.093 346.2L158.194 344.768L156.517 354.57L173.188 397.133L169.137 401.191L159.618 387.568L161.295 380.864L157.001 375.85L154.855 375.599L149.387 367.964L154.138 364.612L148.437 336.158L135.832 325.159L132.731 288.805L164.617 237.859L156.036 229.249L156.279 223.041L162.94 224.468L164.121 198.881L155.562 199.841L156.996 178.79L152.235 171.615L97.7592 173.777L98.2208 168.979L0 203.183L62.5637 176.643L50.187 175.922L54.9526 169.457L46.6269 170.879L51.3729 159.65L89.4409 148.397L87.7763 143.621L73.7349 142.189L75.4119 139.079L74.9135 136.45L99.2029 129.756L96.8041 133.098L106.095 132.143L103.72 121.622L166.262 105.857L166.041 106.012L165.57 107.271L273.555 110.635L275.696 115.659L283.324 112.561L284.277 116.142L317.086 121.876L308.522 125.7L336.354 125.937L336.828 122.595L378.243 124.263V119.006L387.747 115.182L396.77 116.856L397.253 111.364L420.32 93.1837L440.067 92.4556L414.855 103.687L416.038 117.093L423.173 122.106L418.42 124.977L419.363 128.795L440.301 113.494L429.134 111.588L428.879 105.844L450.058 93.6503L449.824 101.786L468.619 93.6453L471.705 96.0471L474.082 95.3263L501.195 105.126L502.634 108.246L508.583 109.441L512.393 113.262L507.635 120.674L510.706 124.261L514.048 123.301L526.177 132.414L514.284 137.19L512.13 140.77L497.625 134.803L497.397 138.388L504.045 147.229L499.768 149.863L497.871 155.128L485.243 149.15L490.274 155.133L471.708 152.993L468.354 146.516L451.958 146.032L447.912 142.446L452.918 138.388L469.081 138.629L469.321 134.312L481.924 128.092L480.969 122.363L475.03 122.849L469.572 128.583L462.417 127.615L464.794 122.849L474.558 121.639L476.937 119.487L447.436 114.476L451.015 118.295L445.552 123.55L446.014 126.65L428.187 136.238L424.83 133.372L420.801 132.876L421.742 135.272L433.171 144.112L433.409 148.649L427.475 148.891L421.268 145.307L410.323 150.816L411.052 147.933L406.05 147.22L420.313 135.754L419.36 135.272L351.815 174.979L357.513 175.932L356.335 185.724L362.031 185.008L371.55 190.022L372.041 192.658L378.243 193.618L381.069 196.973L393.448 197.933L388.208 209.406L392.021 209.157L391.297 212.514L386.372 211.558L390.592 221.844L400.104 215.392L403.917 199.606L424.121 190.745L427.701 182.152L423.045 178.309L439.355 154.393L455.061 155.849L457.202 153.679L464.327 159.905L464.801 161.818L472.191 164.207L467.671 168.507L467.18 174.503L472.43 179.05L492.41 165.876L495.975 184.776L493.348 191.002L506.675 200.811L510.495 212.983L504.765 220.181L505.732 232.372L514.063 232.115L512.145 237.867L514.301 244.087L507.159 249.587L505.003 244.087L500.967 246.953L499.781 243.611L481.698 243.134L502.646 220.664L501.679 219.462L452.682 228.07L446.969 233.34L441.965 234.068L429.839 243.86L453.164 233.34L459.577 235.263L451.735 248.402L456.007 254.874L465.27 255.331L474.806 247.679L474.332 251.5L475.754 254.378L469.086 255.575L466.466 259.65L441.487 268.243L439.584 263.708L448.877 257.725L418.651 268.482L412.712 277.349L415.567 279.738L413.185 282.37L393.202 288.089L385.815 297.407L382.004 296.958L378.235 305.084L374.408 305.792L374.882 314.881L364.68 351.218L364.049 366.245L369.087 364.077L370.516 367.175L366.948 369.567V375.299L364.085 379.367L368.122 383.689L367.665 376.024L376.455 365.502L374.778 378.643L376.202 375.78L385.466 376.256L395.238 383.612L395.535 387.103L406.004 392.202L408.857 398.887L448.823 416.77L452.299 429.841L456.132 433.03L455.174 439.731L463.399 444.826V450.886L468.801 446.102L484.666 452.807V460.444L488.15 458.526L509.079 459.503Z" fill="#104B59"/>
<path d="M355.558 378.49L385.273 371.801L378.848 366.755L362.44 367.254L361.725 374.188H353.881L353.638 374.899L355.558 378.49Z" fill="#104B59"/>
<path d="M289.91 53.5491V53.5516L314.943 47.1782L307.98 61.2234L319.701 69.5098L361.58 66.9599L366.974 63.1413L368.243 41.7748L361.896 44.0087L360.639 43.6878L356.495 48.7876L329.866 36.3345L287.049 49.4219L289.91 53.5491Z" fill="#104B59"/>
<path d="M389.496 45.9097H389.493L380.932 46.2256L404.097 46.8624L405.357 38.9019L389.503 41.1259L389.496 45.9097Z" fill="#104B59"/>
<path d="M384.74 21.0388L389.807 16.2451L377.74 18.4815L377.426 20.7154L372.223 22.9567L384.74 21.0388Z" fill="#104B59"/>
<path d="M338.742 31.2351L354.904 39.8572L384.743 33.8022L386.636 30.5957L382.508 29.322L383.471 26.1378L369.186 32.1953L354.602 27.409L357.455 24.2223L356.488 21.0381L325.11 28.3618L338.742 31.2351Z" fill="#104B59"/>
</g>
</svg>
