<svg width="398" height="300" viewBox="0 0 398 300" fill="none" xmlns="http://www.w3.org/2000/svg">
<path opacity="0.4" d="M275.306 157.476L277.46 155.792L282.126 173.198L281.147 173.549L281.566 181.797L283.311 181.235L287.821 189.345L287.345 190.671L297.429 201.304L283.799 172.987L285.26 166.288L286.369 165.511L287.274 166.769L287.141 168.805L289.639 168.309L294.863 174.805L296.117 174.387L297.717 175.514L297.433 179.494L307.668 170.683L306.766 162.298L310.268 159.561L309.419 154.881L315.067 150.403L317.641 150.821L318.121 153.899L319.033 154.387L322.791 149.985L324.736 150.683L333.574 146.278L330.007 117.912L326.809 118.965L326.385 115.4L327.074 113.934L318.25 105.477L322.775 99.6007L324.299 99.7392L318.877 97.786L315.332 99.3247L315.119 97.7156L311.081 96.0394L311.153 94.571L317.333 89.3941L318.729 90.5823L317.893 92.5355L318.388 95.4096L324.504 92.4652L326.876 93.2335L327.297 97.4343L332.236 100.016L334.466 104.638L333.837 106.522L335.368 107.989L339.337 106.452L339.198 98.7631L331.615 93.2356L334.813 90.0953L334.533 87.3716L337.458 83.3137L339.682 84.8589L343.024 82.7575L344.972 67.1706L338.154 55.3549L331.467 53.1928L330.22 55.2856L327.093 50.4691L326.11 52.2113L322.494 51.1606L327.297 40.3307L344.139 39.5689L344.631 40.8977L351.924 40.1229L349.493 34.8129L354.162 33.2092L358.123 36.9761L360.674 34.0912L360.671 34.089L360.759 34.1107L360.669 34.0879L359.244 32.3695L361.046 31.7365L363.066 35.4406L360.207 46.2726L375.388 61.721L376.219 61.5143L376.64 58.2236L375.389 56.9759L377.542 56.1232L375.454 53.4698L376.146 52.0068L377.753 52.4948L374.481 47.9499L375.743 48.4336L369.895 43.0576L368.493 43.26L367.728 41.731L368.144 40.5428L366.69 38.5192L369.937 37.3981L371.413 37.8083L372.178 38.9315L373.646 37.5345L379.536 38.5874L379.62 36.6201L383.043 32.7039L389.864 32.0828L381.726 27.7467L381.786 26.5574L383.183 25.0922L382.416 23.9041L398 27.3983L397.794 23.8359L348.246 13.0688L352.079 16.2849L330.15 14.4712L328.204 12.3654L286.319 7.96875L289.435 10.3462L277.192 9.15475L277.272 12.0224L257.572 4.96802L255.489 6.99159L249.572 6.78274L248.519 5.66491L240.726 5.73525L237.732 3.5591L235.508 4.0612L233.836 5.87376L229.108 6.22545L236.004 2.17182L234.47 0L191.446 3.22797L193.542 4.96911L184.34 5.66383L190.548 9.50428L180.869 8.10726L179.964 9.29759L181.157 10.6275L181.225 11.675L174.822 6.56848L180.866 16.7026L182.395 15.6561L182.198 16.4915L181.843 16.6301L181.503 21.8729L179.549 22.2906L177.745 21.6619L179.831 20.0582L180.111 17.8875L173.776 10.6254L173.432 7.33679L168.899 5.66274L167.376 6.35963L166.403 8.94266L166.679 9.99232L164.731 11.3244L170.916 18.382L152.614 12.5829L151.153 13.3491L154.637 17.4049L132.298 21.3146L130.773 20.2054L132.512 18.8073L130.56 16.919L125.92 16.933L127.919 20.8352L129.236 21.4563L129.023 22.6499L121.653 24.6118L122.628 25.9374L121.439 26.6386L117.547 25.3098L115.662 25.8692L116.355 27.0552L118.722 27.6136L112.953 26.5639L109.895 22.164L123.045 21.5407L123.666 20.1329L123.25 18.9469L102.023 14.3392L103.424 12.5883L72.6599 17.6905L75.583 17.9697L66.746 29.7086L60.2718 30.0559L57.492 32.7147L57.6267 41.6693L59.579 42.9895L68.4192 40.2712L70.7777 45.0877L70.4997 48.439L67.303 49.2831L68.2059 47.8915L67.1576 45.7175L67.3709 44.1809L64.102 45.0877L63.6139 52.2914L64.1699 53.1982L63.1216 54.5249L55.1217 56.4132L54.4936 59.7018L44.2646 66.4044L40.7899 64.7271L41.4838 68.5092L35.9157 67.5958L34.5247 69.3489L40.0928 72.5595L42.0397 76.8902L39.6037 82.6287L28.1906 81.921L27.6972 81.3648H26.4463L25.4033 82.5486L23.8734 82.6254L23.4586 98.4158L28.4061 100.098L29.4469 102.329L30.0707 102.749L30.2786 103.313L21.9976 111.765L20.2544 119.665L15.0375 124.628L12.2545 125.257L7.31028 131.902V134.276L1.88333 142.452L3.27427 147.838L2.30459 148.81L1.67538 160.418L0 161.743L0.0689497 162.583L1.53317 163.767L2.37355 170.485L23.3832 191.095L35.3576 189.003L37.2991 189.912L51.2894 185.372L53.9377 186.409L56.8618 191.445L63.2681 190.959L66.1157 193.621L63.6861 205.715L74.5422 226.397L73.4271 227.935L85.603 291.546L84.5632 294.27L86.5047 298.749L88.7275 300L106.064 296.79L119.217 282.737L120.467 275.478L126.657 270.648L126.517 257.922L140.366 246.743L138.477 214.933L166.602 169.92L150.18 173.968L147.396 171.038L147.813 168.943L122.201 125.467L125.054 125.187L145.377 157.693L142.936 155.449L142.449 156.927L148.577 167.757L152.478 166.991L153.169 165.447L175.72 155.45L176.343 153.077L178.565 152.936L179.192 151.333L181.35 150.006L181.62 146.509L183.226 146.993L183.716 145.803L183.161 145.043L185.598 141.48L185.666 140.215L176.688 132.522L176.543 129.73L167.086 136.159L165.764 135.603L165.557 132.175L163.886 130.01L162.63 132.46L156.37 121.133L161.449 119.668L170.977 129.244L174.528 129.03L176.48 127.564L178.425 128.541L178.7 130.851L200.974 133.082L209.322 139.594L210.221 139.52L208.006 140.502L212.662 145.463L215.516 143.712L215.651 141.689L216.566 141.759L228.951 179.779L231.242 180.759L233.464 177.618L235.073 177.336L236.607 178.315L238.899 186.356L240.987 184.469L241.888 181.246L236.455 175.734L236.742 176.708L236.455 177.063L234.859 176.437L236.54 159.379L254.002 142.321L254.142 143.368L260.755 140.929L260.883 140.082L266.112 148.337L267.641 148.123L267.157 150.433L270.217 153.575L270.006 158.609L272.858 159.596L275.306 157.476ZM71.2668 51.6551L71.7581 49.7657L76.418 51.0946L77.0385 50.5362L76.0656 49.9713L79.2699 48.0884L80.454 45.3615L79.8215 44.5218L80.8041 42.0112L83.7282 40.3285L84.3521 29.3526L94.7858 24.1162L95.0659 25.0933L88.0401 30.4033L89.1519 37.6752L90.3296 38.5116L102.724 37.1168L103.56 37.7444L101.196 39.8427L92.8496 40.4725L92.5609 41.455L94.4421 42.7103L94.5821 45.2933L91.8002 44.3865L88.4538 48.2962L89.1573 50.5405L75.3093 53.894L74.3256 53.4741L73.5606 52.01L68.9752 53.7523V53.6137H68.9687L71.2668 51.6551ZM126.627 105.369L123.805 112.818L111.386 116.372L95.3105 111.447L95.0939 110.819L91.2367 112.173L87.6921 118.886L80.1792 116.271L78.1946 113.965L70.462 111.343L67.5411 100.12L64.8336 98.9687L33.6111 105.478L31.4239 103.69L31.9443 102.442L41.8587 98.3487L42.6905 96.1498L44.1525 95.5168L43.6386 93.7345L46.6597 89.0197L50.9381 86.9215L51.5673 83.2487L54.6983 82.303L58.2495 83.4576L63.5676 79.7914L65.9735 80.3162L79.954 94.0483L77.0353 97.5068L71.7086 97.3033L76.9362 100.556L78.5006 99.5011L79.021 97.6161L82.1574 95.4172L82.0518 94.6857L82.9977 93.9401L81.5206 91.4274L83.4136 90.5909L85.3896 91.7456L85.7074 90.4838L79.5489 87.2385L79.3453 86.191L71.6159 78.0102L73.5973 75.3871L88.1036 89.9568L87.6942 91.527L94.3699 100.649L96.7294 100.9L97.4071 98.551L99.4844 96.9809L96.3545 92.8959L96.7704 90.8993L98.9715 91.9447L101.151 89.9557L106.901 100.439L111.702 102.328L114.311 100.962L120.995 102.546L123.811 101.18L126.627 105.369ZM137.061 86.9171L134.764 89.2231L121.616 85.9703L113.058 88.905L105.64 85.4465H106.788L106.58 82.62L107.62 81.987L108.356 78.9495L109.612 78.4246L109.921 76.8566L112.64 73.8083L117.332 75.2843L115.657 76.8588L119.736 79.6853L120.363 78.6378L124.325 77.3761L121.404 76.0147L122.969 73.6027L129.133 72.1397L125.267 76.8653L125.471 78.1216L137.061 86.9171ZM160.961 101.065L154.698 95.5135L156.057 94.0429L156.374 91.6352L156.997 91.5281L149.272 82.9317L149.896 80.9417L148.023 80.5229L147.607 78.8467L156.479 72.5541L159.5 73.9198L159.394 77.6942L157.313 77.2743L162.211 88.1767L165.351 88.2828L162.425 89.7458L162.11 91.106L164.935 93.8416L166.601 100.227L160.961 101.065Z" fill="#104B59"/>
</svg>
