<svg width="758" height="629" viewBox="0 0 758 629" fill="none" xmlns="http://www.w3.org/2000/svg">
<path d="M30.2872 846C30.2872 846 -115.553 389.888 243.656 432.635C602.862 475.384 366.747 114.947 713.412 21.067C1089.32 -80.7353 1231 237.921 1231 237.921M34.917 845.312C34.917 845.312 -110.319 393.744 246.582 435.522C278.431 439.269 305.617 439.858 328.973 437.761C565.866 416.447 403.288 114.413 714.355 29.6961C1084.44 -70.9718 1224.98 241.212 1228.05 243.781M39.545 844.619C39.545 844.619 -105.085 397.595 249.509 438.404C281.014 442.067 307.974 442.653 331.212 440.625C566.506 419.971 408.762 122.285 715.294 38.3241C1079.56 -61.214 1218.96 244.501 1225.09 249.64M44.1773 843.929C44.1773 843.929 -99.8513 401.449 252.436 441.287C283.597 444.868 310.334 445.45 333.451 443.492C567.146 423.497 414.238 130.165 716.235 46.9535C1074.68 -51.4526 1212.93 247.794 1222.13 255.496M48.8069 843.24C48.8069 843.24 -94.6155 405.302 255.365 444.173C286.182 447.671 312.695 448.249 335.693 446.356C567.791 427.022 419.714 138.042 717.178 55.5842C1069.8 -41.6898 1206.91 251.085 1219.18 261.358M53.4365 842.55C53.4365 842.55 -89.382 409.156 258.294 447.055C288.765 450.472 315.053 451.045 337.934 449.22C568.433 430.545 425.191 145.916 718.118 64.2129C1064.92 -31.9291 1200.9 254.375 1216.22 267.217M58.0669 841.86C58.0669 841.86 -84.1455 413.01 261.221 449.938C291.348 453.273 317.415 453.841 340.173 452.084C569.074 434.068 430.668 153.794 719.06 72.8394C1060.04 -22.1728 1194.88 257.663 1213.27 273.073M62.6967 841.171C62.6967 841.171 -78.835 416.139 264.15 452.825C293.942 456.01 319.774 456.64 342.415 454.948C569.718 437.596 436.143 161.67 720 81.4702C1055.16 -12.4099 1188.85 260.953 1210.31 278.932M67.3267 840.478C67.3267 840.478 -73.5898 419.899 267.079 455.708C296.528 458.803 322.133 459.435 344.656 457.816C570.36 441.123 441.619 169.549 720.941 90.1024C1050.27 -2.6479 1182.83 264.246 1207.36 284.793M71.9568 839.787C71.9568 839.787 -68.3466 423.66 270.006 458.591C299.111 461.595 324.495 462.232 346.896 460.681C571.001 444.646 447.095 177.426 721.883 98.7294C1045.39 7.11345 1176.81 267.536 1204.4 290.651M76.5843 839.099C76.5843 839.099 -63.1085 427.425 272.935 461.478C301.696 464.392 326.854 465.03 349.135 463.545C571.643 448.171 452.569 185.301 722.826 107.36C1040.51 16.8742 1170.79 270.826 1201.45 296.511M81.216 838.408C81.216 838.408 -57.8661 431.192 275.861 464.359C304.278 467.185 329.212 467.826 351.378 466.408C572.285 451.694 458.046 193.175 723.768 115.986C1035.63 26.632 1164.77 274.113 1198.5 302.365M85.8455 837.716C85.8455 837.716 -52.6259 434.96 278.79 467.242C306.866 469.977 331.573 470.622 353.617 469.273C572.927 455.22 463.366 200.525 724.707 124.613C1030.57 35.7727 1158.75 277.401 1195.54 308.223M90.4764 837.027C90.4764 837.027 -47.3844 438.734 281.72 470.129C309.452 472.773 333.933 473.421 355.857 472.139C573.57 458.747 468.831 208.363 725.648 133.246C1025.68 45.4903 1152.73 280.695 1192.58 314.085M95.1053 836.337C95.1053 836.337 -42.147 442.511 284.646 473.012C312.034 475.568 336.294 476.218 358.097 475.004C574.212 462.271 474.295 216.2 726.591 141.875C1020.78 55.2086 1146.71 283.988 1189.63 319.943M99.7354 835.647C99.7354 835.647 -36.9085 446.288 287.575 475.894C314.619 478.364 338.653 479.014 360.339 477.868C574.854 465.794 479.757 224.038 727.532 150.502C1015.89 64.924 1140.69 287.276 1186.67 325.8M104.365 834.958C104.365 834.958 -31.6704 450.074 290.501 478.781C317.204 481.16 341.012 481.812 362.578 480.732C575.496 469.319 485.221 231.879 728.47 159.132C1010.99 74.6461 1134.67 290.568 1183.71 331.659M108.996 834.268C108.996 834.268 -26.4311 453.857 293.431 481.665C319.788 483.956 343.374 484.61 364.82 483.598C576.14 472.846 490.684 239.719 729.414 167.763C1006.1 84.3657 1128.65 293.857 1180.76 337.521M113.623 833.575C113.623 833.575 -21.1959 457.647 296.357 484.547C322.37 486.753 345.73 487.407 367.059 486.465C576.779 476.372 496.146 247.563 730.354 176.394C1001.2 94.0882 1122.62 297.149 1177.8 343.379M118.255 832.886C118.255 832.886 -15.9621 461.439 299.284 487.434C324.955 489.551 348.091 490.248 369.298 489.329C577.437 480.32 501.608 255.407 731.295 185.022C996.305 103.815 1116.6 300.441 1174.85 349.238M122.885 832.196C122.885 832.196 -10.7253 465.238 302.214 490.316C327.539 492.344 350.453 493.044 371.538 492.193C578.078 483.852 507.074 263.25 732.237 193.651C991.411 113.539 1110.58 303.728 1171.9 355.097M127.515 831.506C127.515 831.506 -5.49188 469.038 305.143 493.201C330.124 495.141 352.812 495.843 373.781 495.057C578.722 487.387 512.538 271.094 733.178 202.278C986.516 123.264 1104.56 307.016 1168.94 360.95M132.144 830.815C132.144 830.815 -0.256287 472.844 308.069 496.083C332.709 497.939 355.171 498.639 376.02 497.921C579.362 490.921 517.999 278.941 734.118 210.906C981.624 132.993 1098.54 310.306 1165.98 366.81M136.775 830.124C136.775 830.124 4.97794 476.654 310.998 498.967C335.292 500.738 357.533 501.44 378.26 500.788C580.002 494.453 523.464 286.791 735.059 219.537C976.73 142.726 1092.52 313.598 1163.03 372.672M141.404 829.434C141.404 829.434 10.2092 480.467 313.925 501.852C337.877 503.536 359.891 504.236 380.501 503.652C580.644 497.982 528.928 294.64 736.002 228.165C971.839 152.457 1086.5 316.888 1160.07 378.527M146.035 828.742C146.035 828.742 15.4432 484.284 316.854 504.736C340.46 506.337 362.251 507.034 382.742 506.515C581.285 501.512 534.393 302.492 736.946 236.796C966.945 162.195 1080.48 320.179 1157.12 384.388M150.662 828.055C150.662 828.055 20.6703 488.111 319.781 507.621C343.041 509.14 364.61 509.833 384.979 509.382C581.923 505.04 539.856 310.347 737.882 245.425C962.048 171.933 1074.46 323.472 1154.16 390.248M155.292 827.364C155.292 827.364 25.9042 491.941 322.71 510.505C345.629 511.938 366.971 512.629 387.221 512.248C582.565 508.567 545.322 318.203 738.825 254.055C957.161 181.675 1068.44 326.761 1151.21 396.105M159.924 826.673C159.924 826.673 31.1331 495.774 325.639 513.387C348.211 514.736 369.33 515.423 389.464 515.11C583.207 512.09 550.789 326.059 739.768 262.684C952.27 191.416 1062.42 330.051 1148.25 401.964M164.554 825.983C164.554 825.983 36.3627 499.617 328.568 516.272C350.797 517.54 371.691 518.222 391.704 517.977C583.848 515.615 556.256 333.921 740.71 271.313C947.381 201.166 1056.4 333.341 1145.3 407.825M169.184 825.293C169.184 825.293 41.5945 503.462 331.495 519.157C353.38 520.339 374.051 521.018 393.943 520.841C584.488 519.134 561.721 341.782 741.649 279.942C942.489 210.915 1050.37 336.631 1142.34 413.68M173.814 824.602C173.814 824.602 46.8229 507.315 334.423 522.039C355.962 523.141 376.409 523.814 396.186 523.703C585.129 522.655 567.189 349.645 742.591 288.568C937.603 220.664 1044.35 339.919 1139.39 419.537M178.444 823.913C178.444 823.913 52.0506 511.177 337.351 524.923C358.548 525.944 378.771 526.707 398.426 526.571C585.766 525.262 572.656 357.517 743.535 297.198C932.715 230.422 1038.33 343.21 1136.43 425.398M183.071 823.22C183.071 823.22 57.2767 515.045 340.277 527.807C361.128 528.747 381.129 529.501 400.662 529.435C586.405 528.792 578.122 365.387 744.472 305.827C927.822 240.181 1032.31 346.5 1133.48 431.253M187.701 822.53C187.701 822.53 62.5041 518.916 343.206 530.692C363.711 531.552 383.489 532.204 402.906 532.299C587.05 533.207 583.594 373.262 745.416 314.458C922.939 249.948 1026.29 349.79 1130.52 437.115M192.331 821.841C192.331 821.841 67.7337 522.801 346.133 533.576C366.297 534.357 385.848 535.003 405.146 535.166C587.69 536.724 589.061 381.144 746.355 323.089C918.052 259.718 1020.27 353.082 1127.57 442.975M196.964 821.151C196.964 821.151 72.961 526.689 349.062 536.461C368.882 537.163 388.209 537.797 407.385 538.03C588.33 540.233 594.535 389.023 747.296 331.715C913.169 269.49 1014.25 356.372 1124.61 448.832M201.594 820.461C201.594 820.461 78.188 530.591 351.989 539.344C371.463 539.967 390.569 540.594 409.627 540.895C588.971 543.745 600.006 396.912 748.237 340.347C908.288 279.269 1008.23 359.664 1121.66 454.692M206.223 819.772C206.223 819.772 83.4144 534.498 354.918 542.227C374.048 542.773 392.927 543.389 411.867 543.76C589.612 547.254 605.483 404.806 749.179 348.977C903.409 289.054 1002.21 362.956 1118.7 460.551M210.853 819.08C210.853 819.08 88.6412 538.415 357.846 545.112C376.631 545.579 395.288 546.183 414.106 546.625C590.252 550.759 610.957 412.704 750.12 357.604C898.532 298.845 996.19 366.244 1115.75 466.409M215.483 818.389C215.483 818.389 93.869 542.343 360.774 547.994C379.214 548.386 397.648 548.939 416.346 549.486C590.905 553.915 616.438 420.605 751.062 366.232C893.654 308.639 990.167 369.533 1112.79 472.266M220.11 817.699C220.11 817.699 99.0953 546.281 363.7 550.877C381.797 551.194 400.006 551.736 418.587 552.351C591.544 557.439 621.915 428.515 752.002 374.859C888.782 318.441 984.146 372.821 1109.83 478.122M224.74 817.01C224.74 817.01 104.324 550.232 366.629 553.764C384.382 554.002 402.365 554.534 420.826 555.22C592.186 560.966 627.4 436.437 752.943 383.49C883.912 328.256 978.125 376.113 1106.88 483.983M229.37 816.32C229.37 816.32 109.552 554.194 369.556 556.649C386.963 556.812 404.727 557.332 423.066 558.084C592.827 564.492 632.89 444.363 753.884 392.121C879.047 338.08 972.102 379.405 1103.92 489.843M234 815.627C234 815.627 114.781 558.168 372.487 559.533C389.55 559.621 407.088 560.129 425.309 560.948C593.471 568.014 638.384 452.299 754.825 400.749C874.187 347.909 966.081 382.693 1100.97 495.702M238.633 814.938C238.633 814.938 120.024 559.87 375.414 562.417C392.134 562.582 409.448 562.926 427.551 563.814C594.116 571.542 643.882 460.246 755.769 409.38C869.333 357.748 960.063 385.984 1098.01 501.559M243.262 814.248C243.262 814.248 125.242 564.169 378.344 565.299C394.717 565.372 411.809 565.723 429.79 566.676C594.756 575.064 649.39 468.202 756.71 418.006C864.484 367.597 954.042 389.274 1095.06 507.417M247.892 813.557C247.892 813.557 130.475 570.177 381.272 568.182C397.301 568.055 414.167 568.517 432.031 569.543C595.398 578.59 654.899 476.176 757.652 426.637C859.643 377.465 948.023 392.564 1092.1 513.279M252.522 812.869C252.522 812.869 135.71 574.213 384.199 571.068C399.887 570.869 416.527 571.315 434.273 572.409C596.041 582.115 660.425 484.162 758.596 435.268C854.812 387.343 942.004 395.858 1089.15 519.136M257.15 812.179C257.15 812.179 140.95 578.717 387.126 573.951C402.467 573.711 418.886 574.112 436.51 575.271C596.678 585.638 665.955 492.168 759.532 443.894C849.985 397.233 935.979 399.146 1086.19 524.993M261.779 811.486C261.779 811.486 146.186 582.57 390.054 576.835C405.052 576.509 421.245 576.908 438.751 578.135C597.32 589.163 671.598 500.362 760.473 452.523C845.263 407.301 929.958 402.436 1083.23 530.851M266.41 810.797C266.41 810.797 137.046 558.371 440.993 581.003C744.939 603.633 756.956 265.829 1080.28 536.71" stroke="#E6E6E6" stroke-miterlimit="10"/>
</svg>
